{
.appVersion = "1352";
DisplayStrings = (
"/Oinvertedbreve/Omacron/Oogonek Ø",
"A/dieresiscomb.case/hookabovecomb.case/ringcomb.case/acutecomb É",
"/Ncommaaccent/circumflexcomb_gravecomb/ringcomb/aringacute",
"nn/Placeholder no/Placeholder oo/space HH/Placeholder HO/Placeholder OO\012o,:;/ellipsis !¡?¿nn?·/bullet *#///backslash/periodcentered.loclCAT (){}[]-­/endash/emdash/hyphentwo _o/quotesinglbase \012/quotedblleft/quotedblright/quoteleft/quoteright «»/guilsinglleft/guilsinglright \"'/leftanglebracket-math/rightanglebracket-math n@/space \012email@mywebsite.com",

glyphs = (
{
color = 3;
glyphname = .notdef;
lastChange = "2021-10-27 16:13:15 +0000";
layers = (
{
layerId = "F9847816-3BA7-404E-BAEF-52D5126F5321";
paths = (
{
closed = 1;
nodes = (
"469 23 LINE",
"478 31 LINE",
"478 644 LINE",
"469 653 LINE",
"48 653 LINE",
"40 643 LINE",
"40 32 LINE",
"48 23 LINE"
);
},
{
closed = 1;
nodes = (
"144 173 LINE",
"234 339 LINE",
"144 502 LINE",
"163 537 LINE",
"253 373 LINE",
"344 537 LINE",
"363 502 LINE",
"273 337 LINE",
"363 173 LINE",
"344 139 LINE",
"253 302 LINE",
"163 139 LINE"
);
},
{
closed = 1;
nodes = (
"57 636 LINE",
"461 636 LINE",
"461 39 LINE",
"57 39 LINE"
);
},
{
closed = 1;
nodes = (
"427 72 LINE",
"427 600 LINE",
"92 600 LINE",
"92 72 LINE"
);
}
);
width = 518;
},
{
layerId = "A97A914C-B88D-4C15-9174-D82F9495701A";
paths = (
{
closed = 1;
nodes = (
"469 23 LINE",
"478 31 LINE",
"478 644 LINE",
"469 653 LINE",
"48 653 LINE",
"40 643 LINE",
"40 32 LINE",
"48 23 LINE"
);
},
{
closed = 1;
nodes = (
"144 173 LINE",
"234 339 LINE",
"144 502 LINE",
"163 537 LINE",
"253 373 LINE",
"344 537 LINE",
"363 502 LINE",
"273 337 LINE",
"363 173 LINE",
"344 139 LINE",
"253 302 LINE",
"163 139 LINE"
);
},
{
closed = 1;
nodes = (
"57 636 LINE",
"461 636 LINE",
"461 39 LINE",
"57 39 LINE"
);
},
{
closed = 1;
nodes = (
"427 72 LINE",
"427 600 LINE",
"92 600 LINE",
"92 72 LINE"
);
}
);
width = 518;
}
);
note = .notdef;
},
{
color = 9;
glyphname = A;
lastChange = "2021-11-25 01:19:15 +0000";
layers = (
{
anchors = (
{
name = bottom;
position = "{306, 0}";
},
{
name = ogonek;
position = "{553, 2}";
},
{
name = top;
position = "{608, 500}";
}
);
layerId = "F9847816-3BA7-404E-BAEF-52D5126F5321";
paths = (
{
closed = 1;
nodes = (
"111 -30 OFFCURVE",
"185 -6 OFFCURVE",
"193 23 CURVE",
"206 23 OFFCURVE",
"223 43 OFFCURVE",
"233 51 CURVE SMOOTH",
"250 65 LINE",
"271 93 LINE SMOOTH",
"273 95 OFFCURVE",
"278 98 OFFCURVE",
"281 101 CURVE SMOOTH",
"291 109 OFFCURVE",
"317 142 OFFCURVE",
"325 153 CURVE SMOOTH",
"343 175 OFFCURVE",
"356 202 OFFCURVE",
"378 220 CURVE SMOOTH",
"393 233 OFFCURVE",
"445 234 OFFCURVE",
"467 242 CURVE",
"469 242 LINE",
"459 195 OFFCURVE",
"447 148 OFFCURVE",
"447 99 CURVE SMOOTH",
"447 53 OFFCURVE",
"460 -11 OFFCURVE",
"518 -11 CURVE SMOOTH",
"531 -11 OFFCURVE",
"561 -1 OFFCURVE",
"561 15 CURVE SMOOTH",
"561 22 LINE",
"557 22 LINE",
"556 19 OFFCURVE",
"522 -1 OFFCURVE",
"516 -4 CURVE",
"475 -4 OFFCURVE",
"474 57 OFFCURVE",
"474 86 CURVE SMOOTH",
"474 100 OFFCURVE",
"475 114 OFFCURVE",
"475 128 CURVE SMOOTH",
"475 132 OFFCURVE",
"475 136 OFFCURVE",
"474 139 CURVE",
"479 141 OFFCURVE",
"488 238 OFFCURVE",
"510 245 CURVE SMOOTH",
"521 248 OFFCURVE",
"541 249 OFFCURVE",
"553 249 CURVE SMOOTH",
"573 249 OFFCURVE",
"636 247 OFFCURVE",
"636 217 CURVE SMOOTH",
"636 197 OFFCURVE",
"604 154 OFFCURVE",
"588 143 CURVE",
"588 141 LINE",
"589 141 LINE",
"589 139 LINE",
"607 150 OFFCURVE",
"652 173 OFFCURVE",
"652 200 CURVE SMOOTH",
"652 243 OFFCURVE",
"605 264 OFFCURVE",
"551 264 CURVE SMOOTH",
"538 264 OFFCURVE",
"526 262 OFFCURVE",
"514 262 CURVE SMOOTH",
"509 262 LINE",
"508 265 OFFCURVE",
"512 275 OFFCURVE",
"513 278 CURVE SMOOTH",
"523 316 OFFCURVE",
"543 349 OFFCURVE",
"559 384 CURVE",
"561 384 OFFCURVE",
"571 404 OFFCURVE",
"573 409 CURVE SMOOTH",
"576 414 OFFCURVE",
"577 422 OFFCURVE",
"580 427 CURVE SMOOTH",
"588 441 OFFCURVE",
"608 475 OFFCURVE",
"621 485 CURVE",
"622 491 LINE",
"620 500 OFFCURVE",
"603 501 OFFCURVE",
"595 504 CURVE",
"582 493 OFFCURVE",
"551 459 OFFCURVE",
"548 442 CURVE SMOOTH",
"547 438 OFFCURVE",
"547 434 OFFCURVE",
"547 430 CURVE",
"531 397 LINE SMOOTH",
"515 363 OFFCURVE",
"481 292 OFFCURVE",
"474 257 CURVE",
"437 252 LINE",
"436 251 LINE",
"396 246 LINE",
"397 246 LINE",
"398 249 OFFCURVE",
"430 296 OFFCURVE",
"434 301 CURVE SMOOTH",
"437 305 OFFCURVE",
"442 309 OFFCURVE",
"445 313 CURVE SMOOTH",
"460 332 OFFCURVE",
"474 354 OFFCURVE",
"487 374 CURVE SMOOTH",
"497 389 OFFCURVE",
"507 405 OFFCURVE",
"517 421 CURVE SMOOTH",
"521 427 OFFCURVE",
"524 435 OFFCURVE",
"528 442 CURVE SMOOTH",
"531 446 OFFCURVE",
"537 450 OFFCURVE",
"537 456 CURVE SMOOTH",
"537 459 OFFCURVE",
"535 461 OFFCURVE",
"534 462 CURVE",
"520 445 LINE SMOOTH",
"518 443 OFFCURVE",
"518 440 OFFCURVE",
"517 438 CURVE SMOOTH",
"499 403 OFFCURVE",
"462 365 OFFCURVE",
"438 333 CURVE SMOOTH",
"424 313 OFFCURVE",
"413 295 OFFCURVE",
"396 278 CURVE SMOOTH",
"388 270 OFFCURVE",
"376 244 OFFCURVE",
"365 240 CURVE SMOOTH",
"342 231 OFFCURVE",
"319 228 OFFCURVE",
"296 220 CURVE SMOOTH",
"287 217 OFFCURVE",
"277 215 OFFCURVE",
"267 214 CURVE",
"266 212 LINE",
"265 214 OFFCURVE",
"252 210 OFFCURVE",
"249 209 CURVE SMOOTH",
"108 170 LINE",
"109 171 LINE",
"109 178 OFFCURVE",
"132 203 OFFCURVE",
"137 210 CURVE",
"139 210 OFFCURVE",
"139 210 OFFCURVE",
"139 211 CURVE SMOOTH",
"139 212 LINE",
"119 214 OFFCURVE",
"98 169 OFFCURVE",
"86 165 CURVE SMOOTH",
"76 162 OFFCURVE",
"66 160 OFFCURVE",
"56 157 CURVE",
"55 156 OFFCURVE",
"49 155 OFFCURVE",
"48 155 CURVE SMOOTH",
"19 155 LINE",
"19 171 OFFCURVE",
"55 192 OFFCURVE",
"68 197 CURVE",
"68 199 LINE",
"69 199 LINE",
"69 200 LINE",
"63 200 OFFCURVE",
"57 199 OFFCURVE",
"52 196 CURVE",
"38 196 OFFCURVE",
"4 183 OFFCURVE",
"4 167 CURVE SMOOTH",
"4 141 OFFCURVE",
"40 133 OFFCURVE",
"60 133 CURVE SMOOTH",
"66 133 LINE",
"59 127 LINE",
"59 111 OFFCURVE",
"49 98 OFFCURVE",
"40 86 CURVE",
"40 79 OFFCURVE",
"34 73 OFFCURVE",
"34 65 CURVE SMOOTH",
"34 63 OFFCURVE",
"34 61 OFFCURVE",
"36 59 CURVE",
"36 58 LINE",
"32 57 OFFCURVE",
"30 50 OFFCURVE",
"29 46 CURVE",
"29 39 LINE SMOOTH",
"29 31 OFFCURVE",
"28 22 OFFCURVE",
"29 14 CURVE SMOOTH",
"33 -7 OFFCURVE",
"63 -30 OFFCURVE",
"85 -30 CURVE SMOOTH"
);
},
{
closed = 1;
nodes = (
"61 -20 OFFCURVE",
"53 -5 OFFCURVE",
"53 16 CURVE SMOOTH",
"53 42 OFFCURVE",
"71 120 OFFCURVE",
"92 135 CURVE SMOOTH",
"107 146 OFFCURVE",
"128 147 OFFCURVE",
"146 152 CURVE SMOOTH",
"168 159 OFFCURVE",
"343 215 OFFCURVE",
"348 215 CURVE SMOOTH",
"349 215 LINE",
"343 204 OFFCURVE",
"326 193 OFFCURVE",
"318 183 CURVE SMOOTH",
"312 177 OFFCURVE",
"307 168 OFFCURVE",
"301 161 CURVE SMOOTH",
"288 145 OFFCURVE",
"271 130 OFFCURVE",
"257 114 CURVE SMOOTH",
"221 77 OFFCURVE",
"185 38 OFFCURVE",
"143 8 CURVE SMOOTH",
"133 1 OFFCURVE",
"96 -20 OFFCURVE",
"84 -20 CURVE SMOOTH"
);
}
);
width = 592;
},
{
anchors = (
{
name = bottom;
position = "{339, 0}";
},
{
name = ogonek;
position = "{655, -7}";
},
{
name = top;
position = "{644, 500}";
}
);
layerId = "A97A914C-B88D-4C15-9174-D82F9495701A";
paths = (
{
closed = 1;
nodes = (
"145 -36 OFFCURVE",
"179 -19 OFFCURVE",
"212 6 CURVE SMOOTH",
"228 17 OFFCURVE",
"242 29 OFFCURVE",
"257 41 CURVE SMOOTH",
"266 48 LINE",
"272 57 OFFCURVE",
"278 66 OFFCURVE",
"286 75 CURVE SMOOTH",
"289 78 OFFCURVE",
"293 80 OFFCURVE",
"296 83 CURVE SMOOTH",
"301 87 OFFCURVE",
"310 97 OFFCURVE",
"319 108 CURVE SMOOTH",
"327 119 OFFCURVE",
"336 130 OFFCURVE",
"340 135 CURVE SMOOTH",
"359 159 OFFCURVE",
"374 188 OFFCURVE",
"397 207 CURVE SMOOTH",
"412 219 OFFCURVE",
"465 236 OFFCURVE",
"477 239 CURVE",
"473 217 OFFCURVE",
"466 197 OFFCURVE",
"461 173 CURVE SMOOTH",
"458 159 OFFCURVE",
"456 144 OFFCURVE",
"456 126 CURVE SMOOTH",
"456 112 OFFCURVE",
"457 96 OFFCURVE",
"461 79 CURVE SMOOTH",
"470 32 OFFCURVE",
"502 -13 OFFCURVE",
"567 -13 CURVE SMOOTH",
"582 -13 OFFCURVE",
"608 -3 OFFCURVE",
"612 12 CURVE SMOOTH",
"613 16 OFFCURVE",
"614 19 OFFCURVE",
"614 21 CURVE SMOOTH",
"614 22 OFFCURVE",
"613 23 OFFCURVE",
"613 24 CURVE",
"612 26 OFFCURVE",
"607 28 OFFCURVE",
"605 24 CURVE SMOOTH",
"599 12 OFFCURVE",
"581 -2 OFFCURVE",
"564 -2 CURVE SMOOTH",
"522 -1 OFFCURVE",
"515 57 OFFCURVE",
"513 86 CURVE SMOOTH",
"511 101 OFFCURVE",
"512 114 OFFCURVE",
"511 128 CURVE SMOOTH",
"511 132 OFFCURVE",
"510 136 OFFCURVE",
"509 140 CURVE",
"510 143 OFFCURVE",
"511 148 OFFCURVE",
"512 155 CURVE SMOOTH",
"515 174 OFFCURVE",
"521 238 OFFCURVE",
"538 242 CURVE SMOOTH",
"549 246 OFFCURVE",
"571 246 OFFCURVE",
"583 246 CURVE SMOOTH",
"605 246 OFFCURVE",
"675 246 OFFCURVE",
"675 216 CURVE SMOOTH",
"675 198 OFFCURVE",
"645 156 OFFCURVE",
"628 144 CURVE",
"628 138 LINE",
"630 138 LINE",
"630 135 LINE",
"650 147 OFFCURVE",
"698 170 OFFCURVE",
"698 198 CURVE SMOOTH",
"698 206 OFFCURVE",
"700 216 OFFCURVE",
"695 223 CURVE SMOOTH",
"671 263 OFFCURVE",
"626 277 OFFCURVE",
"584 277 CURVE SMOOTH",
"569 277 OFFCURVE",
"555 275 OFFCURVE",
"540 275 CURVE",
"543 288 LINE SMOOTH",
"547 306 OFFCURVE",
"553 318 OFFCURVE",
"561 329 CURVE SMOOTH",
"569 343 OFFCURVE",
"578 355 OFFCURVE",
"584 370 CURVE",
"583 369 LINE SMOOTH",
"577 363 OFFCURVE",
"612 402 OFFCURVE",
"614 406 CURVE SMOOTH",
"615 409 OFFCURVE",
"622 419 OFFCURVE",
"630 429 CURVE SMOOTH",
"641 444 LINE",
"647 453 LINE",
"651 461 LINE SMOOTH",
"655 468 OFFCURVE",
"660 470 OFFCURVE",
"667 475 CURVE",
"661 491 LINE SMOOTH",
"657 501 OFFCURVE",
"625 509 OFFCURVE",
"615 513 CURVE",
"601 501 OFFCURVE",
"560 460 OFFCURVE",
"560 442 CURVE SMOOTH",
"560 436 LINE SMOOTH",
"560 434 OFFCURVE",
"560 433 OFFCURVE",
"559 432 CURVE SMOOTH",
"534 396 OFFCURVE",
"491 321 OFFCURVE",
"482 259 CURVE",
"460 255 OFFCURVE",
"441 252 OFFCURVE",
"418 249 CURVE",
"427 263 OFFCURVE",
"448 295 OFFCURVE",
"451 299 CURVE SMOOTH",
"453 301 OFFCURVE",
"454 304 OFFCURVE",
"456 306 CURVE SMOOTH",
"474 326 OFFCURVE",
"488 350 OFFCURVE",
"503 372 CURVE SMOOTH",
"513 388 OFFCURVE",
"523 403 OFFCURVE",
"532 419 CURVE SMOOTH",
"536 427 OFFCURVE",
"539 437 OFFCURVE",
"545 443 CURVE SMOOTH",
"549 448 OFFCURVE",
"551 452 OFFCURVE",
"551 455 CURVE SMOOTH",
"551 459 OFFCURVE",
"549 462 OFFCURVE",
"544 466 CURVE",
"529 447 LINE SMOOTH",
"528 446 OFFCURVE",
"527 444 OFFCURVE",
"527 442 CURVE",
"526 440 LINE",
"524 429 OFFCURVE",
"497 394 OFFCURVE",
"490 386 CURVE SMOOTH",
"476 368 OFFCURVE",
"461 350 OFFCURVE",
"449 334 CURVE SMOOTH",
"436 316 OFFCURVE",
"424 296 OFFCURVE",
"408 280 CURVE SMOOTH",
"399 270 OFFCURVE",
"389 246 OFFCURVE",
"378 242 CURVE SMOOTH",
"354 233 OFFCURVE",
"329 230 OFFCURVE",
"304 222 CURVE SMOOTH",
"288 217 OFFCURVE",
"270 216 OFFCURVE",
"254 212 CURVE SMOOTH",
"108 174 LINE",
"112 182 OFFCURVE",
"128 200 OFFCURVE",
"134 207 CURVE",
"138 208 OFFCURVE",
"136 212 OFFCURVE",
"136 215 CURVE",
"122 216 OFFCURVE",
"111 204 OFFCURVE",
"102 193 CURVE SMOOTH",
"98 188 OFFCURVE",
"85 170 OFFCURVE",
"79 168 CURVE SMOOTH",
"47 159 LINE",
"40 158 LINE",
"22 158 OFFCURVE",
"14 160 OFFCURVE",
"11 163 CURVE SMOOTH",
"8 165 OFFCURVE",
"11 168 OFFCURVE",
"15 171 CURVE SMOOTH",
"25 180 OFFCURVE",
"47 190 OFFCURVE",
"61 196 CURVE",
"62 196 LINE",
"61 202 LINE",
"53 202 OFFCURVE",
"46 201 OFFCURVE",
"40 199 CURVE",
"25 198 OFFCURVE",
"-13 186 OFFCURVE",
"-12 166 CURVE SMOOTH",
"-9 138 OFFCURVE",
"33 130 OFFCURVE",
"55 130 CURVE",
"52 128 LINE",
"53 112 OFFCURVE",
"44 99 OFFCURVE",
"34 87 CURVE",
"34 80 OFFCURVE",
"29 73 OFFCURVE",
"29 66 CURVE SMOOTH",
"29 64 OFFCURVE",
"29 62 OFFCURVE",
"31 59 CURVE",
"28 56 OFFCURVE",
"26 51 OFFCURVE",
"25 47 CURVE",
"26 39 LINE SMOOTH",
"27 30 OFFCURVE",
"26 22 OFFCURVE",
"28 14 CURVE SMOOTH",
"34 -9 OFFCURVE",
"56 -30 OFFCURVE",
"80 -34 CURVE SMOOTH",
"89 -36 OFFCURVE",
"97 -36 OFFCURVE",
"105 -36 CURVE SMOOTH"
);
},
{
closed = 1;
nodes = (
"66 -18 OFFCURVE",
"59 1 OFFCURVE",
"59 26 CURVE SMOOTH",
"59 54 OFFCURVE",
"66 104 OFFCURVE",
"84 116 CURVE SMOOTH",
"92 121 OFFCURVE",
"104 127 OFFCURVE",
"116 133 CURVE SMOOTH",
"129 138 OFFCURVE",
"141 144 OFFCURVE",
"149 149 CURVE SMOOTH",
"175 164 OFFCURVE",
"357 212 OFFCURVE",
"362 212 CURVE SMOOTH",
"364 212 LINE",
"361 216 LINE",
"359 211 OFFCURVE",
"354 205 OFFCURVE",
"347 200 CURVE SMOOTH",
"338 193 LINE SMOOTH",
"335 190 OFFCURVE",
"332 188 OFFCURVE",
"330 185 CURVE SMOOTH",
"324 178 OFFCURVE",
"319 170 OFFCURVE",
"314 163 CURVE SMOOTH",
"300 146 OFFCURVE",
"284 132 OFFCURVE",
"269 116 CURVE SMOOTH",
"234 78 OFFCURVE",
"198 40 OFFCURVE",
"154 10 CURVE SMOOTH",
"144 3 OFFCURVE",
"105 -18 OFFCURVE",
"94 -18 CURVE SMOOTH"
);
}
);
width = 678;
}
);
note = A;
unicode = 0041;
},
{
color = 0;
glyphname = AE;
lastChange = "2021-11-09 21:05:11 +0000";
layers = (
{
layerId = "F9847816-3BA7-404E-BAEF-52D5126F5321";
paths = (
{
closed = 1;
nodes = (
"111 -30 OFFCURVE",
"185 -6 OFFCURVE",
"193 23 CURVE",
"206 23 OFFCURVE",
"223 43 OFFCURVE",
"233 51 CURVE SMOOTH",
"250 65 LINE",
"271 93 LINE SMOOTH",
"273 95 OFFCURVE",
"278 98 OFFCURVE",
"281 101 CURVE SMOOTH",
"291 109 OFFCURVE",
"317 142 OFFCURVE",
"325 153 CURVE SMOOTH",
"343 175 OFFCURVE",
"356 202 OFFCURVE",
"378 220 CURVE SMOOTH",
"393 233 OFFCURVE",
"445 234 OFFCURVE",
"467 242 CURVE",
"469 242 LINE",
"459 195 OFFCURVE",
"447 148 OFFCURVE",
"447 99 CURVE SMOOTH",
"447 63 OFFCURVE",
"455 16 OFFCURVE",
"487 -3 CURVE",
"493 -8 OFFCURVE",
"501 -12 OFFCURVE",
"511 -14 CURVE SMOOTH",
"528 -18 OFFCURVE",
"545 -20 OFFCURVE",
"561 -20 CURVE SMOOTH",
"594 -20 OFFCURVE",
"626 -12 OFFCURVE",
"658 -3 CURVE",
"658 -2 OFFCURVE",
"659 -2 OFFCURVE",
"660 -2 CURVE SMOOTH",
"671 -2 OFFCURVE",
"675 5 OFFCURVE",
"684 10 CURVE SMOOTH",
"696 16 OFFCURVE",
"724 18 OFFCURVE",
"724 36 CURVE",
"735 36 OFFCURVE",
"744 44 OFFCURVE",
"752 50 CURVE SMOOTH",
"783 74 OFFCURVE",
"816 120 OFFCURVE",
"816 160 CURVE SMOOTH",
"816 179 OFFCURVE",
"804 209 OFFCURVE",
"783 213 CURVE",
"783 212 LINE SMOOTH",
"783 209 OFFCURVE",
"787 205 OFFCURVE",
"789 204 CURVE",
"799 195 OFFCURVE",
"803 186 OFFCURVE",
"803 173 CURVE SMOOTH",
"803 153 OFFCURVE",
"791 130 OFFCURVE",
"779 113 CURVE SMOOTH",
"755 78 OFFCURVE",
"721 59 OFFCURVE",
"684 40 CURVE SMOOTH",
"668 32 OFFCURVE",
"610 4 OFFCURVE",
"580 0 CURVE SMOOTH",
"566 -3 OFFCURVE",
"553 -4 OFFCURVE",
"541 -4 CURVE SMOOTH",
"500 -4 OFFCURVE",
"474 16 OFFCURVE",
"474 86 CURVE SMOOTH",
"474 162 OFFCURVE",
"479 158 OFFCURVE",
"493 216 CURVE",
"532 243 OFFCURVE",
"594 253 OFFCURVE",
"649 259 CURVE SMOOTH",
"666 261 OFFCURVE",
"707 261 OFFCURVE",
"724 261 CURVE SMOOTH",
"740 261 OFFCURVE",
"755 280 OFFCURVE",
"755 290 CURVE SMOOTH",
"755 294 OFFCURVE",
"753 296 OFFCURVE",
"749 296 CURVE SMOOTH",
"633 295 LINE SMOOTH",
"620 295 OFFCURVE",
"581 293 OFFCURVE",
"581 313 CURVE SMOOTH",
"581 356 OFFCURVE",
"710 433 OFFCURVE",
"747 442 CURVE SMOOTH",
"759 445 OFFCURVE",
"819 457 OFFCURVE",
"828 457 CURVE SMOOTH",
"834 457 OFFCURVE",
"850 456 OFFCURVE",
"850 447 CURVE SMOOTH",
"850 431 OFFCURVE",
"817 393 OFFCURVE",
"817 361 CURVE SMOOTH",
"817 344 OFFCURVE",
"826 334 OFFCURVE",
"842 330 CURVE",
"847 335 LINE",
"841 338 OFFCURVE",
"837 344 OFFCURVE",
"837 351 CURVE SMOOTH",
"837 365 OFFCURVE",
"869 441 OFFCURVE",
"883 441 CURVE SMOOTH",
"892 441 OFFCURVE",
"896 419 OFFCURVE",
"896 413 CURVE SMOOTH",
"896 404 OFFCURVE",
"891 394 OFFCURVE",
"891 386 CURVE SMOOTH",
"891 383 LINE",
"902 385 OFFCURVE",
"907 409 OFFCURVE",
"907 417 CURVE SMOOTH",
"907 433 OFFCURVE",
"901 448 OFFCURVE",
"895 461 CURVE",
"901 462 OFFCURVE",
"926 518 OFFCURVE",
"957 517 CURVE",
"957 536 OFFCURVE",
"940 541 OFFCURVE",
"924 541 CURVE",
"904 523 OFFCURVE",
"888 501 OFFCURVE",
"873 479 CURVE",
"842 482 LINE SMOOTH",
"836 483 OFFCURVE",
"828 480 OFFCURVE",
"822 479 CURVE SMOOTH",
"809 477 OFFCURVE",
"797 476 OFFCURVE",
"784 473 CURVE SMOOTH",
"779 472 OFFCURVE",
"774 470 OFFCURVE",
"769 470 CURVE SMOOTH",
"753 468 OFFCURVE",
"742 462 OFFCURVE",
"728 456 CURVE SMOOTH",
"680 439 OFFCURVE",
"560 391 OFFCURVE",
"560 331 CURVE SMOOTH",
"560 296 OFFCURVE",
"583 284 OFFCURVE",
"619 280 CURVE",
"608 279 OFFCURVE",
"513 259 OFFCURVE",
"505 258 CURVE",
"516 296 OFFCURVE",
"543 349 OFFCURVE",
"559 384 CURVE",
"561 384 OFFCURVE",
"571 404 OFFCURVE",
"573 409 CURVE SMOOTH",
"576 414 OFFCURVE",
"577 422 OFFCURVE",
"580 427 CURVE SMOOTH",
"588 441 OFFCURVE",
"608 475 OFFCURVE",
"621 485 CURVE",
"622 491 LINE",
"620 500 OFFCURVE",
"603 501 OFFCURVE",
"595 504 CURVE",
"582 493 OFFCURVE",
"551 459 OFFCURVE",
"548 442 CURVE SMOOTH",
"547 438 OFFCURVE",
"547 434 OFFCURVE",
"547 430 CURVE",
"531 397 LINE SMOOTH",
"515 363 OFFCURVE",
"481 292 OFFCURVE",
"474 257 CURVE",
"437 252 LINE",
"397 246 LINE",
"399 250 OFFCURVE",
"430 296 OFFCURVE",
"434 301 CURVE SMOOTH",
"437 305 OFFCURVE",
"442 309 OFFCURVE",
"445 313 CURVE SMOOTH",
"460 332 OFFCURVE",
"474 354 OFFCURVE",
"487 374 CURVE SMOOTH",
"497 389 OFFCURVE",
"507 405 OFFCURVE",
"517 421 CURVE SMOOTH",
"521 427 OFFCURVE",
"524 435 OFFCURVE",
"528 442 CURVE SMOOTH",
"531 446 OFFCURVE",
"537 450 OFFCURVE",
"537 456 CURVE SMOOTH",
"537 459 OFFCURVE",
"535 461 OFFCURVE",
"534 462 CURVE",
"520 445 LINE SMOOTH",
"518 443 OFFCURVE",
"518 440 OFFCURVE",
"517 438 CURVE SMOOTH",
"499 403 OFFCURVE",
"462 365 OFFCURVE",
"438 333 CURVE SMOOTH",
"424 313 OFFCURVE",
"413 295 OFFCURVE",
"396 278 CURVE SMOOTH",
"388 270 OFFCURVE",
"376 244 OFFCURVE",
"365 240 CURVE SMOOTH",
"342 231 OFFCURVE",
"319 228 OFFCURVE",
"296 220 CURVE SMOOTH",
"287 217 OFFCURVE",
"277 215 OFFCURVE",
"267 214 CURVE",
"266 212 LINE",
"265 214 OFFCURVE",
"252 210 OFFCURVE",
"249 209 CURVE SMOOTH",
"108 170 LINE",
"109 171 LINE",
"109 178 OFFCURVE",
"132 203 OFFCURVE",
"137 210 CURVE",
"139 210 OFFCURVE",
"139 210 OFFCURVE",
"139 211 CURVE SMOOTH",
"139 212 LINE",
"119 214 OFFCURVE",
"98 169 OFFCURVE",
"86 165 CURVE SMOOTH",
"76 162 OFFCURVE",
"66 160 OFFCURVE",
"56 157 CURVE",
"55 156 OFFCURVE",
"49 155 OFFCURVE",
"48 155 CURVE SMOOTH",
"19 155 LINE",
"19 171 OFFCURVE",
"55 192 OFFCURVE",
"68 197 CURVE",
"68 199 LINE",
"69 199 LINE",
"69 200 LINE",
"63 200 OFFCURVE",
"57 199 OFFCURVE",
"52 196 CURVE",
"38 196 OFFCURVE",
"4 183 OFFCURVE",
"4 167 CURVE SMOOTH",
"4 141 OFFCURVE",
"40 133 OFFCURVE",
"60 133 CURVE SMOOTH",
"66 133 LINE",
"59 127 LINE",
"59 111 OFFCURVE",
"49 98 OFFCURVE",
"40 86 CURVE",
"40 79 OFFCURVE",
"34 73 OFFCURVE",
"34 65 CURVE SMOOTH",
"34 63 OFFCURVE",
"34 61 OFFCURVE",
"36 59 CURVE",
"36 58 LINE",
"32 57 OFFCURVE",
"30 50 OFFCURVE",
"29 46 CURVE",
"29 39 LINE SMOOTH",
"29 31 OFFCURVE",
"28 22 OFFCURVE",
"29 14 CURVE SMOOTH",
"33 -7 OFFCURVE",
"63 -30 OFFCURVE",
"85 -30 CURVE SMOOTH"
);
},
{
closed = 1;
nodes = (
"61 -20 OFFCURVE",
"53 -5 OFFCURVE",
"53 16 CURVE SMOOTH",
"53 42 OFFCURVE",
"71 120 OFFCURVE",
"92 135 CURVE SMOOTH",
"107 146 OFFCURVE",
"128 147 OFFCURVE",
"146 152 CURVE SMOOTH",
"168 159 OFFCURVE",
"343 215 OFFCURVE",
"348 215 CURVE SMOOTH",
"349 215 LINE",
"343 204 OFFCURVE",
"326 193 OFFCURVE",
"318 183 CURVE SMOOTH",
"312 177 OFFCURVE",
"307 168 OFFCURVE",
"301 161 CURVE SMOOTH",
"288 145 OFFCURVE",
"271 130 OFFCURVE",
"257 114 CURVE SMOOTH",
"221 77 OFFCURVE",
"185 38 OFFCURVE",
"143 8 CURVE SMOOTH",
"133 1 OFFCURVE",
"96 -20 OFFCURVE",
"84 -20 CURVE SMOOTH"
);
}
);
width = 832;
},
{
layerId = "A97A914C-B88D-4C15-9174-D82F9495701A";
paths = (
{
closed = 1;
nodes = (
"975 523 OFFCURVE",
"960 501 OFFCURVE",
"946 480 CURVE",
"932 489 OFFCURVE",
"909 492 OFFCURVE",
"884 492 CURVE SMOOTH",
"837 492 OFFCURVE",
"781 480 OFFCURVE",
"755 471 CURVE SMOOTH",
"705 455 OFFCURVE",
"591 400 OFFCURVE",
"597 338 CURVE SMOOTH",
"599 302 OFFCURVE",
"648 282 OFFCURVE",
"680 276 CURVE",
"653 279 OFFCURVE",
"621 277 OFFCURVE",
"591 277 CURVE SMOOTH",
"584 277 LINE SMOOTH",
"569 277 OFFCURVE",
"555 275 OFFCURVE",
"540 275 CURVE",
"543 288 LINE SMOOTH",
"547 306 OFFCURVE",
"553 318 OFFCURVE",
"561 329 CURVE SMOOTH",
"569 343 OFFCURVE",
"578 355 OFFCURVE",
"584 370 CURVE",
"583 369 LINE SMOOTH",
"577 363 OFFCURVE",
"612 402 OFFCURVE",
"614 406 CURVE SMOOTH",
"615 409 OFFCURVE",
"622 419 OFFCURVE",
"630 429 CURVE SMOOTH",
"641 444 LINE",
"647 453 LINE",
"651 461 LINE SMOOTH",
"655 468 OFFCURVE",
"660 470 OFFCURVE",
"667 475 CURVE",
"661 491 LINE SMOOTH",
"657 501 OFFCURVE",
"625 509 OFFCURVE",
"615 513 CURVE",
"601 501 OFFCURVE",
"560 460 OFFCURVE",
"560 442 CURVE SMOOTH",
"560 436 LINE SMOOTH",
"560 434 OFFCURVE",
"560 433 OFFCURVE",
"559 432 CURVE SMOOTH",
"534 396 OFFCURVE",
"491 321 OFFCURVE",
"482 259 CURVE",
"460 255 OFFCURVE",
"441 252 OFFCURVE",
"418 249 CURVE",
"427 263 OFFCURVE",
"448 295 OFFCURVE",
"451 299 CURVE SMOOTH",
"453 301 OFFCURVE",
"454 304 OFFCURVE",
"456 306 CURVE SMOOTH",
"474 326 OFFCURVE",
"488 350 OFFCURVE",
"503 372 CURVE SMOOTH",
"513 388 OFFCURVE",
"523 403 OFFCURVE",
"532 419 CURVE SMOOTH",
"536 427 OFFCURVE",
"539 437 OFFCURVE",
"545 443 CURVE SMOOTH",
"549 448 OFFCURVE",
"551 452 OFFCURVE",
"551 455 CURVE SMOOTH",
"551 459 OFFCURVE",
"549 462 OFFCURVE",
"544 466 CURVE",
"529 447 LINE SMOOTH",
"528 446 OFFCURVE",
"527 444 OFFCURVE",
"527 442 CURVE",
"526 440 LINE",
"524 429 OFFCURVE",
"497 394 OFFCURVE",
"490 386 CURVE SMOOTH",
"476 368 OFFCURVE",
"461 350 OFFCURVE",
"449 334 CURVE SMOOTH",
"436 316 OFFCURVE",
"424 296 OFFCURVE",
"408 280 CURVE SMOOTH",
"399 270 OFFCURVE",
"389 246 OFFCURVE",
"378 242 CURVE SMOOTH",
"354 233 OFFCURVE",
"329 230 OFFCURVE",
"304 222 CURVE SMOOTH",
"288 217 OFFCURVE",
"270 216 OFFCURVE",
"254 212 CURVE SMOOTH",
"108 174 LINE",
"112 182 OFFCURVE",
"128 200 OFFCURVE",
"134 207 CURVE",
"138 208 OFFCURVE",
"136 212 OFFCURVE",
"136 215 CURVE",
"122 216 OFFCURVE",
"111 204 OFFCURVE",
"102 193 CURVE SMOOTH",
"98 188 OFFCURVE",
"85 170 OFFCURVE",
"79 168 CURVE SMOOTH",
"47 159 LINE",
"40 158 LINE",
"22 158 OFFCURVE",
"14 160 OFFCURVE",
"11 163 CURVE SMOOTH",
"8 165 OFFCURVE",
"11 168 OFFCURVE",
"15 171 CURVE SMOOTH",
"25 180 OFFCURVE",
"47 190 OFFCURVE",
"61 196 CURVE",
"62 196 LINE",
"61 202 LINE",
"53 202 OFFCURVE",
"46 201 OFFCURVE",
"40 199 CURVE",
"25 198 OFFCURVE",
"-13 186 OFFCURVE",
"-12 166 CURVE SMOOTH",
"-9 138 OFFCURVE",
"33 130 OFFCURVE",
"55 130 CURVE",
"52 128 LINE",
"53 112 OFFCURVE",
"44 99 OFFCURVE",
"34 87 CURVE",
"34 80 OFFCURVE",
"29 73 OFFCURVE",
"29 66 CURVE SMOOTH",
"29 64 OFFCURVE",
"29 62 OFFCURVE",
"31 59 CURVE",
"28 56 OFFCURVE",
"26 51 OFFCURVE",
"25 47 CURVE",
"26 39 LINE SMOOTH",
"27 30 OFFCURVE",
"26 22 OFFCURVE",
"28 14 CURVE SMOOTH",
"34 -9 OFFCURVE",
"56 -30 OFFCURVE",
"80 -34 CURVE SMOOTH",
"89 -36 OFFCURVE",
"97 -36 OFFCURVE",
"105 -36 CURVE SMOOTH",
"145 -36 OFFCURVE",
"179 -19 OFFCURVE",
"212 6 CURVE SMOOTH",
"228 17 OFFCURVE",
"242 29 OFFCURVE",
"257 41 CURVE SMOOTH",
"266 48 LINE",
"272 57 OFFCURVE",
"278 66 OFFCURVE",
"286 75 CURVE SMOOTH",
"289 78 OFFCURVE",
"293 80 OFFCURVE",
"296 83 CURVE SMOOTH",
"301 87 OFFCURVE",
"310 97 OFFCURVE",
"319 108 CURVE SMOOTH",
"327 119 OFFCURVE",
"336 130 OFFCURVE",
"340 135 CURVE SMOOTH",
"359 159 OFFCURVE",
"374 188 OFFCURVE",
"397 207 CURVE SMOOTH",
"412 219 OFFCURVE",
"465 236 OFFCURVE",
"477 239 CURVE",
"473 217 OFFCURVE",
"466 197 OFFCURVE",
"461 173 CURVE SMOOTH",
"458 159 OFFCURVE",
"456 144 OFFCURVE",
"456 126 CURVE SMOOTH",
"456 115 OFFCURVE",
"453 110 OFFCURVE",
"453 96 CURVE SMOOTH",
"453 86 OFFCURVE",
"456 68 OFFCURVE",
"459 58 CURVE SMOOTH",
"481 -11 OFFCURVE",
"579 -32 OFFCURVE",
"666 -32 CURVE SMOOTH",
"702 -32 OFFCURVE",
"737 -24 OFFCURVE",
"772 -15 CURVE",
"772 -14 LINE",
"773 -14 LINE SMOOTH",
"785 -14 OFFCURVE",
"789 -6 OFFCURVE",
"799 -2 CURVE",
"811 5 OFFCURVE",
"840 7 OFFCURVE",
"842 25 CURVE",
"850 25 OFFCURVE",
"858 30 OFFCURVE",
"864 34 CURVE SMOOTH",
"897 58 OFFCURVE",
"936 105 OFFCURVE",
"932 151 CURVE SMOOTH",
"930 172 OFFCURVE",
"895 208 OFFCURVE",
"868 213 CURVE",
"868 209 LINE SMOOTH",
"868 204 OFFCURVE",
"873 202 OFFCURVE",
"876 199 CURVE",
"888 191 OFFCURVE",
"894 182 OFFCURVE",
"894 168 CURVE SMOOTH",
"894 149 OFFCURVE",
"884 127 OFFCURVE",
"873 112 CURVE SMOOTH",
"850 78 OFFCURVE",
"814 59 OFFCURVE",
"776 40 CURVE SMOOTH",
"765 35 OFFCURVE",
"753 30 OFFCURVE",
"743 24 CURVE",
"742 24 LINE SMOOTH",
"740 24 OFFCURVE",
"729 20 OFFCURVE",
"717 17 CURVE SMOOTH",
"705 13 OFFCURVE",
"694 9 OFFCURVE",
"689 8 CURVE SMOOTH",
"670 5 OFFCURVE",
"651 1 OFFCURVE",
"631 1 CURVE SMOOTH",
"585 1 OFFCURVE",
"553 3 OFFCURVE",
"527 31 CURVE SMOOTH",
"507 52 OFFCURVE",
"510 92 OFFCURVE",
"509 102 CURVE SMOOTH",
"508 117 OFFCURVE",
"509 136 OFFCURVE",
"512 155 CURVE SMOOTH",
"514 169 OFFCURVE",
"518 208 OFFCURVE",
"527 229 CURVE",
"538 237 OFFCURVE",
"555 243 OFFCURVE",
"577 246 CURVE",
"583 246 LINE SMOOTH",
"586 246 OFFCURVE",
"590 247 OFFCURVE",
"593 248 CURVE",
"643 253 OFFCURVE",
"704 250 OFFCURVE",
"733 250 CURVE SMOOTH",
"772 250 OFFCURVE",
"818 251 OFFCURVE",
"827 251 CURVE SMOOTH",
"836 251 OFFCURVE",
"845 250 OFFCURVE",
"861 242 CURVE",
"861 247 LINE",
"862 249 LINE",
"858 273 OFFCURVE",
"833 303 OFFCURVE",
"804 303 CURVE SMOOTH",
"799 303 OFFCURVE",
"793 301 OFFCURVE",
"788 300 CURVE SMOOTH",
"783 299 OFFCURVE",
"777 300 OFFCURVE",
"772 299 CURVE SMOOTH",
"757 297 LINE SMOOTH",
"748 296 OFFCURVE",
"739 295 OFFCURVE",
"731 295 CURVE SMOOTH",
"699 295 LINE SMOOTH",
"688 295 OFFCURVE",
"645 293 OFFCURVE",
"644 311 CURVE SMOOTH",
"639 372 OFFCURVE",
"824 452 OFFCURVE",
"899 452 CURVE SMOOTH",
"905 452 OFFCURVE",
"921 452 OFFCURVE",
"921 444 CURVE SMOOTH",
"922 429 OFFCURVE",
"892 393 OFFCURVE",
"892 361 CURVE SMOOTH",
"892 342 OFFCURVE",
"914 323 OFFCURVE",
"934 319 CURVE",
"942 327 LINE",
"933 332 OFFCURVE",
"929 337 OFFCURVE",
"928 342 CURVE SMOOTH",
"927 357 OFFCURVE",
"957 430 OFFCURVE",
"969 430 CURVE SMOOTH",
"978 430 OFFCURVE",
"982 410 OFFCURVE",
"983 405 CURVE SMOOTH",
"983 400 OFFCURVE",
"982 396 OFFCURVE",
"981 391 CURVE SMOOTH",
"980 383 OFFCURVE",
"980 380 OFFCURVE",
"981 372 CURVE",
"994 374 OFFCURVE",
"999 395 OFFCURVE",
"999 406 CURVE SMOOTH",
"999 422 OFFCURVE",
"992 438 OFFCURVE",
"983 452 CURVE",
"990 460 LINE SMOOTH",
"1006 478 OFFCURVE",
"1020 506 OFFCURVE",
"1046 505 CURVE",
"1044 530 OFFCURVE",
"1014 540 OFFCURVE",
"996 540 CURVE"
);
},
{
closed = 1;
nodes = (
"335 190 OFFCURVE",
"332 188 OFFCURVE",
"330 185 CURVE SMOOTH",
"324 178 OFFCURVE",
"319 170 OFFCURVE",
"314 163 CURVE SMOOTH",
"300 146 OFFCURVE",
"284 132 OFFCURVE",
"269 116 CURVE SMOOTH",
"234 78 OFFCURVE",
"198 40 OFFCURVE",
"154 10 CURVE SMOOTH",
"144 3 OFFCURVE",
"105 -18 OFFCURVE",
"94 -18 CURVE SMOOTH",
"66 -18 OFFCURVE",
"59 1 OFFCURVE",
"59 26 CURVE SMOOTH",
"59 54 OFFCURVE",
"66 104 OFFCURVE",
"84 116 CURVE SMOOTH",
"92 121 OFFCURVE",
"104 127 OFFCURVE",
"116 133 CURVE SMOOTH",
"129 138 OFFCURVE",
"141 144 OFFCURVE",
"149 149 CURVE SMOOTH",
"173 163 OFFCURVE",
"332 205 OFFCURVE",
"358 211 CURVE",
"356 208 OFFCURVE",
"352 204 OFFCURVE",
"347 200 CURVE SMOOTH",
"338 193 LINE SMOOTH"
);
}
);
width = 964;
}
);
note = AE;
unicode = 00C6;
},
{
color = 8;
glyphname = B;
lastChange = "2021-10-27 16:11:48 +0000";
layers = (
{
layerId = "F9847816-3BA7-404E-BAEF-52D5126F5321";
paths = (
{
closed = 1;
nodes = (
"240 -15 OFFCURVE",
"468 60 OFFCURVE",
"526 153 CURVE",
"530 161 OFFCURVE",
"533 171 OFFCURVE",
"533 180 CURVE SMOOTH",
"533 187 OFFCURVE",
"531 194 OFFCURVE",
"528 200 CURVE SMOOTH",
"505 244 OFFCURVE",
"443 253 OFFCURVE",
"399 253 CURVE SMOOTH",
"390 253 OFFCURVE",
"381 252 OFFCURVE",
"372 252 CURVE",
"372 253 LINE",
"371 253 LINE",
"371 255 LINE",
"431 273 OFFCURVE",
"586 325 OFFCURVE",
"586 400 CURVE SMOOTH",
"586 414 OFFCURVE",
"579 427 OFFCURVE",
"572 439 CURVE SMOOTH",
"532 504 OFFCURVE",
"428 511 OFFCURVE",
"360 511 CURVE SMOOTH",
"349 511 OFFCURVE",
"337 509 OFFCURVE",
"325 508 CURVE SMOOTH",
"290 505 OFFCURVE",
"253 506 OFFCURVE",
"218 500 CURVE",
"212 498 OFFCURVE",
"205 497 OFFCURVE",
"199 495 CURVE",
"187 493 OFFCURVE",
"178 494 OFFCURVE",
"167 489 CURVE",
"152 489 OFFCURVE",
"137 482 OFFCURVE",
"123 477 CURVE SMOOTH",
"97 468 OFFCURVE",
"51 456 OFFCURVE",
"51 421 CURVE SMOOTH",
"51 399 OFFCURVE",
"69 397 OFFCURVE",
"87 394 CURVE",
"87 395 LINE",
"89 395 OFFCURVE",
"90 398 OFFCURVE",
"90 399 CURVE",
"83 399 OFFCURVE",
"79 406 OFFCURVE",
"79 413 CURVE SMOOTH",
"79 436 OFFCURVE",
"143 452 OFFCURVE",
"161 457 CURVE SMOOTH",
"237 478 OFFCURVE",
"314 489 OFFCURVE",
"393 489 CURVE SMOOTH",
"433 489 OFFCURVE",
"559 483 OFFCURVE",
"559 425 CURVE SMOOTH",
"559 413 OFFCURVE",
"555 401 OFFCURVE",
"549 391 CURVE SMOOTH",
"509 325 OFFCURVE",
"430 288 OFFCURVE",
"360 263 CURVE SMOOTH",
"338 255 OFFCURVE",
"314 252 OFFCURVE",
"292 244 CURVE SMOOTH",
"282 240 OFFCURVE",
"274 235 OFFCURVE",
"274 224 CURVE SMOOTH",
"274 218 OFFCURVE",
"277 209 OFFCURVE",
"284 209 CURVE SMOOTH",
"305 209 OFFCURVE",
"320 224 OFFCURVE",
"339 228 CURVE SMOOTH",
"359 233 OFFCURVE",
"382 233 OFFCURVE",
"403 233 CURVE SMOOTH",
"425 233 OFFCURVE",
"511 232 OFFCURVE",
"511 198 CURVE SMOOTH",
"511 148 OFFCURVE",
"357 67 OFFCURVE",
"314 49 CURVE SMOOTH",
"260 27 OFFCURVE",
"184 1 OFFCURVE",
"125 1 CURVE SMOOTH",
"84 1 OFFCURVE",
"29 5 OFFCURVE",
"29 59 CURVE SMOOTH",
"29 90 OFFCURVE",
"48 130 OFFCURVE",
"66 155 CURVE SMOOTH",
"79 173 OFFCURVE",
"99 185 OFFCURVE",
"112 204 CURVE",
"111 204 LINE",
"111 205 LINE",
"108 205 LINE",
"108 203 OFFCURVE",
"9 155 OFFCURVE",
"9 83 CURVE SMOOTH",
"9 73 OFFCURVE",
"11 63 OFFCURVE",
"15 53 CURVE SMOOTH",
"38 -2 OFFCURVE",
"80 -15 OFFCURVE",
"136 -15 CURVE SMOOTH"
);
},
{
closed = 1;
nodes = (
"165 52 OFFCURVE",
"168 53 OFFCURVE",
"171 54 CURVE",
"171 59 LINE",
"151 59 OFFCURVE",
"148 73 OFFCURVE",
"148 90 CURVE SMOOTH",
"148 177 OFFCURVE",
"281 315 OFFCURVE",
"339 374 CURVE SMOOTH",
"352 388 OFFCURVE",
"396 420 OFFCURVE",
"401 436 CURVE SMOOTH",
"402 438 OFFCURVE",
"403 441 OFFCURVE",
"403 443 CURVE SMOOTH",
"403 459 OFFCURVE",
"383 463 OFFCURVE",
"371 464 CURVE",
"356 452 OFFCURVE",
"329 431 OFFCURVE",
"330 410 CURVE",
"323 409 OFFCURVE",
"261 330 OFFCURVE",
"246 318 CURVE",
"245 304 OFFCURVE",
"221 293 OFFCURVE",
"219 275 CURVE",
"213 275 OFFCURVE",
"208 267 OFFCURVE",
"204 263 CURVE",
"204 259 LINE",
"172 218 OFFCURVE",
"128 153 OFFCURVE",
"128 100 CURVE SMOOTH",
"128 81 OFFCURVE",
"140 52 OFFCURVE",
"162 52 CURVE SMOOTH"
);
}
);
width = 516;
},
{
layerId = "A97A914C-B88D-4C15-9174-D82F9495701A";
paths = (
{
closed = 1;
nodes = (
"370 -15 OFFCURVE",
"514 57 OFFCURVE",
"569 151 CURVE SMOOTH",
"573 158 OFFCURVE",
"575 166 OFFCURVE",
"575 174 CURVE SMOOTH",
"575 183 OFFCURVE",
"573 192 OFFCURVE",
"568 200 CURVE SMOOTH",
"538 245 OFFCURVE",
"463 256 OFFCURVE",
"414 255 CURVE SMOOTH",
"409 255 LINE",
"427 260 OFFCURVE",
"448 265 OFFCURVE",
"469 271 CURVE SMOOTH",
"523 287 OFFCURVE",
"614 318 OFFCURVE",
"614 380 CURVE SMOOTH",
"614 398 OFFCURVE",
"607 418 OFFCURVE",
"590 441 CURVE SMOOTH",
"541 507 OFFCURVE",
"425 513 OFFCURVE",
"351 513 CURVE SMOOTH",
"302 513 OFFCURVE",
"243 510 OFFCURVE",
"196 502 CURVE SMOOTH",
"162 497 OFFCURVE",
"127 490 OFFCURVE",
"94 479 CURVE SMOOTH",
"69 471 OFFCURVE",
"18 460 OFFCURVE",
"18 424 CURVE SMOOTH",
"18 397 OFFCURVE",
"49 384 OFFCURVE",
"73 381 CURVE",
"73 383 LINE",
"74 384 OFFCURVE",
"75 386 OFFCURVE",
"75 387 CURVE SMOOTH",
"76 392 LINE",
"67 392 OFFCURVE",
"62 398 OFFCURVE",
"62 404 CURVE SMOOTH",
"62 426 OFFCURVE",
"128 447 OFFCURVE",
"146 452 CURVE SMOOTH",
"227 472 OFFCURVE",
"303 486 OFFCURVE",
"389 486 CURVE SMOOTH",
"435 486 OFFCURVE",
"573 480 OFFCURVE",
"573 420 CURVE SMOOTH",
"573 410 OFFCURVE",
"570 401 OFFCURVE",
"565 392 CURVE SMOOTH",
"527 327 OFFCURVE",
"446 290 OFFCURVE",
"371 265 CURVE SMOOTH",
"347 257 OFFCURVE",
"322 254 OFFCURVE",
"298 246 CURVE SMOOTH",
"288 242 OFFCURVE",
"278 237 OFFCURVE",
"278 225 CURVE SMOOTH",
"278 223 LINE SMOOTH",
"279 217 OFFCURVE",
"283 207 OFFCURVE",
"293 207 CURVE SMOOTH",
"316 207 OFFCURVE",
"331 221 OFFCURVE",
"352 226 CURVE SMOOTH",
"374 230 OFFCURVE",
"401 230 OFFCURVE",
"425 230 CURVE SMOOTH",
"455 230 OFFCURVE",
"539 229 OFFCURVE",
"539 195 CURVE SMOOTH",
"539 149 OFFCURVE",
"384 69 OFFCURVE",
"338 51 CURVE SMOOTH",
"281 29 OFFCURVE",
"200 4 OFFCURVE",
"137 4 CURVE SMOOTH",
"90 4 OFFCURVE",
"29 8 OFFCURVE",
"29 64 CURVE SMOOTH",
"29 94 OFFCURVE",
"53 136 OFFCURVE",
"73 157 CURVE SMOOTH",
"93 179 OFFCURVE",
"104 191 OFFCURVE",
"114 201 CURVE",
"117 206 LINE",
"117 207 OFFCURVE",
"118 211 OFFCURVE",
"113 211 CURVE SMOOTH",
"111 211 OFFCURVE",
"108 209 OFFCURVE",
"106 207 CURVE",
"96 202 OFFCURVE",
"-4 158 OFFCURVE",
"-4 89 CURVE SMOOTH",
"-4 76 OFFCURVE",
"-1 64 OFFCURVE",
"6 52 CURVE SMOOTH",
"36 -5 OFFCURVE",
"86 -22 OFFCURVE",
"147 -20 CURVE SMOOTH"
);
},
{
closed = 1;
nodes = (
"177 49 OFFCURVE",
"180 50 OFFCURVE",
"185 52 CURVE",
"184 62 LINE",
"159 62 OFFCURVE",
"156 77 OFFCURVE",
"156 97 CURVE SMOOTH",
"156 183 OFFCURVE",
"284 314 OFFCURVE",
"341 372 CURVE SMOOTH",
"356 387 OFFCURVE",
"399 418 OFFCURVE",
"404 435 CURVE SMOOTH",
"405 437 OFFCURVE",
"406 440 OFFCURVE",
"405 443 CURVE",
"404 460 OFFCURVE",
"367 470 OFFCURVE",
"352 471 CURVE",
"336 458 OFFCURVE",
"309 437 OFFCURVE",
"310 416 CURVE",
"304 411 OFFCURVE",
"288 393 OFFCURVE",
"272 374 CURVE SMOOTH",
"263 363 OFFCURVE",
"253 352 OFFCURVE",
"245 343 CURVE SMOOTH",
"237 334 OFFCURVE",
"230 327 OFFCURVE",
"226 323 CURVE",
"226 320 OFFCURVE",
"225 317 OFFCURVE",
"223 314 CURVE SMOOTH",
"215 304 OFFCURVE",
"202 295 OFFCURVE",
"201 282 CURVE",
"194 280 OFFCURVE",
"190 273 OFFCURVE",
"185 268 CURVE",
"185 264 LINE",
"154 223 OFFCURVE",
"120 157 OFFCURVE",
"124 104 CURVE SMOOTH",
"126 84 OFFCURVE",
"146 49 OFFCURVE",
"173 49 CURVE SMOOTH"
);
}
);
width = 564;
}
);
note = B;
unicode = 0042;
},
{
color = 9;
glyphname = C;
lastChange = "2021-10-28 23:18:39 +0000";
layers = (
{
anchors = (
{
name = bottom;
position = "{141, 0}";
},
{
name = top;
position = "{425, 500}";
}
);
layerId = "F9847816-3BA7-404E-BAEF-52D5126F5321";
paths = (
{
closed = 1;
nodes = (
"185 -14 OFFCURVE",
"229 2 OFFCURVE",
"264 25 CURVE SMOOTH",
"263 24 OFFCURVE",
"264 24 OFFCURVE",
"264 24 CURVE",
"265 24 OFFCURVE",
"266 25 OFFCURVE",
"266 25 CURVE",
"276 30 OFFCURVE",
"286 34 OFFCURVE",
"296 39 CURVE SMOOTH",
"356 74 OFFCURVE",
"414 118 OFFCURVE",
"464 167 CURVE SMOOTH",
"475 178 OFFCURVE",
"491 188 OFFCURVE",
"495 203 CURVE",
"494 203 LINE",
"494 204 LINE",
"485 203 OFFCURVE",
"430 148 OFFCURVE",
"415 140 CURVE SMOOTH",
"388 125 LINE SMOOTH",
"346 102 OFFCURVE",
"303 61 OFFCURVE",
"257 49 CURVE",
"256 47 LINE",
"253 48 OFFCURVE",
"248 45 OFFCURVE",
"245 44 CURVE SMOOTH",
"215 30 OFFCURVE",
"184 13 OFFCURVE",
"151 10 CURVE",
"149 8 OFFCURVE",
"128 5 OFFCURVE",
"124 5 CURVE SMOOTH",
"110 5 OFFCURVE",
"95 4 OFFCURVE",
"82 10 CURVE SMOOTH",
"48 23 OFFCURVE",
"38 63 OFFCURVE",
"38 96 CURVE SMOOTH",
"38 120 OFFCURVE",
"50 179 OFFCURVE",
"69 195 CURVE",
"69 218 OFFCURVE",
"92 245 OFFCURVE",
"106 262 CURVE SMOOTH",
"119 280 OFFCURVE",
"132 298 OFFCURVE",
"146 315 CURVE SMOOTH",
"161 333 OFFCURVE",
"179 346 OFFCURVE",
"196 360 CURVE SMOOTH",
"254 406 OFFCURVE",
"313 454 OFFCURVE",
"388 467 CURVE SMOOTH",
"392 468 OFFCURVE",
"395 468 OFFCURVE",
"399 468 CURVE SMOOTH",
"417 468 OFFCURVE",
"428 457 OFFCURVE",
"428 439 CURVE SMOOTH",
"428 424 OFFCURVE",
"422 408 OFFCURVE",
"412 398 CURVE",
"412 394 LINE",
"417 394 OFFCURVE",
"421 398 OFFCURVE",
"425 402 CURVE",
"426 402 LINE",
"426 399 LINE",
"422 397 OFFCURVE",
"402 356 OFFCURVE",
"400 349 CURVE SMOOTH",
"398 343 OFFCURVE",
"397 335 OFFCURVE",
"397 328 CURVE SMOOTH",
"397 308 OFFCURVE",
"416 294 OFFCURVE",
"434 287 CURVE",
"434 288 LINE",
"436 288 LINE",
"428 299 OFFCURVE",
"424 305 OFFCURVE",
"424 318 CURVE SMOOTH",
"424 357 OFFCURVE",
"472 425 OFFCURVE",
"500 450 CURVE SMOOTH",
"508 458 OFFCURVE",
"542 486 OFFCURVE",
"544 494 CURVE",
"545 495 OFFCURVE",
"545 497 OFFCURVE",
"545 498 CURVE SMOOTH",
"545 513 OFFCURVE",
"526 528 OFFCURVE",
"513 533 CURVE",
"515 529 OFFCURVE",
"518 524 OFFCURVE",
"518 519 CURVE SMOOTH",
"518 499 OFFCURVE",
"465 450 OFFCURVE",
"452 431 CURVE",
"449 432 LINE",
"452 432 OFFCURVE",
"454 447 OFFCURVE",
"454 449 CURVE SMOOTH",
"454 472 OFFCURVE",
"433 485 OFFCURVE",
"412 485 CURVE SMOOTH",
"404 485 OFFCURVE",
"399 483 OFFCURVE",
"392 481 CURVE SMOOTH",
"386 480 OFFCURVE",
"381 480 OFFCURVE",
"376 479 CURVE SMOOTH",
"347 475 OFFCURVE",
"324 464 OFFCURVE",
"298 451 CURVE SMOOTH",
"187 399 OFFCURVE",
"31 279 OFFCURVE",
"9 151 CURVE SMOOTH",
"7 140 OFFCURVE",
"6 128 OFFCURVE",
"6 117 CURVE SMOOTH",
"6 71 OFFCURVE",
"23 41 OFFCURVE",
"60 16 CURVE SMOOTH",
"90 -5 OFFCURVE",
"106 -14 OFFCURVE",
"143 -14 CURVE SMOOTH"
);
}
);
width = 425;
},
{
anchors = (
{
name = bottom;
position = "{134, 0}";
},
{
name = top;
position = "{408, 500}";
}
);
layerId = "A97A914C-B88D-4C15-9174-D82F9495701A";
paths = (
{
closed = 1;
nodes = (
"203 -17 OFFCURVE",
"260 2 OFFCURVE",
"296 25 CURVE",
"300 25 LINE",
"300 26 LINE",
"310 32 OFFCURVE",
"322 35 OFFCURVE",
"332 40 CURVE SMOOTH",
"395 75 OFFCURVE",
"444 116 OFFCURVE",
"495 165 CURVE SMOOTH",
"508 178 OFFCURVE",
"522 185 OFFCURVE",
"528 206 CURVE",
"525 206 LINE",
"525 207 LINE",
"517 206 OFFCURVE",
"500 193 OFFCURVE",
"483 180 CURVE SMOOTH",
"475 173 OFFCURVE",
"466 167 OFFCURVE",
"458 161 CURVE SMOOTH",
"451 155 OFFCURVE",
"445 150 OFFCURVE",
"441 148 CURVE SMOOTH",
"431 142 OFFCURVE",
"423 133 OFFCURVE",
"413 127 CURVE SMOOTH",
"385 110 OFFCURVE",
"302 61 OFFCURVE",
"274 50 CURVE SMOOTH",
"240 35 OFFCURVE",
"210 18 OFFCURVE",
"173 16 CURVE",
"171 13 OFFCURVE",
"150 11 OFFCURVE",
"145 11 CURVE SMOOTH",
"131 11 OFFCURVE",
"114 10 OFFCURVE",
"100 15 CURVE SMOOTH",
"60 29 OFFCURVE",
"47 74 OFFCURVE",
"47 107 CURVE SMOOTH",
"47 135 OFFCURVE",
"55 183 OFFCURVE",
"72 197 CURVE",
"71 222 OFFCURVE",
"93 247 OFFCURVE",
"106 264 CURVE SMOOTH",
"113 273 OFFCURVE",
"123 283 OFFCURVE",
"134 293 CURVE SMOOTH",
"144 302 OFFCURVE",
"154 311 OFFCURVE",
"163 321 CURVE SMOOTH",
"176 337 OFFCURVE",
"186 349 OFFCURVE",
"203 362 CURVE SMOOTH",
"263 409 OFFCURVE",
"301 443 OFFCURVE",
"381 457 CURVE",
"384 457 OFFCURVE",
"388 458 OFFCURVE",
"392 458 CURVE SMOOTH",
"414 458 OFFCURVE",
"429 453 OFFCURVE",
"429 435 CURVE SMOOTH",
"429 422 OFFCURVE",
"424 409 OFFCURVE",
"414 399 CURVE",
"415 391 LINE",
"420 391 OFFCURVE",
"423 393 OFFCURVE",
"426 394 CURVE",
"418 382 OFFCURVE",
"407 355 OFFCURVE",
"406 350 CURVE SMOOTH",
"405 345 OFFCURVE",
"404 340 OFFCURVE",
"404 334 CURVE SMOOTH",
"404 328 LINE SMOOTH",
"404 305 OFFCURVE",
"442 285 OFFCURVE",
"465 277 CURVE",
"465 280 LINE",
"469 280 LINE",
"456 295 OFFCURVE",
"451 301 OFFCURVE",
"451 316 CURVE SMOOTH",
"451 353 OFFCURVE",
"495 418 OFFCURVE",
"522 442 CURVE SMOOTH",
"531 450 OFFCURVE",
"565 478 OFFCURVE",
"568 487 CURVE",
"568 492 LINE SMOOTH",
"568 509 OFFCURVE",
"531 531 OFFCURVE",
"510 538 CURVE",
"513 534 OFFCURVE",
"520 524 OFFCURVE",
"520 519 CURVE SMOOTH",
"521 504 OFFCURVE",
"483 465 OFFCURVE",
"472 452 CURVE SMOOTH",
"467 446 OFFCURVE",
"462 441 OFFCURVE",
"459 437 CURVE",
"460 442 OFFCURVE",
"461 448 OFFCURVE",
"461 450 CURVE SMOOTH",
"459 474 OFFCURVE",
"433 488 OFFCURVE",
"409 488 CURVE SMOOTH",
"253 488 OFFCURVE",
"7 302 OFFCURVE",
"-8 169 CURVE SMOOTH",
"-9 156 OFFCURVE",
"-14 136 OFFCURVE",
"-13 123 CURVE SMOOTH",
"-9 76 OFFCURVE",
"20 39 OFFCURVE",
"64 13 CURVE SMOOTH",
"98 -7 OFFCURVE",
"116 -17 OFFCURVE",
"158 -17 CURVE SMOOTH"
);
}
);
width = 432;
}
);
note = C;
unicode = 0043;
},
{
color = 9;
glyphname = D;
lastChange = "2021-10-28 23:18:39 +0000";
layers = (
{
anchors = (
{
name = bottom;
position = "{380, 0}";
},
{
name = center;
position = "{398, 250}";
},
{
name = top;
position = "{673, 434}";
}
);
layerId = "F9847816-3BA7-404E-BAEF-52D5126F5321";
paths = (
{
closed = 1;
nodes = (
"275 -94 OFFCURVE",
"277 -94 OFFCURVE",
"280 -93 CURVE",
"280 -89 LINE",
"261 -89 OFFCURVE",
"259 -62 OFFCURVE",
"259 -49 CURVE SMOOTH",
"259 -37 OFFCURVE",
"260 -11 OFFCURVE",
"269 -2 CURVE SMOOTH",
"273 1 OFFCURVE",
"285 2 OFFCURVE",
"290 2 CURVE SMOOTH",
"301 2 OFFCURVE",
"313 0 OFFCURVE",
"324 0 CURVE SMOOTH",
"353 0 OFFCURVE",
"384 3 OFFCURVE",
"412 10 CURVE",
"415 10 OFFCURVE",
"434 16 OFFCURVE",
"434 16 CURVE",
"436 16 LINE",
"434 8 LINE",
"436 8 LINE",
"436 9 LINE",
"454 21 OFFCURVE",
"476 25 OFFCURVE",
"496 32 CURVE SMOOTH",
"600 69 OFFCURVE",
"774 136 OFFCURVE",
"774 269 CURVE SMOOTH",
"774 283 OFFCURVE",
"772 298 OFFCURVE",
"766 311 CURVE SMOOTH",
"718 424 OFFCURVE",
"602 462 OFFCURVE",
"488 470 CURVE SMOOTH",
"457 472 OFFCURVE",
"425 471 OFFCURVE",
"393 472 CURVE",
"385 469 LINE",
"360 469 LINE",
"360 467 LINE",
"330 468 OFFCURVE",
"300 460 OFFCURVE",
"270 455 CURVE SMOOTH",
"254 452 OFFCURVE",
"239 450 OFFCURVE",
"223 445 CURVE SMOOTH",
"170 430 OFFCURVE",
"6 364 OFFCURVE",
"-10 308 CURVE",
"-11 306 OFFCURVE",
"-11 304 OFFCURVE",
"-11 302 CURVE SMOOTH",
"-11 275 OFFCURVE",
"21 255 OFFCURVE",
"46 255 CURVE SMOOTH",
"75 255 OFFCURVE",
"104 272 OFFCURVE",
"130 284 CURVE",
"131 284 OFFCURVE",
"131 285 OFFCURVE",
"131 286 CURVE SMOOTH",
"131 289 LINE",
"125 289 LINE",
"125 287 LINE",
"107 283 OFFCURVE",
"90 279 OFFCURVE",
"71 276 CURVE",
"70 275 LINE",
"69 276 LINE",
"66 276 LINE",
"66 275 OFFCURVE",
"65 274 OFFCURVE",
"65 274 CURVE",
"62 275 LINE",
"62 273 LINE",
"53 273 OFFCURVE",
"17 273 OFFCURVE",
"17 287 CURVE SMOOTH",
"17 297 OFFCURVE",
"31 309 OFFCURVE",
"38 315 CURVE SMOOTH",
"92 361 OFFCURVE",
"159 385 OFFCURVE",
"224 409 CURVE SMOOTH",
"238 414 OFFCURVE",
"251 423 OFFCURVE",
"265 427 CURVE SMOOTH",
"283 432 OFFCURVE",
"309 434 OFFCURVE",
"328 438 CURVE SMOOTH",
"376 448 OFFCURVE",
"425 455 OFFCURVE",
"474 455 CURVE SMOOTH",
"490 455 OFFCURVE",
"507 454 OFFCURVE",
"523 452 CURVE SMOOTH",
"602 443 OFFCURVE",
"751 387 OFFCURVE",
"751 290 CURVE SMOOTH",
"751 222 OFFCURVE",
"669 148 OFFCURVE",
"614 119 CURVE SMOOTH",
"593 108 OFFCURVE",
"570 100 OFFCURVE",
"551 85 CURVE",
"551 84 LINE",
"548 85 LINE",
"528 74 LINE",
"528 76 LINE",
"516 76 OFFCURVE",
"492 66 OFFCURVE",
"485 57 CURVE",
"470 52 OFFCURVE",
"453 54 OFFCURVE",
"439 44 CURVE",
"426 44 OFFCURVE",
"415 38 OFFCURVE",
"403 36 CURVE",
"403 38 LINE",
"401 36 LINE",
"385 30 LINE",
"385 32 OFFCURVE",
"382 31 OFFCURVE",
"381 31 CURVE SMOOTH",
"378 31 LINE",
"378 29 OFFCURVE",
"375 30 OFFCURVE",
"373 28 CURVE SMOOTH",
"372 27 LINE",
"371 27 OFFCURVE",
"367 29 OFFCURVE",
"367 30 CURVE",
"365 30 LINE",
"365 27 LINE",
"340 24 LINE",
"340 22 LINE",
"335 23 OFFCURVE",
"330 20 OFFCURVE",
"325 20 CURVE SMOOTH",
"277 20 LINE",
"295 65 LINE SMOOTH",
"307 96 OFFCURVE",
"325 124 OFFCURVE",
"344 152 CURVE SMOOTH",
"356 170 OFFCURVE",
"378 216 OFFCURVE",
"397 224 CURVE",
"398 224 LINE",
"398 254 OFFCURVE",
"462 303 OFFCURVE",
"462 334 CURVE SMOOTH",
"462 335 OFFCURVE",
"462 337 OFFCURVE",
"461 338 CURVE",
"469 344 LINE",
"476 344 LINE",
"476 341 LINE",
"475 341 OFFCURVE",
"474 341 OFFCURVE",
"474 340 CURVE SMOOTH",
"474 338 LINE",
"474 338 OFFCURVE",
"472 338 OFFCURVE",
"472 337 CURVE SMOOTH",
"472 335 LINE",
"474 335 LINE",
"491 352 OFFCURVE",
"531 393 OFFCURVE",
"531 417 CURVE SMOOTH",
"531 429 OFFCURVE",
"517 436 OFFCURVE",
"507 436 CURVE SMOOTH",
"500 436 OFFCURVE",
"494 434 OFFCURVE",
"489 428 CURVE SMOOTH",
"446 377 OFFCURVE",
"409 311 OFFCURVE",
"371 253 CURVE SMOOTH",
"339 203 OFFCURVE",
"304 155 OFFCURVE",
"280 100 CURVE SMOOTH",
"269 74 OFFCURVE",
"250 50 OFFCURVE",
"245 22 CURVE",
"233 22 OFFCURVE",
"211 23 OFFCURVE",
"211 39 CURVE SMOOTH",
"211 56 OFFCURVE",
"231 77 OFFCURVE",
"235 93 CURVE",
"234 93 LINE",
"234 95 LINE",
"231 95 LINE",
"216 84 OFFCURVE",
"196 70 OFFCURVE",
"196 50 CURVE SMOOTH",
"196 29 OFFCURVE",
"223 14 OFFCURVE",
"239 5 CURVE",
"239 -14 OFFCURVE",
"229 -32 OFFCURVE",
"229 -51 CURVE SMOOTH",
"229 -72 OFFCURVE",
"251 -94 OFFCURVE",
"272 -94 CURVE SMOOTH"
);
}
);
width = 759;
},
{
anchors = (
{
name = bottom;
position = "{397, 0}";
},
{
name = center;
position = "{414, 250}";
},
{
name = top;
position = "{683, 440}";
}
);
layerId = "A97A914C-B88D-4C15-9174-D82F9495701A";
paths = (
{
closed = 1;
nodes = (
"308 -97 OFFCURVE",
"311 -96 OFFCURVE",
"316 -95 CURVE",
"315 -86 LINE",
"293 -86 OFFCURVE",
"290 -61 OFFCURVE",
"289 -48 CURVE SMOOTH",
"288 -37 OFFCURVE",
"286 -12 OFFCURVE",
"296 -4 CURVE SMOOTH",
"299 -1 OFFCURVE",
"312 -1 OFFCURVE",
"317 -1 CURVE SMOOTH",
"329 -1 OFFCURVE",
"342 -3 OFFCURVE",
"354 -3 CURVE SMOOTH",
"391 -3 LINE SMOOTH",
"410 -3 OFFCURVE",
"428 -3 OFFCURVE",
"447 1 CURVE",
"448 2 OFFCURVE",
"454 3 OFFCURVE",
"460 5 CURVE SMOOTH",
"467 7 LINE",
"470 7 LINE SMOOTH",
"498 7 OFFCURVE",
"515 21 OFFCURVE",
"540 29 CURVE SMOOTH",
"647 65 OFFCURVE",
"826 130 OFFCURVE",
"826 257 CURVE SMOOTH",
"826 276 OFFCURVE",
"823 295 OFFCURVE",
"813 312 CURVE SMOOTH",
"751 427 OFFCURVE",
"619 464 OFFCURVE",
"494 473 CURVE SMOOTH",
"460 475 OFFCURVE",
"425 474 OFFCURVE",
"390 475 CURVE",
"382 471 LINE",
"352 471 LINE",
"352 470 LINE",
"320 470 OFFCURVE",
"289 462 OFFCURVE",
"257 457 CURVE SMOOTH",
"239 454 OFFCURVE",
"223 453 OFFCURVE",
"206 448 CURVE SMOOTH",
"181 441 OFFCURVE",
"-39 368 OFFCURVE",
"-39 304 CURVE SMOOTH",
"-39 273 OFFCURVE",
"0 252 OFFCURVE",
"29 252 CURVE SMOOTH",
"61 252 OFFCURVE",
"110 269 OFFCURVE",
"137 281 CURVE SMOOTH",
"142 283 OFFCURVE",
"140 288 OFFCURVE",
"140 291 CURVE",
"128 291 LINE",
"128 289 LINE",
"110 285 OFFCURVE",
"92 281 OFFCURVE",
"72 278 CURVE SMOOTH",
"71 278 OFFCURVE",
"71 279 OFFCURVE",
"70 279 CURVE SMOOTH",
"51 277 LINE",
"60 277 LINE",
"61 275 LINE",
"52 275 OFFCURVE",
"16 275 OFFCURVE",
"16 288 CURVE SMOOTH",
"16 297 OFFCURVE",
"29 307 OFFCURVE",
"35 312 CURVE SMOOTH",
"91 360 OFFCURVE",
"163 383 OFFCURVE",
"230 407 CURVE SMOOTH",
"244 411 OFFCURVE",
"258 420 OFFCURVE",
"273 424 CURVE SMOOTH",
"292 429 OFFCURVE",
"320 433 OFFCURVE",
"341 436 CURVE SMOOTH",
"380 441 OFFCURVE",
"430 448 OFFCURVE",
"484 448 CURVE SMOOTH",
"540 448 OFFCURVE",
"602 441 OFFCURVE",
"661 416 CURVE SMOOTH",
"732 388 OFFCURVE",
"782 348 OFFCURVE",
"782 288 CURVE SMOOTH",
"782 224 OFFCURVE",
"714 162 OFFCURVE",
"659 132 CURVE SMOOTH",
"622 112 LINE SMOOTH",
"607 104 OFFCURVE",
"593 97 OFFCURVE",
"591 98 CURVE",
"572 88 LINE",
"571 88 LINE SMOOTH",
"557 88 OFFCURVE",
"531 78 OFFCURVE",
"523 69 CURVE",
"507 65 OFFCURVE",
"489 66 OFFCURVE",
"474 56 CURVE",
"462 56 OFFCURVE",
"450 51 OFFCURVE",
"438 49 CURVE",
"438 53 LINE",
"433 48 LINE",
"418 43 LINE",
"414 47 OFFCURVE",
"407 41 OFFCURVE",
"402 40 CURVE",
"402 38 OFFCURVE",
"396 39 OFFCURVE",
"391 37 CURVE",
"384 36 OFFCURVE",
"375 34 OFFCURVE",
"369 32 CURVE",
"369 31 LINE",
"367 31 OFFCURVE",
"365 31 OFFCURVE",
"363 30 CURVE",
"307 30 LINE",
"315 43 OFFCURVE",
"339 55 OFFCURVE",
"345 70 CURVE SMOOTH",
"357 100 OFFCURVE",
"373 129 OFFCURVE",
"391 156 CURVE SMOOTH",
"402 174 OFFCURVE",
"422 219 OFFCURVE",
"441 228 CURVE",
"444 228 LINE",
"444 237 OFFCURVE",
"447 245 OFFCURVE",
"453 254 CURVE SMOOTH",
"458 263 OFFCURVE",
"466 273 OFFCURVE",
"474 283 CURVE SMOOTH",
"482 294 OFFCURVE",
"508 324 OFFCURVE",
"504 343 CURVE",
"510 348 LINE",
"513 348 LINE",
"513 347 OFFCURVE",
"512 346 OFFCURVE",
"513 345 CURVE",
"512 345 OFFCURVE",
"511 344 OFFCURVE",
"511 343 CURVE SMOOTH",
"512 338 LINE",
"516 338 LINE",
"534 356 OFFCURVE",
"561 392 OFFCURVE",
"559 417 CURVE SMOOTH",
"558 430 OFFCURVE",
"530 439 OFFCURVE",
"517 439 CURVE SMOOTH",
"509 439 OFFCURVE",
"502 436 OFFCURVE",
"497 430 CURVE SMOOTH",
"453 377 OFFCURVE",
"420 314 OFFCURVE",
"383 255 CURVE SMOOTH",
"352 205 OFFCURVE",
"318 156 OFFCURVE",
"296 101 CURVE SMOOTH",
"286 75 OFFCURVE",
"268 52 OFFCURVE",
"264 24 CURVE",
"252 24 OFFCURVE",
"231 25 OFFCURVE",
"230 39 CURVE SMOOTH",
"230 47 OFFCURVE",
"234 55 OFFCURVE",
"239 65 CURVE SMOOTH",
"244 75 OFFCURVE",
"250 84 OFFCURVE",
"252 96 CURVE",
"250 96 LINE",
"250 97 LINE",
"243 97 LINE",
"229 87 OFFCURVE",
"207 73 OFFCURVE",
"207 52 CURVE SMOOTH",
"207 28 OFFCURVE",
"240 12 OFFCURVE",
"258 3 CURVE",
"259 -14 OFFCURVE",
"252 -31 OFFCURVE",
"252 -48 CURVE SMOOTH",
"252 -72 OFFCURVE",
"280 -97 OFFCURVE",
"305 -97 CURVE SMOOTH"
);
}
);
width = 793;
}
);
note = D;
unicode = 0044;
},
{
color = 9;
glyphname = E;
lastChange = "2021-10-28 23:18:39 +0000";
layers = (
{
anchors = (
{
name = bottom;
position = "{152, -44}";
},
{
name = ogonek;
position = "{341, 5}";
},
{
name = top;
position = "{405, 454}";
},
{
name = topleft;
position = "{20, 500}";
}
);
layerId = "F9847816-3BA7-404E-BAEF-52D5126F5321";
paths = (
{
closed = 1;
nodes = (
"200 -52 OFFCURVE",
"233 -44 OFFCURVE",
"265 -35 CURVE",
"264 -34 OFFCURVE",
"266 -34 OFFCURVE",
"267 -34 CURVE SMOOTH",
"277 -34 OFFCURVE",
"281 -26 OFFCURVE",
"290 -22 CURVE SMOOTH",
"302 -16 OFFCURVE",
"330 -14 OFFCURVE",
"331 5 CURVE",
"341 5 OFFCURVE",
"351 12 OFFCURVE",
"359 18 CURVE SMOOTH",
"390 42 OFFCURVE",
"422 88 OFFCURVE",
"422 128 CURVE SMOOTH",
"422 147 OFFCURVE",
"411 177 OFFCURVE",
"390 181 CURVE",
"390 180 LINE",
"388 178 OFFCURVE",
"394 174 OFFCURVE",
"395 172 CURVE",
"405 164 OFFCURVE",
"410 155 OFFCURVE",
"410 141 CURVE SMOOTH",
"410 121 OFFCURVE",
"397 98 OFFCURVE",
"386 81 CURVE SMOOTH",
"362 46 OFFCURVE",
"327 27 OFFCURVE",
"291 8 CURVE SMOOTH",
"280 3 OFFCURVE",
"269 -1 OFFCURVE",
"260 -7 CURVE SMOOTH",
"259 -8 OFFCURVE",
"259 -8 OFFCURVE",
"259 -9 CURVE",
"259 -8 OFFCURVE",
"258 -8 OFFCURVE",
"258 -8 CURVE",
"254 -8 OFFCURVE",
"217 -22 OFFCURVE",
"208 -23 CURVE SMOOTH",
"190 -26 OFFCURVE",
"172 -30 OFFCURVE",
"154 -30 CURVE SMOOTH",
"100 -30 OFFCURVE",
"26 -28 OFFCURVE",
"26 45 CURVE SMOOTH",
"26 64 OFFCURVE",
"32 84 OFFCURVE",
"42 100 CURVE SMOOTH",
"57 125 OFFCURVE",
"83 142 OFFCURVE",
"107 157 CURVE SMOOTH",
"161 191 OFFCURVE",
"213 217 OFFCURVE",
"275 229 CURVE SMOOTH",
"292 233 OFFCURVE",
"310 236 OFFCURVE",
"327 236 CURVE SMOOTH",
"356 236 OFFCURVE",
"358 229 OFFCURVE",
"381 217 CURVE",
"381 218 LINE",
"382 220 LINE",
"381 243 OFFCURVE",
"361 272 OFFCURVE",
"336 272 CURVE SMOOTH",
"330 272 OFFCURVE",
"326 270 OFFCURVE",
"321 269 CURVE SMOOTH",
"317 268 OFFCURVE",
"312 268 OFFCURVE",
"306 268 CURVE SMOOTH",
"291 268 LINE SMOOTH",
"283 268 OFFCURVE",
"276 267 OFFCURVE",
"268 264 CURVE",
"257 264 OFFCURVE",
"246 263 OFFCURVE",
"235 263 CURVE SMOOTH",
"219 263 OFFCURVE",
"188 264 OFFCURVE",
"188 281 CURVE SMOOTH",
"188 325 OFFCURVE",
"316 402 OFFCURVE",
"354 411 CURVE SMOOTH",
"366 413 OFFCURVE",
"425 425 OFFCURVE",
"434 425 CURVE SMOOTH",
"440 425 OFFCURVE",
"456 424 OFFCURVE",
"456 415 CURVE SMOOTH",
"456 399 OFFCURVE",
"423 362 OFFCURVE",
"423 329 CURVE SMOOTH",
"423 313 OFFCURVE",
"433 302 OFFCURVE",
"448 299 CURVE",
"453 304 LINE",
"447 307 OFFCURVE",
"443 313 OFFCURVE",
"443 319 CURVE SMOOTH",
"443 334 OFFCURVE",
"476 409 OFFCURVE",
"490 409 CURVE SMOOTH",
"498 409 OFFCURVE",
"502 388 OFFCURVE",
"502 382 CURVE SMOOTH",
"502 372 OFFCURVE",
"498 362 OFFCURVE",
"498 354 CURVE SMOOTH",
"498 352 LINE",
"508 353 OFFCURVE",
"513 377 OFFCURVE",
"513 386 CURVE SMOOTH",
"513 401 OFFCURVE",
"508 416 OFFCURVE",
"501 430 CURVE",
"507 430 OFFCURVE",
"532 486 OFFCURVE",
"564 485 CURVE",
"564 504 OFFCURVE",
"546 509 OFFCURVE",
"530 509 CURVE",
"510 491 OFFCURVE",
"494 470 OFFCURVE",
"480 448 CURVE",
"448 450 LINE SMOOTH",
"442 450 OFFCURVE",
"434 449 OFFCURVE",
"428 448 CURVE SMOOTH",
"391 442 LINE",
"375 438 LINE SMOOTH",
"359 434 OFFCURVE",
"349 430 OFFCURVE",
"334 424 CURVE SMOOTH",
"287 407 OFFCURVE",
"167 359 OFFCURVE",
"167 299 CURVE SMOOTH",
"167 264 OFFCURVE",
"196 254 OFFCURVE",
"225 248 CURVE",
"225 246 LINE",
"189 233 LINE SMOOTH",
"123 209 OFFCURVE",
"10 138 OFFCURVE",
"10 59 CURVE SMOOTH",
"10 -19 OFFCURVE",
"102 -52 OFFCURVE",
"167 -52 CURVE SMOOTH"
);
}
);
width = 449;
},
{
anchors = (
{
name = bottom;
position = "{149, -56}";
},
{
name = ogonek;
position = "{482, 10}";
},
{
name = top;
position = "{377, 463}";
},
{
name = topleft;
position = "{20, 500}";
}
);
layerId = "A97A914C-B88D-4C15-9174-D82F9495701A";
paths = (
{
closed = 1;
nodes = (
"242 -61 OFFCURVE",
"277 -53 OFFCURVE",
"312 -44 CURVE",
"312 -43 LINE",
"313 -43 LINE SMOOTH",
"325 -43 OFFCURVE",
"329 -35 OFFCURVE",
"339 -31 CURVE",
"351 -24 OFFCURVE",
"380 -22 OFFCURVE",
"382 -4 CURVE",
"390 -4 OFFCURVE",
"398 1 OFFCURVE",
"404 5 CURVE SMOOTH",
"437 29 OFFCURVE",
"476 76 OFFCURVE",
"472 122 CURVE SMOOTH",
"470 143 OFFCURVE",
"435 179 OFFCURVE",
"408 184 CURVE",
"408 180 LINE SMOOTH",
"408 175 OFFCURVE",
"413 173 OFFCURVE",
"416 170 CURVE",
"428 162 OFFCURVE",
"434 153 OFFCURVE",
"434 139 CURVE SMOOTH",
"434 120 OFFCURVE",
"424 98 OFFCURVE",
"413 83 CURVE SMOOTH",
"390 49 OFFCURVE",
"354 30 OFFCURVE",
"316 11 CURVE SMOOTH",
"305 6 OFFCURVE",
"293 1 OFFCURVE",
"283 -5 CURVE",
"282 -5 LINE SMOOTH",
"280 -5 OFFCURVE",
"269 -9 OFFCURVE",
"257 -12 CURVE SMOOTH",
"245 -16 OFFCURVE",
"234 -20 OFFCURVE",
"229 -21 CURVE SMOOTH",
"210 -24 OFFCURVE",
"191 -28 OFFCURVE",
"171 -28 CURVE SMOOTH",
"109 -28 OFFCURVE",
"32 -18 OFFCURVE",
"32 51 CURVE SMOOTH",
"32 66 OFFCURVE",
"36 82 OFFCURVE",
"44 95 CURVE SMOOTH",
"57 118 OFFCURVE",
"81 134 OFFCURVE",
"105 148 CURVE SMOOTH",
"157 179 OFFCURVE",
"209 202 OFFCURVE",
"276 215 CURVE SMOOTH",
"295 218 OFFCURVE",
"313 221 OFFCURVE",
"332 221 CURVE SMOOTH",
"348 221 OFFCURVE",
"358 222 OFFCURVE",
"367 222 CURVE SMOOTH",
"376 222 OFFCURVE",
"385 221 OFFCURVE",
"401 213 CURVE",
"401 218 LINE",
"402 220 LINE",
"398 244 OFFCURVE",
"373 274 OFFCURVE",
"344 274 CURVE SMOOTH",
"339 274 OFFCURVE",
"333 272 OFFCURVE",
"328 271 CURVE SMOOTH",
"323 270 OFFCURVE",
"317 270 OFFCURVE",
"312 270 CURVE SMOOTH",
"296 270 LINE SMOOTH",
"287 270 OFFCURVE",
"279 269 OFFCURVE",
"271 266 CURVE",
"239 266 LINE SMOOTH",
"228 266 OFFCURVE",
"185 264 OFFCURVE",
"184 282 CURVE SMOOTH",
"179 343 OFFCURVE",
"364 423 OFFCURVE",
"439 423 CURVE SMOOTH",
"445 423 OFFCURVE",
"461 423 OFFCURVE",
"461 415 CURVE SMOOTH",
"462 400 OFFCURVE",
"432 364 OFFCURVE",
"432 332 CURVE SMOOTH",
"432 313 OFFCURVE",
"454 294 OFFCURVE",
"474 290 CURVE",
"482 298 LINE",
"473 303 OFFCURVE",
"469 308 OFFCURVE",
"468 313 CURVE SMOOTH",
"467 328 OFFCURVE",
"497 401 OFFCURVE",
"509 401 CURVE SMOOTH",
"518 401 OFFCURVE",
"522 381 OFFCURVE",
"523 376 CURVE SMOOTH",
"523 371 OFFCURVE",
"522 367 OFFCURVE",
"521 362 CURVE SMOOTH",
"520 354 OFFCURVE",
"520 351 OFFCURVE",
"521 343 CURVE",
"534 345 OFFCURVE",
"539 366 OFFCURVE",
"539 377 CURVE SMOOTH",
"539 393 OFFCURVE",
"532 409 OFFCURVE",
"523 423 CURVE",
"530 431 LINE SMOOTH",
"546 449 OFFCURVE",
"560 477 OFFCURVE",
"586 476 CURVE",
"584 501 OFFCURVE",
"554 511 OFFCURVE",
"536 511 CURVE",
"515 494 OFFCURVE",
"500 472 OFFCURVE",
"486 451 CURVE",
"472 460 OFFCURVE",
"449 463 OFFCURVE",
"424 463 CURVE SMOOTH",
"377 463 OFFCURVE",
"321 451 OFFCURVE",
"295 442 CURVE SMOOTH",
"245 426 OFFCURVE",
"131 371 OFFCURVE",
"137 309 CURVE SMOOTH",
"139 273 OFFCURVE",
"188 253 OFFCURVE",
"220 247 CURVE",
"186 235 LINE SMOOTH",
"117 211 OFFCURVE",
"-7 139 OFFCURVE",
"-1 58 CURVE SMOOTH",
"7 -40 OFFCURVE",
"136 -61 OFFCURVE",
"206 -61 CURVE SMOOTH"
);
}
);
width = 504;
}
);
note = E;
unicode = 0045;
},
{
color = 9;
glyphname = F;
lastChange = "2021-11-25 00:52:10 +0000";
layers = (
{
layerId = "F9847816-3BA7-404E-BAEF-52D5126F5321";
paths = (
{
closed = 1;
nodes = (
"269 -28 OFFCURVE",
"282 3 OFFCURVE",
"287 21 CURVE",
"274 21 OFFCURVE",
"261 -16 OFFCURVE",
"236 -14 CURVE SMOOTH",
"232 -14 LINE",
"225 1 OFFCURVE",
"227 20 OFFCURVE",
"227 36 CURVE SMOOTH",
"227 67 OFFCURVE",
"244 104 OFFCURVE",
"256 132 CURVE SMOOTH",
"261 144 OFFCURVE",
"262 158 OFFCURVE",
"267 170 CURVE SMOOTH",
"303 244 OFFCURVE",
"374 248 OFFCURVE",
"447 248 CURVE SMOOTH",
"475 248 OFFCURVE",
"503 245 OFFCURVE",
"529 231 CURVE",
"529 233 LINE SMOOTH",
"529 251 OFFCURVE",
"452 266 OFFCURVE",
"437 266 CURVE SMOOTH",
"420 266 OFFCURVE",
"403 265 OFFCURVE",
"386 265 CURVE SMOOTH",
"375 265 LINE SMOOTH",
"360 265 OFFCURVE",
"346 262 OFFCURVE",
"332 261 CURVE",
"328 264 OFFCURVE",
"330 264 OFFCURVE",
"325 264 CURVE",
"325 276 OFFCURVE",
"346 312 OFFCURVE",
"358 315 CURVE",
"358 334 OFFCURVE",
"381 343 OFFCURVE",
"380 362 CURVE",
"389 362 LINE",
"390 367 OFFCURVE",
"389 372 OFFCURVE",
"395 372 CURVE",
"387 348 OFFCURVE",
"439 416 OFFCURVE",
"439 422 CURVE SMOOTH",
"439 431 OFFCURVE",
"435 438 OFFCURVE",
"428 442 CURVE",
"428 443 OFFCURVE",
"441 447 OFFCURVE",
"444 447 CURVE SMOOTH",
"489 447 OFFCURVE",
"537 455 OFFCURVE",
"582 455 CURVE SMOOTH",
"616 455 OFFCURVE",
"710 448 OFFCURVE",
"710 402 CURVE SMOOTH",
"710 373 OFFCURVE",
"670 344 OFFCURVE",
"648 329 CURVE",
"647 329 LINE",
"647 328 LINE",
"648 328 LINE",
"648 327 LINE",
"651 326 LINE",
"661 326 OFFCURVE",
"672 337 OFFCURVE",
"682 341 CURVE SMOOTH",
"704 351 OFFCURVE",
"720 349 OFFCURVE",
"720 383 CURVE SMOOTH",
"720 408 OFFCURVE",
"703 446 OFFCURVE",
"682 461 CURVE SMOOTH",
"667 472 OFFCURVE",
"641 480 OFFCURVE",
"623 480 CURVE SMOOTH",
"558 480 LINE",
"525 480 LINE",
"513 477 OFFCURVE",
"503 477 OFFCURVE",
"494 477 CURVE SMOOTH",
"489 477 OFFCURVE",
"485 477 OFFCURVE",
"480 476 CURVE SMOOTH",
"405 457 OFFCURVE",
"327 452 OFFCURVE",
"251 432 CURVE SMOOTH",
"216 422 OFFCURVE",
"131 408 OFFCURVE",
"76 401 CURVE SMOOTH",
"67 399 OFFCURVE",
"56 398 OFFCURVE",
"46 398 CURVE SMOOTH",
"42 398 OFFCURVE",
"21 403 OFFCURVE",
"21 407 CURVE SMOOTH",
"21 412 OFFCURVE",
"25 423 OFFCURVE",
"29 426 CURVE SMOOTH",
"66 455 OFFCURVE",
"124 483 OFFCURVE",
"170 495 CURVE SMOOTH",
"190 500 OFFCURVE",
"211 502 OFFCURVE",
"231 508 CURVE",
"233 508 OFFCURVE",
"232 509 OFFCURVE",
"231 510 CURVE",
"231 512 OFFCURVE",
"214 513 OFFCURVE",
"211 513 CURVE SMOOTH",
"208 513 OFFCURVE",
"204 513 OFFCURVE",
"201 511 CURVE",
"191 512 OFFCURVE",
"181 508 OFFCURVE",
"171 508 CURVE SMOOTH",
"149 508 OFFCURVE",
"105 491 OFFCURVE",
"87 478 CURVE",
"62 481 OFFCURVE",
"4 442 OFFCURVE",
"4 416 CURVE SMOOTH",
"4 405 OFFCURVE",
"10 393 OFFCURVE",
"16 385 CURVE SMOOTH",
"26 370 OFFCURVE",
"44 366 OFFCURVE",
"61 366 CURVE SMOOTH",
"129 366 OFFCURVE",
"297 412 OFFCURVE",
"399 437 CURVE",
"388 428 OFFCURVE",
"365 399 OFFCURVE",
"359 390 CURVE",
"358 390 OFFCURVE",
"355 382 OFFCURVE",
"368 390 CURVE",
"367 394 OFFCURVE",
"375 389 OFFCURVE",
"368 386 CURVE",
"343 347 OFFCURVE",
"312 309 OFFCURVE",
"290 268 CURVE",
"290 261 OFFCURVE",
"291 263 OFFCURVE",
"286 258 CURVE SMOOTH",
"268 242 OFFCURVE",
"253 246 OFFCURVE",
"231 241 CURVE SMOOTH",
"201 235 OFFCURVE",
"171 227 OFFCURVE",
"140 220 CURVE SMOOTH",
"128 217 OFFCURVE",
"115 213 OFFCURVE",
"103 212 CURVE SMOOTH",
"98 211 OFFCURVE",
"92 210 OFFCURVE",
"88 210 CURVE SMOOTH",
"84 210 OFFCURVE",
"78 214 OFFCURVE",
"75 217 CURVE",
"76 219 LINE",
"73 219 OFFCURVE",
"73 215 OFFCURVE",
"73 214 CURVE SMOOTH",
"73 203 OFFCURVE",
"81 182 OFFCURVE",
"94 182 CURVE SMOOTH",
"116 182 OFFCURVE",
"248 208 OFFCURVE",
"260 219 CURVE",
"272 219 OFFCURVE",
"225 144 OFFCURVE",
"225 126 CURVE SMOOTH",
"225 120 LINE",
"224 120 LINE",
"209 96 OFFCURVE",
"199 60 OFFCURVE",
"199 32 CURVE SMOOTH",
"199 6 OFFCURVE",
"217 -28 OFFCURVE",
"246 -28 CURVE SMOOTH"
);
}
);
width = 534;
},
{
layerId = "A97A914C-B88D-4C15-9174-D82F9495701A";
paths = (
{
closed = 1;
nodes = (
"298 -30 OFFCURVE",
"321 4 OFFCURVE",
"327 26 CURVE",
"319 26 OFFCURVE",
"315 23 OFFCURVE",
"312 19 CURVE",
"298 6 OFFCURVE",
"291 -11 OFFCURVE",
"268 -9 CURVE",
"260 8 OFFCURVE",
"259 30 OFFCURVE",
"259 46 CURVE SMOOTH",
"259 76 OFFCURVE",
"273 108 OFFCURVE",
"283 134 CURVE SMOOTH",
"287 146 OFFCURVE",
"287 159 OFFCURVE",
"292 171 CURVE SMOOTH",
"324 244 OFFCURVE",
"387 246 OFFCURVE",
"468 246 CURVE SMOOTH",
"498 246 OFFCURVE",
"529 242 OFFCURVE",
"561 227 CURVE",
"560 233 LINE SMOOTH",
"559 251 OFFCURVE",
"486 269 OFFCURVE",
"470 269 CURVE SMOOTH",
"451 269 OFFCURVE",
"432 267 OFFCURVE",
"414 267 CURVE SMOOTH",
"410 267 OFFCURVE",
"406 268 OFFCURVE",
"402 268 CURVE SMOOTH",
"386 268 OFFCURVE",
"363 264 OFFCURVE",
"347 263 CURVE",
"345 264 LINE SMOOTH",
"344 265 OFFCURVE",
"343 265 OFFCURVE",
"341 265 CURVE",
"343 278 OFFCURVE",
"369 310 OFFCURVE",
"382 313 CURVE",
"382 319 OFFCURVE",
"383 322 OFFCURVE",
"386 326 CURVE SMOOTH",
"394 336 OFFCURVE",
"412 345 OFFCURVE",
"412 359 CURVE",
"422 359 LINE",
"423 363 OFFCURVE",
"423 364 OFFCURVE",
"423 366 CURVE SMOOTH",
"423 367 LINE",
"424 364 OFFCURVE",
"427 365 OFFCURVE",
"431 367 CURVE",
"440 375 OFFCURVE",
"472 415 OFFCURVE",
"472 422 CURVE SMOOTH",
"471 431 OFFCURVE",
"467 437 OFFCURVE",
"461 442 CURVE",
"464 442 LINE",
"504 453 OFFCURVE",
"557 453 OFFCURVE",
"598 453 CURVE SMOOTH",
"637 453 OFFCURVE",
"728 447 OFFCURVE",
"728 401 CURVE SMOOTH",
"728 375 OFFCURVE",
"701 346 OFFCURVE",
"680 332 CURVE",
"677 332 LINE",
"677 326 LINE",
"678 326 LINE",
"678 324 LINE",
"684 324 LINE SMOOTH",
"693 324 OFFCURVE",
"702 330 OFFCURVE",
"710 335 CURVE SMOOTH",
"733 348 OFFCURVE",
"761 342 OFFCURVE",
"757 383 CURVE SMOOTH",
"755 409 OFFCURVE",
"714 458 OFFCURVE",
"690 473 CURVE SMOOTH",
"672 484 OFFCURVE",
"643 492 OFFCURVE",
"622 492 CURVE SMOOTH",
"587 492 OFFCURVE",
"568 490 OFFCURVE",
"533 488 CURVE",
"511 483 OFFCURVE",
"472 483 OFFCURVE",
"459 479 CURVE",
"378 461 OFFCURVE",
"319 455 OFFCURVE",
"238 434 CURVE SMOOTH",
"200 425 OFFCURVE",
"109 411 OFFCURVE",
"50 403 CURVE SMOOTH",
"39 402 OFFCURVE",
"28 401 OFFCURVE",
"17 401 CURVE SMOOTH",
"13 401 OFFCURVE",
"-8 404 OFFCURVE",
"-9 407 CURVE",
"-9 412 OFFCURVE",
"-5 422 OFFCURVE",
"-2 424 CURVE SMOOTH",
"36 453 OFFCURVE",
"97 480 OFFCURVE",
"145 493 CURVE SMOOTH",
"166 498 OFFCURVE",
"189 499 OFFCURVE",
"210 506 CURVE",
"215 506 OFFCURVE",
"215 511 OFFCURVE",
"210 512 CURVE",
"211 511 LINE",
"207 513 OFFCURVE",
"192 516 OFFCURVE",
"188 516 CURVE SMOOTH",
"184 516 OFFCURVE",
"180 515 OFFCURVE",
"177 514 CURVE",
"166 514 OFFCURVE",
"155 510 OFFCURVE",
"145 510 CURVE SMOOTH",
"120 510 OFFCURVE",
"74 494 OFFCURVE",
"55 480 CURVE",
"26 483 OFFCURVE",
"-33 445 OFFCURVE",
"-33 416 CURVE SMOOTH",
"-33 408 OFFCURVE",
"-27 377 OFFCURVE",
"-19 368 CURVE SMOOTH",
"-6 352 OFFCURVE",
"16 348 OFFCURVE",
"34 348 CURVE SMOOTH",
"72 348 OFFCURVE",
"136 364 OFFCURVE",
"204 382 CURVE SMOOTH",
"269 400 OFFCURVE",
"338 420 OFFCURVE",
"391 432 CURVE",
"379 421 OFFCURVE",
"363 400 OFFCURVE",
"358 392 CURVE",
"356 391 OFFCURVE",
"353 380 OFFCURVE",
"368 387 CURVE",
"355 367 OFFCURVE",
"341 343 OFFCURVE",
"327 321 CURVE SMOOTH",
"314 299 OFFCURVE",
"301 280 OFFCURVE",
"293 269 CURVE SMOOTH",
"282 256 OFFCURVE",
"249 247 OFFCURVE",
"232 244 CURVE SMOOTH",
"134 223 LINE SMOOTH",
"122 220 OFFCURVE",
"108 216 OFFCURVE",
"95 214 CURVE SMOOTH",
"90 213 OFFCURVE",
"84 212 OFFCURVE",
"78 212 CURVE SMOOTH",
"77 212 OFFCURVE",
"68 218 OFFCURVE",
"66 219 CURVE SMOOTH",
"60 221 OFFCURVE",
"53 222 OFFCURVE",
"53 212 CURVE SMOOTH",
"53 210 LINE SMOOTH",
"54 199 OFFCURVE",
"69 164 OFFCURVE",
"86 164 CURVE SMOOTH",
"109 164 OFFCURVE",
"246 195 OFFCURVE",
"264 207 CURVE",
"265 207 OFFCURVE",
"263 204 OFFCURVE",
"262 200 CURVE",
"251 176 LINE SMOOTH",
"247 166 OFFCURVE",
"242 156 OFFCURVE",
"238 148 CURVE",
"236 141 OFFCURVE",
"232 134 OFFCURVE",
"232 127 CURVE SMOOTH",
"232 125 OFFCURVE",
"233 123 OFFCURVE",
"233 122 CURVE",
"218 96 OFFCURVE",
"209 60 OFFCURVE",
"212 31 CURVE SMOOTH",
"214 5 OFFCURVE",
"237 -30 OFFCURVE",
"271 -30 CURVE SMOOTH"
);
}
);
width = 583;
}
);
note = F;
unicode = 0046;
},
{
color = 9;
glyphname = G;
lastChange = "2021-10-28 23:18:39 +0000";
layers = (
{
anchors = (
{
name = bottom;
position = "{130, -188}";
},
{
name = top;
position = "{428, 500}";
}
);
layerId = "F9847816-3BA7-404E-BAEF-52D5126F5321";
paths = (
{
closed = 1;
nodes = (
"225 -193 OFFCURVE",
"291 -98 OFFCURVE",
"330 -27 CURVE SMOOTH",
"339 -11 OFFCURVE",
"343 11 OFFCURVE",
"357 24 CURVE",
"357 37 OFFCURVE",
"368 45 OFFCURVE",
"370 56 CURVE SMOOTH",
"372 62 OFFCURVE",
"373 67 OFFCURVE",
"374 73 CURVE SMOOTH",
"379 90 OFFCURVE",
"391 109 OFFCURVE",
"397 127 CURVE SMOOTH",
"400 134 OFFCURVE",
"401 142 OFFCURVE",
"404 149 CURVE SMOOTH",
"409 163 OFFCURVE",
"418 173 OFFCURVE",
"418 190 CURVE",
"424 191 OFFCURVE",
"445 238 OFFCURVE",
"449 247 CURVE",
"448 247 LINE",
"447 250 OFFCURVE",
"443 251 OFFCURVE",
"443 255 CURVE SMOOTH",
"443 257 OFFCURVE",
"444 259 OFFCURVE",
"445 260 CURVE",
"446 260 LINE",
"446 261 LINE",
"448 261 LINE",
"448 260 LINE",
"448 260 OFFCURVE",
"449 260 OFFCURVE",
"449 259 CURVE",
"449 259 OFFCURVE",
"448 257 OFFCURVE",
"448 256 CURVE SMOOTH",
"448 255 LINE",
"461 255 OFFCURVE",
"476 273 OFFCURVE",
"491 276 CURVE",
"490 286 OFFCURVE",
"454 296 OFFCURVE",
"446 296 CURVE SMOOTH",
"443 296 OFFCURVE",
"439 295 OFFCURVE",
"436 294 CURVE SMOOTH",
"429 292 OFFCURVE",
"389 244 OFFCURVE",
"384 235 CURVE",
"374 233 OFFCURVE",
"371 223 OFFCURVE",
"364 216 CURVE SMOOTH",
"335 189 OFFCURVE",
"307 159 OFFCURVE",
"276 134 CURVE SMOOTH",
"248 111 OFFCURVE",
"174 58 OFFCURVE",
"142 47 CURVE",
"139 47 OFFCURVE",
"105 36 OFFCURVE",
"105 36 CURVE",
"75 36 OFFCURVE",
"53 42 OFFCURVE",
"53 76 CURVE SMOOTH",
"53 127 OFFCURVE",
"69 148 OFFCURVE",
"91 191 CURVE SMOOTH",
"115 238 OFFCURVE",
"148 280 OFFCURVE",
"185 317 CURVE SMOOTH",
"196 328 OFFCURVE",
"206 337 OFFCURVE",
"217 347 CURVE SMOOTH",
"222 351 OFFCURVE",
"229 356 OFFCURVE",
"234 361 CURVE",
"241 371 LINE SMOOTH",
"247 380 OFFCURVE",
"260 386 OFFCURVE",
"268 393 CURVE SMOOTH",
"320 433 OFFCURVE",
"395 481 OFFCURVE",
"461 484 CURVE",
"464 485 LINE",
"479 485 OFFCURVE",
"482 469 OFFCURVE",
"482 457 CURVE SMOOTH",
"482 444 OFFCURVE",
"477 418 OFFCURVE",
"469 407 CURVE",
"469 406 LINE",
"470 406 LINE",
"470 405 LINE",
"474 406 OFFCURVE",
"476 412 OFFCURVE",
"476 416 CURVE",
"478 416 OFFCURVE",
"480 417 OFFCURVE",
"481 417 CURVE",
"484 419 OFFCURVE",
"484 423 OFFCURVE",
"486 425 CURVE",
"495 443 OFFCURVE",
"509 461 OFFCURVE",
"509 481 CURVE SMOOTH",
"509 506 OFFCURVE",
"477 504 OFFCURVE",
"460 504 CURVE SMOOTH",
"455 504 OFFCURVE",
"416 494 OFFCURVE",
"409 492 CURVE",
"408 490 LINE",
"408 492 LINE",
"397 491 OFFCURVE",
"360 470 OFFCURVE",
"348 464 CURVE SMOOTH",
"332 456 OFFCURVE",
"313 449 OFFCURVE",
"297 440 CURVE SMOOTH",
"288 434 OFFCURVE",
"279 425 OFFCURVE",
"269 419 CURVE SMOOTH",
"237 397 OFFCURVE",
"201 374 OFFCURVE",
"174 346 CURVE SMOOTH",
"167 339 OFFCURVE",
"161 331 OFFCURVE",
"155 324 CURVE SMOOTH",
"114 280 OFFCURVE",
"79 254 OFFCURVE",
"56 195 CURVE",
"57 191 OFFCURVE",
"57 187 OFFCURVE",
"56 183 CURVE",
"55 185 LINE",
"40 184 OFFCURVE",
"39 167 OFFCURVE",
"32 157 CURVE",
"33 152 LINE",
"26 150 OFFCURVE",
"20 109 OFFCURVE",
"20 101 CURVE SMOOTH",
"20 61 OFFCURVE",
"63 24 OFFCURVE",
"102 24 CURVE SMOOTH",
"137 24 OFFCURVE",
"166 41 OFFCURVE",
"196 57 CURVE SMOOTH",
"269 98 OFFCURVE",
"330 156 OFFCURVE",
"391 213 CURVE",
"391 212 LINE",
"392 211 LINE",
"392 206 LINE",
"381 168 OFFCURVE",
"371 129 OFFCURVE",
"356 93 CURVE",
"357 93 LINE",
"357 92 OFFCURVE",
"343 57 OFFCURVE",
"342 52 CURVE",
"308 -37 OFFCURVE",
"261 -125 OFFCURVE",
"174 -172 CURVE SMOOTH",
"161 -178 OFFCURVE",
"145 -186 OFFCURVE",
"130 -186 CURVE SMOOTH",
"109 -186 OFFCURVE",
"93 -164 OFFCURVE",
"81 -148 CURVE",
"80 -149 OFFCURVE",
"80 -148 OFFCURVE",
"80 -147 CURVE SMOOTH",
"80 -127 OFFCURVE",
"64 -111 OFFCURVE",
"64 -91 CURVE SMOOTH",
"64 -87 OFFCURVE",
"65 -82 OFFCURVE",
"68 -78 CURVE",
"68 -77 LINE",
"66 -77 LINE",
"66 -75 LINE",
"63 -75 LINE",
"59 -90 OFFCURVE",
"56 -102 OFFCURVE",
"56 -117 CURVE SMOOTH",
"56 -170 OFFCURVE",
"83 -193 OFFCURVE",
"135 -193 CURVE SMOOTH"
);
}
);
width = 442;
},
{
anchors = (
{
name = bottom;
position = "{158, -188}";
},
{
name = top;
position = "{420, 500}";
}
);
layerId = "A97A914C-B88D-4C15-9174-D82F9495701A";
paths = (
{
closed = 1;
nodes = (
"263 -195 OFFCURVE",
"349 -107 OFFCURVE",
"386 -37 CURVE SMOOTH",
"395 -19 OFFCURVE",
"396 1 OFFCURVE",
"412 15 CURVE",
"411 25 OFFCURVE",
"416 31 OFFCURVE",
"420 39 CURVE SMOOTH",
"424 47 OFFCURVE",
"425 56 OFFCURVE",
"426 65 CURVE SMOOTH",
"430 83 OFFCURVE",
"442 100 OFFCURVE",
"447 118 CURVE SMOOTH",
"449 125 OFFCURVE",
"450 133 OFFCURVE",
"452 140 CURVE SMOOTH",
"457 155 OFFCURVE",
"465 164 OFFCURVE",
"464 180 CURVE",
"474 190 OFFCURVE",
"489 228 OFFCURVE",
"495 241 CURVE",
"491 241 LINE",
"491 242 OFFCURVE",
"491 242 OFFCURVE",
"490 243 CURVE SMOOTH",
"489 244 LINE SMOOTH",
"487 246 OFFCURVE",
"486 247 OFFCURVE",
"487 250 CURVE",
"490 250 LINE",
"489 254 LINE",
"488 252 LINE",
"486 253 LINE",
"486 252 LINE",
"487 251 LINE",
"487 251 OFFCURVE",
"487 250 OFFCURVE",
"486 249 CURVE",
"487 245 LINE",
"497 245 OFFCURVE",
"503 252 OFFCURVE",
"510 260 CURVE SMOOTH",
"516 268 OFFCURVE",
"520 275 OFFCURVE",
"530 277 CURVE",
"528 290 OFFCURVE",
"472 298 OFFCURVE",
"463 298 CURVE SMOOTH",
"459 298 OFFCURVE",
"455 298 OFFCURVE",
"451 297 CURVE SMOOTH",
"444 294 OFFCURVE",
"405 248 OFFCURVE",
"399 238 CURVE",
"388 235 OFFCURVE",
"385 225 OFFCURVE",
"378 218 CURVE SMOOTH",
"349 190 OFFCURVE",
"320 161 OFFCURVE",
"289 136 CURVE SMOOTH",
"260 113 OFFCURVE",
"184 60 OFFCURVE",
"150 50 CURVE SMOOTH",
"148 49 OFFCURVE",
"112 39 OFFCURVE",
"111 39 CURVE SMOOTH",
"79 39 OFFCURVE",
"57 45 OFFCURVE",
"54 76 CURVE SMOOTH",
"50 127 OFFCURVE",
"65 147 OFFCURVE",
"85 190 CURVE SMOOTH",
"115 251 OFFCURVE",
"160 302 OFFCURVE",
"210 345 CURVE SMOOTH",
"215 350 OFFCURVE",
"222 353 OFFCURVE",
"227 359 CURVE SMOOTH",
"230 362 OFFCURVE",
"232 366 OFFCURVE",
"235 369 CURVE SMOOTH",
"242 378 OFFCURVE",
"253 384 OFFCURVE",
"262 391 CURVE SMOOTH",
"319 434 OFFCURVE",
"394 478 OFFCURVE",
"467 482 CURVE SMOOTH",
"482 483 OFFCURVE",
"486 464 OFFCURVE",
"486 452 CURVE SMOOTH",
"486 438 OFFCURVE",
"483 418 OFFCURVE",
"476 408 CURVE",
"476 404 LINE",
"477 404 LINE",
"478 402 LINE",
"485 404 OFFCURVE",
"487 409 OFFCURVE",
"488 414 CURVE",
"489 414 LINE SMOOTH",
"496 414 OFFCURVE",
"495 419 OFFCURVE",
"497 424 CURVE SMOOTH",
"505 442 OFFCURVE",
"518 458 OFFCURVE",
"518 478 CURVE SMOOTH",
"518 508 OFFCURVE",
"491 506 OFFCURVE",
"472 509 CURVE SMOOTH",
"451 514 OFFCURVE",
"348 497 OFFCURVE",
"301 469 CURVE SMOOTH",
"243 435 LINE SMOOTH",
"208 415 OFFCURVE",
"173 391 OFFCURVE",
"144 362 CURVE SMOOTH",
"137 355 OFFCURVE",
"132 347 OFFCURVE",
"125 340 CURVE SMOOTH",
"85 297 OFFCURVE",
"48 270 OFFCURVE",
"28 209 CURVE",
"28 206 OFFCURVE",
"29 204 OFFCURVE",
"29 201 CURVE",
"11 199 OFFCURVE",
"13 183 OFFCURVE",
"4 172 CURVE",
"5 167 LINE",
"-1 159 OFFCURVE",
"-5 123 OFFCURVE",
"-5 115 CURVE SMOOTH",
"-1 73 OFFCURVE",
"66 22 OFFCURVE",
"110 22 CURVE SMOOTH",
"148 22 OFFCURVE",
"177 38 OFFCURVE",
"210 55 CURVE SMOOTH",
"287 95 OFFCURVE",
"347 152 OFFCURVE",
"411 211 CURVE",
"407 213 LINE",
"407 212 LINE",
"408 210 LINE",
"409 206 LINE",
"400 168 OFFCURVE",
"393 130 OFFCURVE",
"379 94 CURVE",
"381 93 LINE",
"380 93 LINE",
"380 92 OFFCURVE",
"377 84 OFFCURVE",
"374 75 CURVE SMOOTH",
"367 53 LINE SMOOTH",
"339 -36 OFFCURVE",
"293 -123 OFFCURVE",
"203 -169 CURVE SMOOTH",
"191 -176 OFFCURVE",
"177 -178 OFFCURVE",
"161 -178 CURVE SMOOTH",
"123 -178 OFFCURVE",
"82 -121 OFFCURVE",
"80 -91 CURVE SMOOTH",
"80 -87 OFFCURVE",
"80 -83 OFFCURVE",
"83 -78 CURVE",
"82 -74 OFFCURVE",
"79 -73 OFFCURVE",
"74 -73 CURVE",
"64 -81 OFFCURVE",
"56 -103 OFFCURVE",
"58 -118 CURVE SMOOTH",
"62 -173 OFFCURVE",
"107 -195 OFFCURVE",
"164 -195 CURVE SMOOTH"
);
}
);
width = 483;
}
);
note = G;
unicode = 0047;
},
{
color = 9;
glyphname = H;
lastChange = "2021-10-28 23:18:39 +0000";
layers = (
{
anchors = (
{
name = bottom;
position = "{325, 0}";
},
{
name = center;
position = "{325, 250}";
},
{
name = top;
position = "{592, 500}";
},
{
name = topleft;
position = "{20, 500}";
}
);
layerId = "F9847816-3BA7-404E-BAEF-52D5126F5321";
paths = (
{
closed = 1;
nodes = (
"234 -30 LINE",
"233 -28 LINE",
"214 -7 OFFCURVE",
"206 12 OFFCURVE",
"206 40 CURVE SMOOTH",
"206 49 OFFCURVE",
"209 57 OFFCURVE",
"209 65 CURVE SMOOTH",
"209 67 OFFCURVE",
"208 68 OFFCURVE",
"208 70 CURVE",
"212 71 OFFCURVE",
"220 113 OFFCURVE",
"222 120 CURVE SMOOTH",
"227 137 OFFCURVE",
"245 199 OFFCURVE",
"256 209 CURVE SMOOTH",
"267 221 OFFCURVE",
"339 226 OFFCURVE",
"359 229 CURVE SMOOTH",
"393 234 OFFCURVE",
"427 244 OFFCURVE",
"461 249 CURVE SMOOTH",
"485 252 OFFCURVE",
"509 254 OFFCURVE",
"532 257 CURVE",
"533 255 LINE",
"534 255 LINE",
"534 253 LINE",
"509 204 OFFCURVE",
"476 130 OFFCURVE",
"476 76 CURVE SMOOTH",
"476 51 OFFCURVE",
"483 28 OFFCURVE",
"506 13 CURVE SMOOTH",
"515 7 OFFCURVE",
"526 0 OFFCURVE",
"537 0 CURVE SMOOTH",
"572 0 OFFCURVE",
"568 40 OFFCURVE",
"587 58 CURVE",
"584 62 LINE",
"573 48 OFFCURVE",
"545 14 OFFCURVE",
"527 14 CURVE SMOOTH",
"508 14 OFFCURVE",
"507 51 OFFCURVE",
"507 63 CURVE SMOOTH",
"507 106 OFFCURVE",
"528 195 OFFCURVE",
"553 228 CURVE SMOOTH",
"564 244 OFFCURVE",
"592 248 OFFCURVE",
"610 248 CURVE SMOOTH",
"630 248 OFFCURVE",
"675 241 OFFCURVE",
"675 213 CURVE SMOOTH",
"675 205 OFFCURVE",
"671 197 OFFCURVE",
"665 191 CURVE",
"670 181 LINE",
"680 181 OFFCURVE",
"688 196 OFFCURVE",
"688 205 CURVE SMOOTH",
"688 209 OFFCURVE",
"687 213 OFFCURVE",
"686 217 CURVE SMOOTH",
"670 258 OFFCURVE",
"618 269 OFFCURVE",
"579 272 CURVE",
"579 274 LINE",
"578 274 LINE",
"577 276 LINE",
"580 277 OFFCURVE",
"580 279 OFFCURVE",
"581 281 CURVE SMOOTH",
"604 333 OFFCURVE",
"640 383 OFFCURVE",
"677 427 CURVE",
"678 427 LINE",
"678 428 OFFCURVE",
"676 431 OFFCURVE",
"676 431 CURVE",
"676 434 OFFCURVE",
"684 437 OFFCURVE",
"686 442 CURVE",
"687 442 LINE",
"687 443 LINE",
"699 443 OFFCURVE",
"703 453 OFFCURVE",
"712 458 CURVE SMOOTH",
"720 461 OFFCURVE",
"727 465 OFFCURVE",
"734 468 CURVE",
"732 480 OFFCURVE",
"711 490 OFFCURVE",
"700 490 CURVE SMOOTH",
"697 490 OFFCURVE",
"694 490 OFFCURVE",
"692 489 CURVE SMOOTH",
"660 478 OFFCURVE",
"566 315 OFFCURVE",
"544 277 CURVE",
"536 270 OFFCURVE",
"486 270 OFFCURVE",
"473 268 CURVE",
"467 268 OFFCURVE",
"461 266 OFFCURVE",
"455 265 CURVE SMOOTH",
"420 260 OFFCURVE",
"384 258 OFFCURVE",
"350 253 CURVE SMOOTH",
"323 250 OFFCURVE",
"296 243 OFFCURVE",
"269 241 CURVE",
"269 252 OFFCURVE",
"340 358 OFFCURVE",
"351 368 CURVE SMOOTH",
"358 374 OFFCURVE",
"366 380 OFFCURVE",
"374 387 CURVE SMOOTH",
"386 397 OFFCURVE",
"394 412 OFFCURVE",
"410 419 CURVE",
"409 412 LINE",
"412 412 LINE SMOOTH",
"414 412 OFFCURVE",
"435 435 OFFCURVE",
"438 438 CURVE SMOOTH",
"449 448 OFFCURVE",
"473 467 OFFCURVE",
"473 483 CURVE SMOOTH",
"473 494 OFFCURVE",
"461 499 OFFCURVE",
"452 502 CURVE",
"429 494 OFFCURVE",
"413 474 OFFCURVE",
"396 458 CURVE SMOOTH",
"347 410 OFFCURVE",
"308 354 OFFCURVE",
"270 296 CURVE SMOOTH",
"256 275 OFFCURVE",
"248 252 OFFCURVE",
"231 233 CURVE",
"206 229 OFFCURVE",
"182 224 OFFCURVE",
"157 221 CURVE SMOOTH",
"145 219 OFFCURVE",
"134 216 OFFCURVE",
"122 215 CURVE",
"122 214 LINE",
"98 212 OFFCURVE",
"75 208 OFFCURVE",
"51 208 CURVE SMOOTH",
"43 208 OFFCURVE",
"23 209 OFFCURVE",
"23 220 CURVE SMOOTH",
"23 255 OFFCURVE",
"131 286 OFFCURVE",
"158 295 CURVE SMOOTH",
"180 303 OFFCURVE",
"199 310 OFFCURVE",
"222 311 CURVE",
"222 312 LINE",
"223 312 LINE",
"223 315 LINE",
"222 316 LINE",
"217 316 OFFCURVE",
"212 317 OFFCURVE",
"207 317 CURVE SMOOTH",
"205 317 OFFCURVE",
"202 317 OFFCURVE",
"200 316 CURVE",
"192 316 OFFCURVE",
"183 317 OFFCURVE",
"176 314 CURVE",
"167 314 OFFCURVE",
"157 316 OFFCURVE",
"148 312 CURVE",
"137 312 OFFCURVE",
"123 309 OFFCURVE",
"114 303 CURVE",
"90 303 OFFCURVE",
"39 276 OFFCURVE",
"18 262 CURVE",
"19 257 OFFCURVE",
"14 256 OFFCURVE",
"10 256 CURVE",
"10 249 OFFCURVE",
"3 245 OFFCURVE",
"3 236 CURVE SMOOTH",
"3 231 LINE",
"13 192 OFFCURVE",
"56 186 OFFCURVE",
"90 186 CURVE SMOOTH",
"134 186 OFFCURVE",
"176 196 OFFCURVE",
"219 203 CURVE",
"200 158 OFFCURVE",
"180 108 OFFCURVE",
"180 59 CURVE SMOOTH",
"180 35 OFFCURVE",
"186 12 OFFCURVE",
"201 -7 CURVE SMOOTH",
"208 -16 OFFCURVE",
"219 -30 OFFCURVE",
"231 -30 CURVE SMOOTH"
);
}
);
width = 650;
},
{
anchors = (
{
name = bottom;
position = "{355, 0}";
},
{
name = center;
position = "{355, 250}";
},
{
name = top;
position = "{600, 500}";
},
{
name = topleft;
position = "{20, 500}";
}
);
layerId = "A97A914C-B88D-4C15-9174-D82F9495701A";
paths = (
{
closed = 1;
nodes = (
"267 -32 LINE",
"270 -31 OFFCURVE",
"277 -30 OFFCURVE",
"277 -27 CURVE",
"277 -27 OFFCURVE",
"277 -25 OFFCURVE",
"275 -24 CURVE SMOOTH",
"272 -22 LINE",
"253 -4 OFFCURVE",
"243 15 OFFCURVE",
"240 42 CURVE SMOOTH",
"240 49 OFFCURVE",
"241 55 OFFCURVE",
"241 62 CURVE SMOOTH",
"241 65 OFFCURVE",
"241 68 OFFCURVE",
"240 71 CURVE",
"242 76 OFFCURVE",
"245 84 OFFCURVE",
"247 94 CURVE SMOOTH",
"249 105 OFFCURVE",
"251 117 OFFCURVE",
"251 121 CURVE",
"255 139 OFFCURVE",
"269 199 OFFCURVE",
"280 209 CURVE SMOOTH",
"287 215 OFFCURVE",
"461 243 OFFCURVE",
"484 246 CURVE SMOOTH",
"509 249 OFFCURVE",
"510 252 OFFCURVE",
"533 254 CURVE",
"533 253 LINE",
"535 253 LINE",
"513 206 OFFCURVE",
"486 136 OFFCURVE",
"486 83 CURVE SMOOTH",
"486 54 OFFCURVE",
"496 40 OFFCURVE",
"510 31 CURVE SMOOTH",
"523 22 OFFCURVE",
"537 18 OFFCURVE",
"550 11 CURVE SMOOTH",
"561 4 OFFCURVE",
"574 -3 OFFCURVE",
"587 -3 CURVE SMOOTH",
"608 -3 OFFCURVE",
"616 8 OFFCURVE",
"621 21 CURVE SMOOTH",
"627 35 OFFCURVE",
"628 47 OFFCURVE",
"640 58 CURVE",
"633 66 LINE",
"620 51 OFFCURVE",
"594 16 OFFCURVE",
"574 16 CURVE SMOOTH",
"555 16 OFFCURVE",
"552 51 OFFCURVE",
"551 63 CURVE SMOOTH",
"548 106 OFFCURVE",
"563 194 OFFCURVE",
"587 227 CURVE SMOOTH",
"597 241 OFFCURVE",
"626 245 OFFCURVE",
"645 245 CURVE SMOOTH",
"670 245 OFFCURVE",
"717 238 OFFCURVE",
"717 211 CURVE SMOOTH",
"717 205 OFFCURVE",
"713 198 OFFCURVE",
"708 191 CURVE",
"716 179 LINE",
"729 179 OFFCURVE",
"737 194 OFFCURVE",
"737 203 CURVE SMOOTH",
"737 209 OFFCURVE",
"735 213 OFFCURVE",
"733 219 CURVE",
"712 260 OFFCURVE",
"654 272 OFFCURVE",
"612 275 CURVE",
"612 277 LINE",
"613 277 OFFCURVE",
"613 278 OFFCURVE",
"613 279 CURVE SMOOTH",
"613 280 LINE",
"634 332 OFFCURVE",
"668 381 OFFCURVE",
"705 425 CURVE",
"709 425 LINE",
"706 431 LINE",
"705 431 LINE",
"705 432 OFFCURVE",
"705 431 OFFCURVE",
"706 432 CURVE SMOOTH",
"708 434 LINE",
"711 435 OFFCURVE",
"713 437 OFFCURVE",
"714 439 CURVE",
"717 439 LINE",
"717 441 LINE",
"729 442 OFFCURVE",
"732 451 OFFCURVE",
"741 456 CURVE SMOOTH",
"749 459 OFFCURVE",
"756 462 OFFCURVE",
"766 467 CURVE",
"762 482 OFFCURVE",
"736 493 OFFCURVE",
"724 493 CURVE SMOOTH",
"720 493 OFFCURVE",
"712 489 OFFCURVE",
"708 487 CURVE",
"673 476 OFFCURVE",
"566 317 OFFCURVE",
"544 279 CURVE",
"536 273 OFFCURVE",
"505 273 OFFCURVE",
"494 271 CURVE SMOOTH",
"474 268 LINE SMOOTH",
"437 262 OFFCURVE",
"398 260 OFFCURVE",
"361 256 CURVE SMOOTH",
"332 252 OFFCURVE",
"320 248 OFFCURVE",
"293 245 CURVE",
"301 265 OFFCURVE",
"377 366 OFFCURVE",
"387 375 CURVE SMOOTH",
"395 381 OFFCURVE",
"403 387 OFFCURVE",
"411 394 CURVE SMOOTH",
"422 403 OFFCURVE",
"430 417 OFFCURVE",
"443 424 CURVE",
"443 418 LINE",
"448 418 LINE SMOOTH",
"452 418 OFFCURVE",
"473 441 OFFCURVE",
"477 445 CURVE SMOOTH",
"484 452 OFFCURVE",
"490 460 OFFCURVE",
"490 469 CURVE SMOOTH",
"490 474 OFFCURVE",
"489 479 OFFCURVE",
"485 484 CURVE SMOOTH",
"478 495 OFFCURVE",
"463 502 OFFCURVE",
"452 505 CURVE",
"427 497 OFFCURVE",
"412 478 OFFCURVE",
"393 460 CURVE SMOOTH",
"343 411 OFFCURVE",
"305 355 OFFCURVE",
"269 298 CURVE SMOOTH",
"256 277 OFFCURVE",
"248 254 OFFCURVE",
"232 235 CURVE",
"153 223 LINE SMOOTH",
"114 217 OFFCURVE",
"108 216 OFFCURVE",
"69 216 CURVE SMOOTH",
"61 216 OFFCURVE",
"39 216 OFFCURVE",
"39 227 CURVE SMOOTH",
"39 261 OFFCURVE",
"126 286 OFFCURVE",
"149 293 CURVE SMOOTH",
"174 301 OFFCURVE",
"193 308 OFFCURVE",
"219 309 CURVE",
"219 310 LINE",
"220 310 LINE",
"220 316 LINE",
"217 319 LINE",
"211 319 OFFCURVE",
"205 320 OFFCURVE",
"200 320 CURVE SMOOTH",
"197 320 OFFCURVE",
"195 320 OFFCURVE",
"192 319 CURVE",
"183 319 OFFCURVE",
"174 319 OFFCURVE",
"166 316 CURVE",
"155 316 OFFCURVE",
"145 318 OFFCURVE",
"135 315 CURVE",
"123 315 OFFCURVE",
"108 311 OFFCURVE",
"99 305 CURVE",
"72 305 OFFCURVE",
"18 278 OFFCURVE",
"-4 264 CURVE",
"-4 259 OFFCURVE",
"-7 258 OFFCURVE",
"-13 258 CURVE",
"-12 253 OFFCURVE",
"-13 252 OFFCURVE",
"-15 248 CURVE SMOOTH",
"-18 244 OFFCURVE",
"-19 240 OFFCURVE",
"-19 237 CURVE SMOOTH",
"-19 235 OFFCURVE",
"-19 233 OFFCURVE",
"-18 231 CURVE SMOOTH",
"-3 190 OFFCURVE",
"46 183 OFFCURVE",
"83 183 CURVE SMOOTH",
"129 183 OFFCURVE",
"174 193 OFFCURVE",
"219 200 CURVE",
"203 160 OFFCURVE",
"183 122 OFFCURVE",
"183 79 CURVE SMOOTH",
"183 56 OFFCURVE",
"186 13 OFFCURVE",
"208 -10 CURVE SMOOTH",
"215 -18 OFFCURVE",
"230 -34 OFFCURVE",
"244 -33 CURVE SMOOTH"
);
}
);
width = 710;
}
);
note = H;
unicode = 0048;
},
{
color = 9;
glyphname = I;
lastChange = "2021-10-28 23:18:39 +0000";
layers = (
{
anchors = (
{
name = bottom;
position = "{187, -34}";
},
{
name = ogonek;
position = "{209, -24}";
},
{
name = top;
position = "{408, 459}";
},
{
name = topleft;
position = "{20, 500}";
}
);
layerId = "F9847816-3BA7-404E-BAEF-52D5126F5321";
paths = (
{
closed = 1;
nodes = (
"222 -44 OFFCURVE",
"224 -43 OFFCURVE",
"227 -43 CURVE",
"227 -33 OFFCURVE",
"203 -34 OFFCURVE",
"203 -21 CURVE SMOOTH",
"203 14 OFFCURVE",
"326 19 OFFCURVE",
"349 19 CURVE SMOOTH",
"361 19 OFFCURVE",
"373 19 OFFCURVE",
"385 17 CURVE",
"385 28 OFFCURVE",
"334 30 OFFCURVE",
"326 30 CURVE SMOOTH",
"321 30 OFFCURVE",
"316 30 OFFCURVE",
"311 29 CURVE SMOOTH",
"287 26 OFFCURVE",
"261 27 OFFCURVE",
"236 26 CURVE SMOOTH",
"229 26 OFFCURVE",
"221 24 OFFCURVE",
"214 24 CURVE SMOOTH",
"202 24 OFFCURVE",
"196 26 OFFCURVE",
"196 39 CURVE SMOOTH",
"196 43 LINE SMOOTH",
"196 134 OFFCURVE",
"269 229 OFFCURVE",
"321 301 CURVE SMOOTH",
"343 331 OFFCURVE",
"363 365 OFFCURVE",
"397 381 CURVE SMOOTH",
"444 404 OFFCURVE",
"502 396 OFFCURVE",
"548 420 CURVE",
"543 423 LINE",
"525 423 OFFCURVE",
"508 425 OFFCURVE",
"490 425 CURVE SMOOTH",
"482 425 OFFCURVE",
"462 422 OFFCURVE",
"459 422 CURVE SMOOTH",
"444 422 OFFCURVE",
"430 424 OFFCURVE",
"416 423 CURVE",
"419 428 OFFCURVE",
"427 437 OFFCURVE",
"427 442 CURVE SMOOTH",
"427 452 OFFCURVE",
"408 459 OFFCURVE",
"400 462 CURVE",
"389 454 OFFCURVE",
"376 448 OFFCURVE",
"376 432 CURVE SMOOTH",
"376 423 OFFCURVE",
"372 422 OFFCURVE",
"363 417 CURVE",
"336 417 OFFCURVE",
"326 417 OFFCURVE",
"299 413 CURVE SMOOTH",
"291 411 OFFCURVE",
"281 411 OFFCURVE",
"272 411 CURVE SMOOTH",
"265 411 LINE",
"265 414 LINE",
"276 417 LINE",
"276 420 LINE",
"274 420 LINE",
"272 422 OFFCURVE",
"269 422 OFFCURVE",
"266 422 CURVE SMOOTH",
"260 422 OFFCURVE",
"253 421 OFFCURVE",
"247 420 CURVE",
"236 420 OFFCURVE",
"202 422 OFFCURVE",
"202 405 CURVE SMOOTH",
"202 397 OFFCURVE",
"216 378 OFFCURVE",
"224 379 CURVE SMOOTH",
"354 391 LINE",
"287 287 OFFCURVE",
"192 182 OFFCURVE",
"173 57 CURVE SMOOTH",
"172 48 OFFCURVE",
"174 20 OFFCURVE",
"162 18 CURVE SMOOTH",
"118 9 LINE",
"101 12 LINE",
"100 7 OFFCURVE",
"38 -8 OFFCURVE",
"27 -11 CURVE SMOOTH",
"15 -14 OFFCURVE",
"9 -13 OFFCURVE",
"-3 -19 CURVE SMOOTH",
"-5 -20 LINE",
"-4 -20 OFFCURVE",
"-5 -19 OFFCURVE",
"-5 -19 CURVE",
"-6 -19 OFFCURVE",
"-8 -20 OFFCURVE",
"-8 -20 CURVE",
"-16 -20 LINE",
"-16 -22 LINE",
"-17 -23 LINE",
"-16 -34 OFFCURVE",
"-8 -43 OFFCURVE",
"3 -43 CURVE SMOOTH",
"22 -43 OFFCURVE",
"40 -33 OFFCURVE",
"58 -27 CURVE SMOOTH",
"95 -15 OFFCURVE",
"134 -9 OFFCURVE",
"172 1 CURVE",
"172 -18 OFFCURVE",
"200 -44 OFFCURVE",
"219 -44 CURVE SMOOTH"
);
}
);
width = 351;
},
{
anchors = (
{
name = bottom;
position = "{192, -32}";
},
{
name = ogonek;
position = "{315, -27}";
},
{
name = top;
position = "{410, 462}";
},
{
name = topleft;
position = "{20, 500}";
}
);
layerId = "A97A914C-B88D-4C15-9174-D82F9495701A";
paths = (
{
closed = 1;
nodes = (
"31 -61 OFFCURVE",
"49 -51 OFFCURVE",
"69 -44 CURVE SMOOTH",
"108 -33 OFFCURVE",
"149 -27 OFFCURVE",
"188 -17 CURVE",
"192 -37 OFFCURVE",
"225 -61 OFFCURVE",
"246 -61 CURVE SMOOTH",
"250 -61 LINE",
"252 -60 OFFCURVE",
"253 -60 OFFCURVE",
"257 -61 CURVE",
"256 -52 OFFCURVE",
"252 -49 OFFCURVE",
"246 -44 CURVE SMOOTH",
"241 -40 LINE SMOOTH",
"233 -34 OFFCURVE",
"227 -28 OFFCURVE",
"227 -23 CURVE SMOOTH",
"227 10 OFFCURVE",
"355 17 OFFCURVE",
"380 17 CURVE SMOOTH",
"393 17 OFFCURVE",
"406 17 OFFCURVE",
"422 14 CURVE",
"420 29 OFFCURVE",
"373 38 OFFCURVE",
"364 38 CURVE SMOOTH",
"358 38 OFFCURVE",
"353 37 OFFCURVE",
"348 36 CURVE SMOOTH",
"321 33 OFFCURVE",
"293 35 OFFCURVE",
"266 33 CURVE SMOOTH",
"264 33 OFFCURVE",
"261 33 OFFCURVE",
"258 32 CURVE",
"250 31 OFFCURVE",
"239 27 OFFCURVE",
"231 27 CURVE SMOOTH",
"215 27 OFFCURVE",
"213 28 OFFCURVE",
"213 50 CURVE SMOOTH",
"213 138 OFFCURVE",
"280 231 OFFCURVE",
"328 300 CURVE SMOOTH",
"333 307 OFFCURVE",
"338 315 OFFCURVE",
"344 323 CURVE SMOOTH",
"373 364 OFFCURVE",
"393 381 OFFCURVE",
"442 391 CURVE SMOOTH",
"486 400 OFFCURVE",
"527 399 OFFCURVE",
"568 420 CURVE",
"559 426 LINE",
"539 426 OFFCURVE",
"520 428 OFFCURVE",
"500 428 CURVE SMOOTH",
"491 428 OFFCURVE",
"470 424 OFFCURVE",
"466 424 CURVE SMOOTH",
"452 425 OFFCURVE",
"438 426 OFFCURVE",
"424 426 CURVE",
"427 430 OFFCURVE",
"432 437 OFFCURVE",
"432 442 CURVE SMOOTH",
"431 455 OFFCURVE",
"394 464 OFFCURVE",
"385 467 CURVE",
"379 463 OFFCURVE",
"372 459 OFFCURVE",
"367 454 CURVE SMOOTH",
"359 447 OFFCURVE",
"358 440 OFFCURVE",
"358 435 CURVE SMOOTH",
"358 432 LINE SMOOTH",
"358 430 OFFCURVE",
"358 428 OFFCURVE",
"357 427 CURVE SMOOTH",
"355 425 OFFCURVE",
"350 424 OFFCURVE",
"348 422 CURVE",
"334 423 OFFCURVE",
"328 423 OFFCURVE",
"322 422 CURVE SMOOTH",
"316 422 OFFCURVE",
"311 421 OFFCURVE",
"296 418 CURVE SMOOTH",
"287 417 OFFCURVE",
"273 422 OFFCURVE",
"263 422 CURVE",
"270 424 LINE",
"269 432 LINE",
"266 432 LINE",
"263 433 OFFCURVE",
"259 433 OFFCURVE",
"256 433 CURVE SMOOTH",
"249 433 OFFCURVE",
"242 432 OFFCURVE",
"235 431 CURVE SMOOTH",
"223 431 OFFCURVE",
"183 423 OFFCURVE",
"184 405 CURVE SMOOTH",
"185 397 OFFCURVE",
"185 374 OFFCURVE",
"197 375 CURVE SMOOTH",
"320 387 LINE",
"257 286 OFFCURVE",
"176 181 OFFCURVE",
"166 55 CURVE SMOOTH",
"165 48 OFFCURVE",
"169 21 OFFCURVE",
"159 19 CURVE SMOOTH",
"148 17 OFFCURVE",
"138 14 OFFCURVE",
"128 12 CURVE",
"107 15 LINE",
"107 7 OFFCURVE",
"41 -6 OFFCURVE",
"30 -8 CURVE SMOOTH",
"17 -11 OFFCURVE",
"11 -12 OFFCURVE",
"-3 -16 CURVE",
"-4 -16 LINE SMOOTH",
"-5 -16 OFFCURVE",
"-7 -17 OFFCURVE",
"-8 -18 CURVE",
"-18 -18 LINE",
"-18 -21 LINE",
"-19 -23 LINE",
"-17 -34 OFFCURVE",
"-5 -61 OFFCURVE",
"9 -61 CURVE SMOOTH"
);
}
);
width = 383;
}
);
note = I;
unicode = 0049;
},
{
color = 9;
glyphname = J;
lastChange = "2021-10-28 23:18:39 +0000";
layers = (
{
anchors = (
{
name = bottom;
position = "{208, 0}";
},
{
name = top;
position = "{398, 433}";
}
);
layerId = "F9847816-3BA7-404E-BAEF-52D5126F5321";
paths = (
{
closed = 1;
nodes = (
"97 -213 OFFCURVE",
"152 -174 OFFCURVE",
"183 -143 CURVE SMOOTH",
"190 -136 OFFCURVE",
"195 -125 OFFCURVE",
"203 -120 CURVE",
"204 -117 LINE",
"219 -98 OFFCURVE",
"235 -80 OFFCURVE",
"250 -60 CURVE SMOOTH",
"253 -56 OFFCURVE",
"297 9 OFFCURVE",
"298 12 CURVE SMOOTH",
"301 18 OFFCURVE",
"303 24 OFFCURVE",
"306 30 CURVE SMOOTH",
"311 41 OFFCURVE",
"319 51 OFFCURVE",
"324 61 CURVE SMOOTH",
"337 82 OFFCURVE",
"350 103 OFFCURVE",
"361 124 CURVE SMOOTH",
"376 152 OFFCURVE",
"389 181 OFFCURVE",
"398 210 CURVE SMOOTH",
"404 229 OFFCURVE",
"409 247 OFFCURVE",
"415 265 CURVE",
"425 278 OFFCURVE",
"464 284 OFFCURVE",
"479 284 CURVE SMOOTH",
"486 284 OFFCURVE",
"495 283 OFFCURVE",
"501 279 CURVE",
"505 279 LINE",
"505 281 LINE",
"506 281 LINE",
"505 285 LINE SMOOTH",
"503 292 OFFCURVE",
"430 300 OFFCURVE",
"419 300 CURVE",
"419 301 LINE",
"418 301 LINE",
"422 319 OFFCURVE",
"425 336 OFFCURVE",
"425 354 CURVE SMOOTH",
"425 366 OFFCURVE",
"422 396 OFFCURVE",
"408 401 CURVE SMOOTH",
"396 405 OFFCURVE",
"385 409 OFFCURVE",
"373 414 CURVE",
"372 414 LINE",
"372 415 LINE",
"391 415 OFFCURVE",
"410 413 OFFCURVE",
"429 413 CURVE SMOOTH",
"451 413 OFFCURVE",
"470 418 OFFCURVE",
"491 420 CURVE SMOOTH",
"510 422 OFFCURVE",
"530 421 OFFCURVE",
"548 428 CURVE",
"551 430 OFFCURVE",
"565 436 OFFCURVE",
"565 440 CURVE SMOOTH",
"565 441 OFFCURVE",
"565 441 OFFCURVE",
"564 442 CURVE",
"548 437 OFFCURVE",
"532 436 OFFCURVE",
"516 435 CURVE",
"516 435 OFFCURVE",
"516 434 OFFCURVE",
"515 434 CURVE SMOOTH",
"501 434 OFFCURVE",
"487 433 OFFCURVE",
"472 433 CURVE SMOOTH",
"425 433 OFFCURVE",
"377 433 OFFCURVE",
"330 434 CURVE SMOOTH",
"309 435 OFFCURVE",
"289 439 OFFCURVE",
"268 439 CURVE SMOOTH",
"255 439 OFFCURVE",
"237 438 OFFCURVE",
"237 420 CURVE SMOOTH",
"237 403 OFFCURVE",
"253 402 OFFCURVE",
"266 402 CURVE SMOOTH",
"293 402 OFFCURVE",
"320 409 OFFCURVE",
"346 409 CURVE SMOOTH",
"354 409 OFFCURVE",
"362 409 OFFCURVE",
"368 405 CURVE SMOOTH",
"385 393 OFFCURVE",
"388 352 OFFCURVE",
"388 333 CURVE SMOOTH",
"388 319 OFFCURVE",
"387 305 OFFCURVE",
"383 292 CURVE",
"369 291 OFFCURVE",
"356 284 OFFCURVE",
"343 281 CURVE SMOOTH",
"267 262 OFFCURVE",
"191 216 OFFCURVE",
"136 160 CURVE",
"133 161 OFFCURVE",
"129 156 OFFCURVE",
"127 154 CURVE SMOOTH",
"100 126 OFFCURVE",
"72 97 OFFCURVE",
"50 64 CURVE SMOOTH",
"37 44 OFFCURVE",
"28 22 OFFCURVE",
"13 4 CURVE",
"14 2 OFFCURVE",
"8 -12 OFFCURVE",
"7 -15 CURVE SMOOTH",
"-6 -51 OFFCURVE",
"-23 -91 OFFCURVE",
"-23 -129 CURVE SMOOTH",
"-23 -173 OFFCURVE",
"6 -213 OFFCURVE",
"52 -213 CURVE SMOOTH"
);
},
{
closed = 1;
nodes = (
"14 -201 OFFCURVE",
"1 -179 OFFCURVE",
"1 -137 CURVE SMOOTH",
"1 -105 OFFCURVE",
"12 -73 OFFCURVE",
"25 -44 CURVE SMOOTH",
"29 -37 OFFCURVE",
"34 -29 OFFCURVE",
"37 -21 CURVE SMOOTH",
"60 35 OFFCURVE",
"89 70 OFFCURVE",
"127 117 CURVE",
"132 122 OFFCURVE",
"135 129 OFFCURVE",
"140 134 CURVE SMOOTH",
"156 152 OFFCURVE",
"184 171 OFFCURVE",
"203 186 CURVE SMOOTH",
"231 209 OFFCURVE",
"259 232 OFFCURVE",
"292 246 CURVE SMOOTH",
"319 259 OFFCURVE",
"349 267 OFFCURVE",
"377 277 CURVE",
"379 274 OFFCURVE",
"380 270 OFFCURVE",
"380 267 CURVE SMOOTH",
"380 256 OFFCURVE",
"375 246 OFFCURVE",
"372 236 CURVE",
"373 235 LINE",
"370 232 LINE",
"371 232 OFFCURVE",
"371 232 OFFCURVE",
"371 231 CURVE SMOOTH",
"371 230 OFFCURVE",
"371 229 OFFCURVE",
"370 228 CURVE",
"355 179 LINE SMOOTH",
"352 168 OFFCURVE",
"341 150 OFFCURVE",
"342 139 CURVE",
"338 137 OFFCURVE",
"322 101 OFFCURVE",
"318 94 CURVE SMOOTH",
"275 16 OFFCURVE",
"230 -61 OFFCURVE",
"167 -125 CURVE SMOOTH",
"155 -137 OFFCURVE",
"144 -151 OFFCURVE",
"130 -162 CURVE SMOOTH",
"108 -180 OFFCURVE",
"85 -191 OFFCURVE",
"58 -201 CURVE"
);
}
);
width = 415;
},
{
anchors = (
{
name = bottom;
position = "{227, 0}";
},
{
name = top;
position = "{399, 439}";
}
);
layerId = "A97A914C-B88D-4C15-9174-D82F9495701A";
paths = (
{
closed = 1;
nodes = (
"125 -215 OFFCURVE",
"182 -176 OFFCURVE",
"214 -145 CURVE SMOOTH",
"221 -138 OFFCURVE",
"241 -121 OFFCURVE",
"251 -115 CURVE",
"252 -112 LINE",
"264 -96 OFFCURVE",
"280 -85 OFFCURVE",
"293 -69 CURVE",
"294 -66 OFFCURVE",
"309 -48 OFFCURVE",
"324 -29 CURVE SMOOTH",
"338 -11 OFFCURVE",
"353 7 OFFCURVE",
"354 9 CURVE SMOOTH",
"356 15 OFFCURVE",
"358 22 OFFCURVE",
"361 28 CURVE SMOOTH",
"366 38 OFFCURVE",
"373 48 OFFCURVE",
"378 58 CURVE SMOOTH",
"390 79 OFFCURVE",
"402 100 OFFCURVE",
"413 122 CURVE SMOOTH",
"427 148 OFFCURVE",
"431 178 OFFCURVE",
"438 207 CURVE SMOOTH",
"444 227 OFFCURVE",
"455 243 OFFCURVE",
"460 262 CURVE",
"470 274 OFFCURVE",
"484 281 OFFCURVE",
"500 281 CURVE SMOOTH",
"507 281 OFFCURVE",
"516 281 OFFCURVE",
"523 277 CURVE",
"531 277 LINE",
"531 278 LINE",
"533 278 LINE",
"530 286 LINE SMOOTH",
"527 293 OFFCURVE",
"478 300 OFFCURVE",
"462 300 CURVE",
"462 302 LINE",
"461 302 LINE",
"463 310 OFFCURVE",
"463 317 OFFCURVE",
"463 323 CURVE SMOOTH",
"463 330 OFFCURVE",
"463 337 OFFCURVE",
"462 345 CURVE SMOOTH",
"461 359 OFFCURVE",
"427 390 OFFCURVE",
"411 396 CURVE SMOOTH",
"408 397 OFFCURVE",
"373 409 OFFCURVE",
"371 409 CURVE SMOOTH",
"370 409 LINE",
"372 407 LINE",
"370 405 LINE",
"391 405 OFFCURVE",
"412 403 OFFCURVE",
"433 403 CURVE SMOOTH",
"457 403 OFFCURVE",
"478 415 OFFCURVE",
"502 418 CURVE SMOOTH",
"522 420 OFFCURVE",
"544 419 OFFCURVE",
"564 426 CURVE SMOOTH",
"567 427 OFFCURVE",
"583 436 OFFCURVE",
"583 440 CURVE SMOOTH",
"583 441 OFFCURVE",
"583 442 OFFCURVE",
"581 445 CURVE",
"563 439 OFFCURVE",
"545 439 OFFCURVE",
"527 438 CURVE",
"526 437 LINE",
"511 437 OFFCURVE",
"495 435 OFFCURVE",
"480 435 CURVE SMOOTH",
"428 435 OFFCURVE",
"376 436 OFFCURVE",
"324 437 CURVE SMOOTH",
"302 437 OFFCURVE",
"279 441 OFFCURVE",
"257 441 CURVE SMOOTH",
"241 441 OFFCURVE",
"214 434 OFFCURVE",
"214 416 CURVE SMOOTH",
"214 396 OFFCURVE",
"233 389 OFFCURVE",
"248 389 CURVE SMOOTH",
"278 389 OFFCURVE",
"313 399 OFFCURVE",
"343 399 CURVE SMOOTH",
"351 399 OFFCURVE",
"359 399 OFFCURVE",
"366 395 CURVE SMOOTH",
"383 384 OFFCURVE",
"393 352 OFFCURVE",
"394 333 CURVE SMOOTH",
"395 320 OFFCURVE",
"395 306 OFFCURVE",
"392 294 CURVE",
"377 294 OFFCURVE",
"365 292 OFFCURVE",
"352 288 CURVE SMOOTH",
"269 269 OFFCURVE",
"190 219 OFFCURVE",
"134 162 CURVE",
"131 162 OFFCURVE",
"128 160 OFFCURVE",
"126 158 CURVE",
"125 156 LINE",
"98 127 OFFCURVE",
"69 98 OFFCURVE",
"47 65 CURVE SMOOTH",
"34 45 OFFCURVE",
"27 23 OFFCURVE",
"11 4 CURVE",
"13 2 OFFCURVE",
"11 -1 OFFCURVE",
"10 -4 CURVE SMOOTH",
"8 -9 OFFCURVE",
"7 -13 OFFCURVE",
"6 -14 CURVE",
"-4 -48 OFFCURVE",
"-17 -84 OFFCURVE",
"-17 -120 CURVE SMOOTH",
"-17 -169 OFFCURVE",
"19 -215 OFFCURVE",
"75 -215 CURVE SMOOTH"
);
},
{
closed = 1;
nodes = (
"45 -199 OFFCURVE",
"35 -170 OFFCURVE",
"35 -136 CURVE SMOOTH",
"35 -98 OFFCURVE",
"48 -53 OFFCURVE",
"56 -35 CURVE SMOOTH",
"59 -28 OFFCURVE",
"64 -20 OFFCURVE",
"67 -12 CURVE SMOOTH",
"88 44 OFFCURVE",
"116 78 OFFCURVE",
"154 125 CURVE SMOOTH",
"158 130 OFFCURVE",
"162 137 OFFCURVE",
"166 142 CURVE SMOOTH",
"174 151 OFFCURVE",
"185 160 OFFCURVE",
"197 169 CURVE SMOOTH",
"208 178 OFFCURVE",
"221 186 OFFCURVE",
"230 194 CURVE SMOOTH",
"259 217 OFFCURVE",
"287 239 OFFCURVE",
"322 254 CURVE SMOOTH",
"334 259 OFFCURVE",
"374 268 OFFCURVE",
"390 265 CURVE",
"384 233 OFFCURVE",
"379 212 OFFCURVE",
"371 179 CURVE SMOOTH",
"368 167 OFFCURVE",
"358 153 OFFCURVE",
"359 140 CURVE",
"357 137 OFFCURVE",
"353 129 OFFCURVE",
"349 120 CURVE SMOOTH",
"337 95 LINE SMOOTH",
"299 16 OFFCURVE",
"254 -59 OFFCURVE",
"192 -123 CURVE SMOOTH",
"179 -135 OFFCURVE",
"168 -149 OFFCURVE",
"154 -160 CURVE SMOOTH",
"131 -178 OFFCURVE",
"108 -188 OFFCURVE",
"80 -199 CURVE"
);
}
);
width = 453;
}
);
note = J;
unicode = 004A;
},
{
color = 9;
glyphname = K;
lastChange = "2021-11-25 01:18:43 +0000";
layers = (
{
anchors = (
{
name = bottom;
position = "{377, -51}";
},
{
name = top;
position = "{264, 500}";
}
);
layerId = "F9847816-3BA7-404E-BAEF-52D5126F5321";
paths = (
{
closed = 1;
nodes = (
"677 -160 OFFCURVE",
"720 -152 OFFCURVE",
"733 -129 CURVE SMOOTH",
"745 -108 OFFCURVE",
"745 -85 OFFCURVE",
"747 -62 CURVE SMOOTH",
"747 -53 OFFCURVE",
"749 -45 OFFCURVE",
"749 -36 CURVE SMOOTH",
"749 -32 OFFCURVE",
"749 -28 OFFCURVE",
"748 -24 CURVE",
"746 -24 LINE",
"746 -23 LINE",
"745 -23 LINE",
"745 -49 OFFCURVE",
"723 -119 OFFCURVE",
"704 -136 CURVE SMOOTH",
"694 -145 OFFCURVE",
"683 -151 OFFCURVE",
"670 -151 CURVE SMOOTH",
"592 -151 OFFCURVE",
"511 50 OFFCURVE",
"483 113 CURVE SMOOTH",
"471 140 OFFCURVE",
"462 179 OFFCURVE",
"462 208 CURVE SMOOTH",
"462 232 OFFCURVE",
"467 255 OFFCURVE",
"484 273 CURVE SMOOTH",
"558 350 OFFCURVE",
"617 403 OFFCURVE",
"716 445 CURVE SMOOTH",
"731 451 OFFCURVE",
"748 457 OFFCURVE",
"764 457 CURVE SMOOTH",
"790 457 OFFCURVE",
"792 445 OFFCURVE",
"798 424 CURVE",
"799 424 LINE",
"800 423 LINE",
"801 428 OFFCURVE",
"805 431 OFFCURVE",
"805 436 CURVE SMOOTH",
"805 454 OFFCURVE",
"774 470 OFFCURVE",
"757 470 CURVE SMOOTH",
"752 470 OFFCURVE",
"745 469 OFFCURVE",
"739 468 CURVE",
"737 467 OFFCURVE",
"734 467 OFFCURVE",
"732 467 CURVE SMOOTH",
"656 457 OFFCURVE",
"538 352 OFFCURVE",
"482 300 CURVE SMOOTH",
"476 294 OFFCURVE",
"444 264 OFFCURVE",
"442 259 CURVE",
"414 259 OFFCURVE",
"407 247 OFFCURVE",
"388 229 CURVE",
"388 225 LINE",
"402 226 LINE",
"402 223 LINE",
"400 221 LINE",
"389 197 OFFCURVE",
"349 162 OFFCURVE",
"332 139 CURVE SMOOTH",
"308 109 OFFCURVE",
"286 77 OFFCURVE",
"262 47 CURVE",
"262 46 LINE",
"258 46 LINE",
"258 61 OFFCURVE",
"285 96 OFFCURVE",
"294 111 CURVE SMOOTH",
"303 126 OFFCURVE",
"311 142 OFFCURVE",
"320 157 CURVE SMOOTH",
"325 166 OFFCURVE",
"335 176 OFFCURVE",
"336 187 CURVE",
"340 188 LINE",
"377 259 OFFCURVE",
"446 344 OFFCURVE",
"494 410 CURVE SMOOTH",
"508 428 OFFCURVE",
"533 455 OFFCURVE",
"533 479 CURVE SMOOTH",
"533 507 OFFCURVE",
"505 534 OFFCURVE",
"478 540 CURVE SMOOTH",
"470 542 OFFCURVE",
"461 542 OFFCURVE",
"452 542 CURVE SMOOTH",
"444 542 LINE",
"440 541 OFFCURVE",
"436 539 OFFCURVE",
"432 538 CURVE SMOOTH",
"424 536 OFFCURVE",
"414 536 OFFCURVE",
"405 534 CURVE SMOOTH",
"382 528 OFFCURVE",
"361 518 OFFCURVE",
"339 509 CURVE SMOOTH",
"316 500 OFFCURVE",
"292 491 OFFCURVE",
"269 481 CURVE SMOOTH",
"216 456 OFFCURVE",
"13 326 OFFCURVE",
"13 267 CURVE SMOOTH",
"13 241 OFFCURVE",
"44 228 OFFCURVE",
"67 228 CURVE SMOOTH",
"106 228 OFFCURVE",
"161 257 OFFCURVE",
"189 285 CURVE SMOOTH",
"190 286 LINE",
"189 286 LINE",
"189 287 LINE",
"174 287 OFFCURVE",
"159 275 OFFCURVE",
"145 270 CURVE SMOOTH",
"128 263 OFFCURVE",
"75 244 OFFCURVE",
"57 244 CURVE SMOOTH",
"49 244 OFFCURVE",
"42 246 OFFCURVE",
"42 256 CURVE SMOOTH",
"42 259 OFFCURVE",
"43 263 OFFCURVE",
"44 266 CURVE SMOOTH",
"56 306 OFFCURVE",
"137 369 OFFCURVE",
"172 394 CURVE SMOOTH",
"217 427 OFFCURVE",
"265 457 OFFCURVE",
"315 481 CURVE SMOOTH",
"353 499 OFFCURVE",
"432 530 OFFCURVE",
"472 530 CURVE SMOOTH",
"487 530 OFFCURVE",
"500 526 OFFCURVE",
"500 508 CURVE SMOOTH",
"500 482 OFFCURVE",
"448 380 OFFCURVE",
"428 366 CURVE",
"425 356 LINE",
"423 358 OFFCURVE",
"420 352 OFFCURVE",
"419 351 CURVE",
"413 341 OFFCURVE",
"380 293 OFFCURVE",
"379 285 CURVE",
"374 282 LINE",
"373 282 LINE",
"373 281 OFFCURVE",
"374 280 OFFCURVE",
"374 280 CURVE",
"340 228 LINE",
"339 228 OFFCURVE",
"339 227 OFFCURVE",
"339 227 CURVE",
"339 226 OFFCURVE",
"342 224 OFFCURVE",
"342 224 CURVE",
"339 221 LINE",
"336 222 LINE",
"335 215 LINE",
"336 219 OFFCURVE",
"332 213 OFFCURVE",
"330 211 CURVE SMOOTH",
"328 209 OFFCURVE",
"326 205 OFFCURVE",
"324 202 CURVE SMOOTH",
"310 179 LINE SMOOTH",
"293 151 OFFCURVE",
"274 124 OFFCURVE",
"258 96 CURVE SMOOTH",
"239 65 OFFCURVE",
"224 33 OFFCURVE",
"206 2 CURVE",
"206 0 OFFCURVE",
"205 -1 OFFCURVE",
"205 -2 CURVE SMOOTH",
"205 -13 OFFCURVE",
"223 -23 OFFCURVE",
"233 -23 CURVE SMOOTH",
"240 -23 OFFCURVE",
"243 -20 OFFCURVE",
"247 -15 CURVE SMOOTH",
"263 5 OFFCURVE",
"275 30 OFFCURVE",
"290 51 CURVE SMOOTH",
"304 72 OFFCURVE",
"322 90 OFFCURVE",
"338 109 CURVE SMOOTH",
"363 139 OFFCURVE",
"389 169 OFFCURVE",
"416 196 CURVE",
"422 182 OFFCURVE",
"426 167 OFFCURVE",
"431 153 CURVE SMOOTH",
"460 77 OFFCURVE",
"545 -122 OFFCURVE",
"617 -154 CURVE SMOOTH",
"628 -159 OFFCURVE",
"641 -160 OFFCURVE",
"653 -160 CURVE SMOOTH"
);
}
);
width = 528;
},
{
anchors = (
{
name = bottom;
position = "{398, -37}";
},
{
name = top;
position = "{289, 500}";
}
);
layerId = "A97A914C-B88D-4C15-9174-D82F9495701A";
paths = (
{
closed = 1;
nodes = (
"742 -174 OFFCURVE",
"811 -152 OFFCURVE",
"824 -128 CURVE SMOOTH",
"831 -117 OFFCURVE",
"832 -107 OFFCURVE",
"832 -97 CURVE SMOOTH",
"832 -89 OFFCURVE",
"831 -81 OFFCURVE",
"831 -71 CURVE SMOOTH",
"831 -62 OFFCURVE",
"830 -47 OFFCURVE",
"829 -38 CURVE SMOOTH",
"828 -28 OFFCURVE",
"827 -21 OFFCURVE",
"824 -18 CURVE SMOOTH",
"820 -14 OFFCURVE",
"815 -18 OFFCURVE",
"813 -22 CURVE",
"815 -48 OFFCURVE",
"797 -118 OFFCURVE",
"778 -134 CURVE SMOOTH",
"768 -143 OFFCURVE",
"755 -148 OFFCURVE",
"738 -148 CURVE SMOOTH",
"646 -148 OFFCURVE",
"559 44 OFFCURVE",
"523 121 CURVE SMOOTH",
"510 149 OFFCURVE",
"490 189 OFFCURVE",
"490 224 CURVE SMOOTH",
"490 241 OFFCURVE",
"495 257 OFFCURVE",
"508 271 CURVE SMOOTH",
"582 348 OFFCURVE",
"642 401 OFFCURVE",
"746 443 CURVE SMOOTH",
"762 449 OFFCURVE",
"780 455 OFFCURVE",
"797 455 CURVE SMOOTH",
"824 455 OFFCURVE",
"826 444 OFFCURVE",
"834 422 CURVE",
"837 422 LINE",
"841 418 LINE",
"841 424 OFFCURVE",
"842 425 OFFCURVE",
"842 425 CURVE",
"843 428 OFFCURVE",
"845 430 OFFCURVE",
"845 434 CURVE SMOOTH",
"845 436 LINE SMOOTH",
"845 465 OFFCURVE",
"803 482 OFFCURVE",
"785 482 CURVE SMOOTH",
"779 482 OFFCURVE",
"772 481 OFFCURVE",
"766 480 CURVE SMOOTH",
"758 478 LINE",
"701 470 OFFCURVE",
"651 438 OFFCURVE",
"608 403 CURVE SMOOTH",
"565 368 OFFCURVE",
"529 328 OFFCURVE",
"501 302 CURVE SMOOTH",
"494 296 OFFCURVE",
"466 269 OFFCURVE",
"461 261 CURVE",
"430 261 OFFCURVE",
"420 247 OFFCURVE",
"400 228 CURVE",
"401 221 LINE",
"415 222 LINE",
"414 221 LINE",
"404 197 OFFCURVE",
"367 164 OFFCURVE",
"349 141 CURVE SMOOTH",
"326 111 OFFCURVE",
"305 80 OFFCURVE",
"281 49 CURVE",
"283 65 OFFCURVE",
"306 94 OFFCURVE",
"314 110 CURVE SMOOTH",
"338 155 LINE",
"344 164 OFFCURVE",
"353 174 OFFCURVE",
"354 185 CURVE",
"357 186 LINE",
"375 222 OFFCURVE",
"404 261 OFFCURVE",
"435 300 CURVE SMOOTH",
"467 339 OFFCURVE",
"500 377 OFFCURVE",
"524 409 CURVE SMOOTH",
"537 427 OFFCURVE",
"561 454 OFFCURVE",
"561 477 CURVE SMOOTH",
"561 510 OFFCURVE",
"508 536 OFFCURVE",
"478 542 CURVE SMOOTH",
"470 544 OFFCURVE",
"464 544 OFFCURVE",
"457 544 CURVE SMOOTH",
"450 544 LINE",
"443 542 OFFCURVE",
"434 542 OFFCURVE",
"427 541 CURVE SMOOTH",
"418 539 OFFCURVE",
"407 539 OFFCURVE",
"398 536 CURVE SMOOTH",
"373 530 OFFCURVE",
"357 526 OFFCURVE",
"334 517 CURVE SMOOTH",
"310 508 OFFCURVE",
"278 494 OFFCURVE",
"253 483 CURVE SMOOTH",
"199 459 OFFCURVE",
"-10 331 OFFCURVE",
"-10 269 CURVE SMOOTH",
"-10 239 OFFCURVE",
"28 225 OFFCURVE",
"54 225 CURVE SMOOTH",
"98 225 OFFCURVE",
"174 257 OFFCURVE",
"205 282 CURVE SMOOTH",
"211 287 LINE",
"205 287 LINE",
"205 289 LINE",
"185 288 OFFCURVE",
"174 277 OFFCURVE",
"156 271 CURVE SMOOTH",
"138 264 OFFCURVE",
"82 245 OFFCURVE",
"63 245 CURVE SMOOTH",
"53 245 OFFCURVE",
"48 248 OFFCURVE",
"48 257 CURVE SMOOTH",
"48 298 OFFCURVE",
"154 375 OFFCURVE",
"177 391 CURVE SMOOTH",
"224 424 OFFCURVE",
"273 453 OFFCURVE",
"326 478 CURVE SMOOTH",
"366 496 OFFCURVE",
"428 527 OFFCURVE",
"471 527 CURVE SMOOTH",
"488 527 OFFCURVE",
"502 524 OFFCURVE",
"502 507 CURVE SMOOTH",
"502 479 OFFCURVE",
"451 385 OFFCURVE",
"429 371 CURVE",
"427 362 LINE",
"425 361 OFFCURVE",
"425 359 OFFCURVE",
"423 357 CURVE SMOOTH",
"422 356 LINE",
"416 346 OFFCURVE",
"386 302 OFFCURVE",
"383 290 CURVE",
"380 288 LINE",
"377 288 OFFCURVE",
"376 285 OFFCURVE",
"377 283 CURVE",
"345 233 LINE",
"344 233 OFFCURVE",
"344 232 OFFCURVE",
"344 230 CURVE",
"346 228 LINE",
"346 227 LINE",
"341 228 LINE",
"340 222 LINE",
"336 216 LINE SMOOTH",
"329 206 OFFCURVE",
"323 195 OFFCURVE",
"317 184 CURVE SMOOTH",
"300 156 OFFCURVE",
"282 129 OFFCURVE",
"266 100 CURVE SMOOTH",
"249 70 OFFCURVE",
"234 38 OFFCURVE",
"218 6 CURVE",
"217 5 OFFCURVE",
"217 3 OFFCURVE",
"217 1 CURVE SMOOTH",
"218 -12 OFFCURVE",
"245 -26 OFFCURVE",
"256 -26 CURVE SMOOTH",
"265 -26 OFFCURVE",
"269 -22 OFFCURVE",
"273 -17 CURVE SMOOTH",
"289 4 OFFCURVE",
"300 28 OFFCURVE",
"314 50 CURVE SMOOTH",
"329 70 OFFCURVE",
"346 88 OFFCURVE",
"362 108 CURVE SMOOTH",
"386 137 OFFCURVE",
"407 168 OFFCURVE",
"433 195 CURVE",
"437 186 OFFCURVE",
"443 170 OFFCURVE",
"448 153 CURVE SMOOTH",
"455 134 OFFCURVE",
"461 115 OFFCURVE",
"464 108 CURVE SMOOTH",
"492 30 OFFCURVE",
"594 -135 OFFCURVE",
"676 -167 CURVE SMOOTH",
"688 -172 OFFCURVE",
"704 -174 OFFCURVE",
"716 -174 CURVE SMOOTH"
);
}
);
width = 617;
}
);
note = K;
unicode = 004B;
},
{
color = 9;
glyphname = L;
lastChange = "2021-10-28 23:18:39 +0000";
layers = (
{
anchors = (
{
name = bottom;
position = "{361, -20}";
},
{
name = center;
position = "{311, 280}";
},
{
name = top;
position = "{571, 500}";
},
{
name = topright;
position = "{652, 529}";
}
);
layerId = "F9847816-3BA7-404E-BAEF-52D5126F5321";
paths = (
{
closed = 1;
nodes = (
"572 -124 OFFCURVE",
"579 -116 OFFCURVE",
"586 -112 CURVE SMOOTH",
"594 -109 OFFCURVE",
"602 -109 OFFCURVE",
"608 -102 CURVE SMOOTH",
"615 -94 OFFCURVE",
"616 -83 OFFCURVE",
"616 -73 CURVE SMOOTH",
"616 -49 OFFCURVE",
"604 -10 OFFCURVE",
"588 8 CURVE SMOOTH",
"558 40 OFFCURVE",
"509 34 OFFCURVE",
"469 37 CURVE",
"466 35 OFFCURVE",
"441 33 OFFCURVE",
"438 33 CURVE SMOOTH",
"434 33 OFFCURVE",
"430 34 OFFCURVE",
"426 34 CURVE SMOOTH",
"418 34 OFFCURVE",
"404 33 OFFCURVE",
"396 30 CURVE",
"377 29 OFFCURVE",
"359 28 OFFCURVE",
"339 26 CURVE",
"336 27 OFFCURVE",
"332 27 OFFCURVE",
"327 27 CURVE SMOOTH",
"311 27 OFFCURVE",
"286 24 OFFCURVE",
"277 19 CURVE",
"260 18 LINE",
"259 17 LINE",
"236 15 OFFCURVE",
"213 10 OFFCURVE",
"189 8 CURVE SMOOTH",
"175 7 OFFCURVE",
"159 5 OFFCURVE",
"144 4 CURVE",
"144 8 LINE SMOOTH",
"144 32 OFFCURVE",
"170 93 OFFCURVE",
"187 110 CURVE SMOOTH",
"202 124 OFFCURVE",
"219 143 OFFCURVE",
"238 151 CURVE SMOOTH",
"277 167 OFFCURVE",
"315 183 OFFCURVE",
"352 203 CURVE SMOOTH",
"378 217 OFFCURVE",
"404 235 OFFCURVE",
"429 251 CURVE SMOOTH",
"487 288 OFFCURVE",
"539 341 OFFCURVE",
"583 395 CURVE SMOOTH",
"605 422 OFFCURVE",
"637 462 OFFCURVE",
"637 499 CURVE SMOOTH",
"637 523 OFFCURVE",
"611 529 OFFCURVE",
"592 534 CURVE",
"583 532 OFFCURVE",
"574 531 OFFCURVE",
"565 530 CURVE SMOOTH",
"544 529 OFFCURVE",
"526 519 OFFCURVE",
"509 509 CURVE SMOOTH",
"388 445 OFFCURVE",
"301 333 OFFCURVE",
"226 223 CURVE SMOOTH",
"208 197 OFFCURVE",
"193 171 OFFCURVE",
"178 144 CURVE",
"177 144 OFFCURVE",
"175 143 OFFCURVE",
"173 143 CURVE SMOOTH",
"157 142 OFFCURVE",
"112 115 OFFCURVE",
"100 103 CURVE",
"76 103 OFFCURVE",
"26 58 OFFCURVE",
"26 34 CURVE SMOOTH",
"26 23 OFFCURVE",
"33 0 OFFCURVE",
"39 -9 CURVE SMOOTH",
"51 -27 OFFCURVE",
"77 -31 OFFCURVE",
"97 -31 CURVE SMOOTH",
"104 -31 LINE",
"103 -35 OFFCURVE",
"103 -39 OFFCURVE",
"103 -43 CURVE SMOOTH",
"103 -49 LINE SMOOTH",
"103 -55 OFFCURVE",
"112 -56 OFFCURVE",
"116 -56 CURVE SMOOTH",
"120 -56 OFFCURVE",
"126 -55 OFFCURVE",
"128 -51 CURVE",
"135 -48 OFFCURVE",
"141 -36 OFFCURVE",
"145 -25 CURVE",
"147 -24 OFFCURVE",
"149 -24 OFFCURVE",
"151 -23 CURVE",
"152 -23 LINE",
"153 -22 LINE",
"151 -22 LINE",
"152 -21 OFFCURVE",
"151 -20 OFFCURVE",
"151 -20 CURVE",
"150 -20 OFFCURVE",
"149 -20 OFFCURVE",
"148 -21 CURVE",
"148 -20 LINE",
"147 -19 LINE",
"147 -18 LINE",
"149 -19 OFFCURVE",
"173 -19 OFFCURVE",
"177 -20 CURVE",
"178 -19 OFFCURVE",
"187 -16 OFFCURVE",
"188 -16 CURVE SMOOTH",
"210 -16 OFFCURVE",
"216 -8 OFFCURVE",
"235 -4 CURVE SMOOTH",
"292 8 OFFCURVE",
"383 17 OFFCURVE",
"441 17 CURVE SMOOTH",
"486 17 OFFCURVE",
"609 8 OFFCURVE",
"609 -53 CURVE SMOOTH",
"609 -81 OFFCURVE",
"581 -105 OFFCURVE",
"561 -121 CURVE",
"560 -121 LINE",
"560 -123 LINE",
"561 -124 OFFCURVE",
"562 -124 OFFCURVE",
"563 -124 CURVE SMOOTH"
);
},
{
closed = 1;
nodes = (
"81 2 OFFCURVE",
"36 1 OFFCURVE",
"36 24 CURVE SMOOTH",
"36 47 OFFCURVE",
"141 114 OFFCURVE",
"171 129 CURVE",
"162 111 OFFCURVE",
"154 94 OFFCURVE",
"146 76 CURVE SMOOTH",
"136 53 OFFCURVE",
"127 24 OFFCURVE",
"116 2 CURVE",
"96 2 LINE SMOOTH"
);
},
{
closed = 1;
nodes = (
"217 171 OFFCURVE",
"249 223 OFFCURVE",
"256 234 CURVE SMOOTH",
"301 298 OFFCURVE",
"358 367 OFFCURVE",
"422 413 CURVE SMOOTH",
"464 443 LINE SMOOTH",
"491 462 OFFCURVE",
"516 483 OFFCURVE",
"547 496 CURVE SMOOTH",
"565 504 OFFCURVE",
"585 509 OFFCURVE",
"605 515 CURVE",
"612 514 OFFCURVE",
"623 511 OFFCURVE",
"623 502 CURVE SMOOTH",
"623 495 OFFCURVE",
"617 485 OFFCURVE",
"614 479 CURVE SMOOTH",
"532 320 OFFCURVE",
"378 223 OFFCURVE",
"217 156 CURVE SMOOTH",
"215 155 OFFCURVE",
"212 155 OFFCURVE",
"210 156 CURVE"
);
}
);
width = 600;
},
{
anchors = (
{
name = bottom;
position = "{390, -32}";
},
{
name = center;
position = "{328, 250}";
},
{
name = top;
position = "{586, 528}";
},
{
name = topright;
position = "{694, 500}";
}
);
layerId = "A97A914C-B88D-4C15-9174-D82F9495701A";
paths = (
{
closed = 1;
nodes = (
"132 -73 OFFCURVE",
"139 -73 OFFCURVE",
"142 -68 CURVE",
"152 -62 OFFCURVE",
"161 -40 OFFCURVE",
"161 -28 CURVE SMOOTH",
"161 -24 OFFCURVE",
"159 1 OFFCURVE",
"159 9 CURVE SMOOTH",
"157 31 OFFCURVE",
"180 92 OFFCURVE",
"197 108 CURVE SMOOTH",
"212 123 OFFCURVE",
"229 141 OFFCURVE",
"248 149 CURVE SMOOTH",
"289 165 OFFCURVE",
"330 181 OFFCURVE",
"369 201 CURVE SMOOTH",
"396 215 OFFCURVE",
"423 233 OFFCURVE",
"449 249 CURVE SMOOTH",
"510 286 OFFCURVE",
"562 340 OFFCURVE",
"606 393 CURVE SMOOTH",
"628 420 OFFCURVE",
"660 461 OFFCURVE",
"657 500 CURVE SMOOTH",
"655 524 OFFCURVE",
"604 538 OFFCURVE",
"582 542 CURVE",
"572 540 OFFCURVE",
"562 539 OFFCURVE",
"552 539 CURVE SMOOTH",
"529 537 OFFCURVE",
"511 527 OFFCURVE",
"491 517 CURVE SMOOTH",
"365 453 OFFCURVE",
"312 386 OFFCURVE",
"239 275 CURVE SMOOTH",
"223 252 OFFCURVE",
"206 215 OFFCURVE",
"191 178 CURVE SMOOTH",
"175 140 OFFCURVE",
"161 102 OFFCURVE",
"151 77 CURVE SMOOTH",
"142 53 OFFCURVE",
"130 9 OFFCURVE",
"120 -14 CURVE SMOOTH",
"114 -28 OFFCURVE",
"108 -41 OFFCURVE",
"110 -58 CURVE SMOOTH",
"110 -60 OFFCURVE",
"110 -62 OFFCURVE",
"111 -64 CURVE",
"112 -71 OFFCURVE",
"123 -73 OFFCURVE",
"128 -73 CURVE SMOOTH"
);
},
{
closed = 1;
nodes = (
"620 -126 LINE SMOOTH",
"630 -126 OFFCURVE",
"641 -118 OFFCURVE",
"651 -115 CURVE",
"655 -113 OFFCURVE",
"659 -112 OFFCURVE",
"663 -111 CURVE SMOOTH",
"678 -107 OFFCURVE",
"682 -93 OFFCURVE",
"682 -79 CURVE SMOOTH",
"682 -58 OFFCURVE",
"669 0 OFFCURVE",
"647 21 CURVE SMOOTH",
"611 53 OFFCURVE",
"556 47 OFFCURVE",
"512 50 CURVE",
"509 48 OFFCURVE",
"482 46 OFFCURVE",
"479 46 CURVE SMOOTH",
"475 46 OFFCURVE",
"470 47 OFFCURVE",
"466 47 CURVE SMOOTH",
"457 47 OFFCURVE",
"442 47 OFFCURVE",
"434 43 CURVE",
"421 42 OFFCURVE",
"311 24 OFFCURVE",
"301 22 CURVE",
"280 21 LINE",
"280 19 LINE",
"255 17 OFFCURVE",
"231 12 OFFCURVE",
"206 10 CURVE SMOOTH",
"172 8 OFFCURVE",
"135 4 OFFCURVE",
"101 4 CURVE SMOOTH",
"84 4 OFFCURVE",
"41 5 OFFCURVE",
"40 24 CURVE SMOOTH",
"38 38 OFFCURVE",
"155 113 OFFCURVE",
"182 133 CURVE",
"182 133 OFFCURVE",
"196 142 OFFCURVE",
"196 147 CURVE SMOOTH",
"196 148 OFFCURVE",
"195 149 OFFCURVE",
"192 149 CURVE SMOOTH",
"191 149 OFFCURVE",
"189 148 OFFCURVE",
"186 147 CURVE",
"169 146 OFFCURVE",
"95 120 OFFCURVE",
"81 107 CURVE",
"55 107 OFFCURVE",
"16 67 OFFCURVE",
"16 42 CURVE SMOOTH",
"16 36 OFFCURVE",
"29 -15 OFFCURVE",
"38 -25 CURVE SMOOTH",
"54 -45 OFFCURVE",
"83 -49 OFFCURVE",
"105 -49 CURVE SMOOTH",
"124 -49 OFFCURVE",
"146 -46 OFFCURVE",
"164 -40 CURVE",
"167 -41 LINE",
"167 -34 LINE",
"166 -34 LINE",
"165 -33 OFFCURVE",
"164 -32 OFFCURVE",
"163 -32 CURVE SMOOTH",
"159 -32 LINE",
"160 -33 LINE",
"158 -35 LINE",
"159 -35 OFFCURVE",
"167 -36 OFFCURVE",
"174 -36 CURVE SMOOTH",
"192 -37 LINE",
"198 -35 LINE SMOOTH",
"200 -34 OFFCURVE",
"202 -33 OFFCURVE",
"203 -33 CURVE SMOOTH",
"215 -33 OFFCURVE",
"223 -31 OFFCURVE",
"231 -29 CURVE SMOOTH",
"238 -26 OFFCURVE",
"244 -23 OFFCURVE",
"254 -21 CURVE SMOOTH",
"366 1 LINE SMOOTH",
"408 9 OFFCURVE",
"449 14 OFFCURVE",
"480 14 CURVE SMOOTH",
"532 14 OFFCURVE",
"662 5 OFFCURVE",
"662 -57 CURVE SMOOTH",
"662 -81 OFFCURVE",
"636 -104 OFFCURVE",
"616 -118 CURVE",
"614 -118 LINE",
"614 -124 LINE",
"615 -124 LINE",
"615 -126 LINE"
);
},
{
closed = 1;
nodes = (
"228 174 OFFCURVE",
"255 222 OFFCURVE",
"262 232 CURVE SMOOTH",
"306 296 OFFCURVE",
"362 365 OFFCURVE",
"428 411 CURVE SMOOTH",
"471 441 LINE SMOOTH",
"499 460 OFFCURVE",
"526 481 OFFCURVE",
"557 494 CURVE SMOOTH",
"570 500 OFFCURVE",
"588 504 OFFCURVE",
"602 504 CURVE SMOOTH",
"607 504 OFFCURVE",
"612 503 OFFCURVE",
"616 502 CURVE SMOOTH",
"623 500 OFFCURVE",
"629 497 OFFCURVE",
"629 488 CURVE SMOOTH",
"629 482 OFFCURVE",
"625 472 OFFCURVE",
"616 459 CURVE SMOOTH",
"521 326 OFFCURVE",
"390 224 OFFCURVE",
"220 157 CURVE"
);
}
);
width = 655;
}
);
note = L;
unicode = 004C;
},
{
glyphname = Lslash;
lastChange = "2021-10-27 16:12:52 +0000";
layers = (
{
layerId = "F9847816-3BA7-404E-BAEF-52D5126F5321";
paths = (
{
closed = 1;
nodes = (
"572 -124 OFFCURVE",
"579 -116 OFFCURVE",
"586 -112 CURVE SMOOTH",
"594 -109 OFFCURVE",
"602 -109 OFFCURVE",
"608 -102 CURVE SMOOTH",
"615 -94 OFFCURVE",
"616 -83 OFFCURVE",
"616 -73 CURVE SMOOTH",
"616 -49 OFFCURVE",
"604 -10 OFFCURVE",
"588 8 CURVE SMOOTH",
"558 40 OFFCURVE",
"509 34 OFFCURVE",
"469 37 CURVE",
"466 35 OFFCURVE",
"441 33 OFFCURVE",
"438 33 CURVE SMOOTH",
"434 33 OFFCURVE",
"430 34 OFFCURVE",
"426 34 CURVE SMOOTH",
"418 34 OFFCURVE",
"404 33 OFFCURVE",
"396 30 CURVE",
"377 29 OFFCURVE",
"359 28 OFFCURVE",
"339 26 CURVE",
"336 27 OFFCURVE",
"332 27 OFFCURVE",
"327 27 CURVE SMOOTH",
"311 27 OFFCURVE",
"286 24 OFFCURVE",
"277 19 CURVE",
"260 18 LINE",
"259 17 LINE",
"236 15 OFFCURVE",
"213 10 OFFCURVE",
"189 8 CURVE SMOOTH",
"175 7 OFFCURVE",
"159 5 OFFCURVE",
"144 4 CURVE",
"144 8 LINE SMOOTH",
"144 32 OFFCURVE",
"170 93 OFFCURVE",
"187 110 CURVE SMOOTH",
"202 124 OFFCURVE",
"219 143 OFFCURVE",
"238 151 CURVE SMOOTH",
"277 167 OFFCURVE",
"315 183 OFFCURVE",
"352 203 CURVE SMOOTH",
"378 217 OFFCURVE",
"404 235 OFFCURVE",
"429 251 CURVE SMOOTH",
"487 288 OFFCURVE",
"539 341 OFFCURVE",
"583 395 CURVE SMOOTH",
"605 422 OFFCURVE",
"637 462 OFFCURVE",
"637 499 CURVE SMOOTH",
"637 523 OFFCURVE",
"611 529 OFFCURVE",
"592 534 CURVE",
"583 532 OFFCURVE",
"574 531 OFFCURVE",
"565 530 CURVE SMOOTH",
"544 529 OFFCURVE",
"526 519 OFFCURVE",
"509 509 CURVE SMOOTH",
"388 445 OFFCURVE",
"301 333 OFFCURVE",
"226 223 CURVE SMOOTH",
"208 197 OFFCURVE",
"193 171 OFFCURVE",
"178 144 CURVE",
"177 144 OFFCURVE",
"175 143 OFFCURVE",
"173 143 CURVE SMOOTH",
"157 142 OFFCURVE",
"112 115 OFFCURVE",
"100 103 CURVE",
"76 103 OFFCURVE",
"26 58 OFFCURVE",
"26 34 CURVE SMOOTH",
"26 23 OFFCURVE",
"33 0 OFFCURVE",
"39 -9 CURVE SMOOTH",
"51 -27 OFFCURVE",
"77 -31 OFFCURVE",
"97 -31 CURVE SMOOTH",
"104 -31 LINE",
"103 -35 OFFCURVE",
"103 -39 OFFCURVE",
"103 -43 CURVE SMOOTH",
"103 -49 LINE SMOOTH",
"103 -55 OFFCURVE",
"112 -56 OFFCURVE",
"116 -56 CURVE SMOOTH",
"120 -56 OFFCURVE",
"126 -55 OFFCURVE",
"128 -51 CURVE",
"135 -48 OFFCURVE",
"141 -36 OFFCURVE",
"145 -25 CURVE",
"147 -24 OFFCURVE",
"149 -24 OFFCURVE",
"151 -23 CURVE",
"152 -23 LINE",
"153 -22 LINE",
"151 -22 LINE",
"152 -21 OFFCURVE",
"151 -20 OFFCURVE",
"151 -20 CURVE",
"150 -20 OFFCURVE",
"149 -20 OFFCURVE",
"148 -21 CURVE",
"148 -20 LINE",
"147 -19 LINE",
"147 -18 LINE",
"149 -19 OFFCURVE",
"173 -19 OFFCURVE",
"177 -20 CURVE",
"178 -19 OFFCURVE",
"187 -16 OFFCURVE",
"188 -16 CURVE SMOOTH",
"210 -16 OFFCURVE",
"216 -8 OFFCURVE",
"235 -4 CURVE SMOOTH",
"292 8 OFFCURVE",
"383 17 OFFCURVE",
"441 17 CURVE SMOOTH",
"486 17 OFFCURVE",
"609 8 OFFCURVE",
"609 -53 CURVE SMOOTH",
"609 -81 OFFCURVE",
"581 -105 OFFCURVE",
"561 -121 CURVE",
"560 -121 LINE",
"560 -123 LINE",
"561 -124 OFFCURVE",
"562 -124 OFFCURVE",
"563 -124 CURVE SMOOTH"
);
},
{
closed = 1;
nodes = (
"81 2 OFFCURVE",
"36 1 OFFCURVE",
"36 24 CURVE SMOOTH",
"36 47 OFFCURVE",
"141 114 OFFCURVE",
"171 129 CURVE",
"162 111 OFFCURVE",
"154 94 OFFCURVE",
"146 76 CURVE SMOOTH",
"136 53 OFFCURVE",
"127 24 OFFCURVE",
"116 2 CURVE",
"96 2 LINE SMOOTH"
);
},
{
closed = 1;
nodes = (
"82 48 LINE",
"284 86 LINE SMOOTH",
"289 87 OFFCURVE",
"288 103 OFFCURVE",
"281 102 CURVE SMOOTH",
"79 64 LINE",
"76 64 OFFCURVE",
"74 61 OFFCURVE",
"74 57 CURVE SMOOTH",
"74 53 OFFCURVE",
"77 48 OFFCURVE",
"81 48 CURVE SMOOTH"
);
},
{
closed = 1;
nodes = (
"217 171 OFFCURVE",
"249 223 OFFCURVE",
"256 234 CURVE SMOOTH",
"301 298 OFFCURVE",
"358 367 OFFCURVE",
"422 413 CURVE SMOOTH",
"464 443 LINE SMOOTH",
"491 462 OFFCURVE",
"516 483 OFFCURVE",
"547 496 CURVE SMOOTH",
"565 504 OFFCURVE",
"585 509 OFFCURVE",
"605 515 CURVE",
"612 514 OFFCURVE",
"623 511 OFFCURVE",
"623 502 CURVE SMOOTH",
"623 495 OFFCURVE",
"617 485 OFFCURVE",
"614 479 CURVE SMOOTH",
"532 320 OFFCURVE",
"378 223 OFFCURVE",
"217 156 CURVE SMOOTH",
"215 155 OFFCURVE",
"212 155 OFFCURVE",
"210 156 CURVE"
);
}
);
width = 600;
},
{
layerId = "A97A914C-B88D-4C15-9174-D82F9495701A";
paths = (
{
closed = 1;
nodes = (
"132 -73 OFFCURVE",
"139 -73 OFFCURVE",
"142 -68 CURVE",
"152 -62 OFFCURVE",
"161 -40 OFFCURVE",
"161 -28 CURVE SMOOTH",
"161 -24 OFFCURVE",
"159 1 OFFCURVE",
"159 9 CURVE SMOOTH",
"157 31 OFFCURVE",
"180 92 OFFCURVE",
"197 108 CURVE SMOOTH",
"212 123 OFFCURVE",
"229 141 OFFCURVE",
"248 149 CURVE SMOOTH",
"289 165 OFFCURVE",
"330 181 OFFCURVE",
"369 201 CURVE SMOOTH",
"396 215 OFFCURVE",
"423 233 OFFCURVE",
"449 249 CURVE SMOOTH",
"510 286 OFFCURVE",
"562 340 OFFCURVE",
"606 393 CURVE SMOOTH",
"628 420 OFFCURVE",
"660 461 OFFCURVE",
"657 500 CURVE SMOOTH",
"655 524 OFFCURVE",
"604 538 OFFCURVE",
"582 542 CURVE",
"572 540 OFFCURVE",
"562 539 OFFCURVE",
"552 539 CURVE SMOOTH",
"529 537 OFFCURVE",
"511 527 OFFCURVE",
"491 517 CURVE SMOOTH",
"365 453 OFFCURVE",
"312 386 OFFCURVE",
"239 275 CURVE SMOOTH",
"223 252 OFFCURVE",
"206 215 OFFCURVE",
"191 178 CURVE SMOOTH",
"175 140 OFFCURVE",
"161 102 OFFCURVE",
"151 77 CURVE SMOOTH",
"142 53 OFFCURVE",
"130 9 OFFCURVE",
"120 -14 CURVE SMOOTH",
"114 -28 OFFCURVE",
"108 -41 OFFCURVE",
"110 -58 CURVE SMOOTH",
"110 -60 OFFCURVE",
"110 -62 OFFCURVE",
"111 -64 CURVE",
"112 -71 OFFCURVE",
"123 -73 OFFCURVE",
"128 -73 CURVE SMOOTH"
);
},
{
closed = 1;
nodes = (
"308 77 LINE SMOOTH",
"309 77 OFFCURVE",
"310 81 OFFCURVE",
"310 86 CURVE SMOOTH",
"310 90 LINE SMOOTH",
"309 95 OFFCURVE",
"307 100 OFFCURVE",
"304 99 CURVE SMOOTH",
"84 58 LINE",
"82 57 OFFCURVE",
"80 54 OFFCURVE",
"80 49 CURVE SMOOTH",
"80 46 LINE SMOOTH",
"81 40 OFFCURVE",
"84 35 OFFCURVE",
"88 35 CURVE"
);
},
{
closed = 1;
nodes = (
"620 -126 LINE SMOOTH",
"630 -126 OFFCURVE",
"641 -118 OFFCURVE",
"651 -115 CURVE",
"655 -113 OFFCURVE",
"659 -112 OFFCURVE",
"663 -111 CURVE SMOOTH",
"678 -107 OFFCURVE",
"682 -93 OFFCURVE",
"682 -79 CURVE SMOOTH",
"682 -58 OFFCURVE",
"669 0 OFFCURVE",
"647 21 CURVE SMOOTH",
"611 53 OFFCURVE",
"556 47 OFFCURVE",
"512 50 CURVE",
"509 48 OFFCURVE",
"482 46 OFFCURVE",
"479 46 CURVE SMOOTH",
"475 46 OFFCURVE",
"470 47 OFFCURVE",
"466 47 CURVE SMOOTH",
"457 47 OFFCURVE",
"442 47 OFFCURVE",
"434 43 CURVE",
"421 42 OFFCURVE",
"311 24 OFFCURVE",
"301 22 CURVE",
"280 21 LINE",
"280 19 LINE",
"255 17 OFFCURVE",
"231 12 OFFCURVE",
"206 10 CURVE SMOOTH",
"172 8 OFFCURVE",
"135 4 OFFCURVE",
"101 4 CURVE SMOOTH",
"84 4 OFFCURVE",
"41 5 OFFCURVE",
"40 24 CURVE SMOOTH",
"38 38 OFFCURVE",
"155 113 OFFCURVE",
"182 133 CURVE",
"182 133 OFFCURVE",
"196 142 OFFCURVE",
"196 147 CURVE SMOOTH",
"196 148 OFFCURVE",
"195 149 OFFCURVE",
"192 149 CURVE SMOOTH",
"191 149 OFFCURVE",
"189 148 OFFCURVE",
"186 147 CURVE",
"169 146 OFFCURVE",
"95 120 OFFCURVE",
"81 107 CURVE",
"55 107 OFFCURVE",
"16 67 OFFCURVE",
"16 42 CURVE SMOOTH",
"16 36 OFFCURVE",
"29 -15 OFFCURVE",
"38 -25 CURVE SMOOTH",
"54 -45 OFFCURVE",
"83 -49 OFFCURVE",
"105 -49 CURVE SMOOTH",
"124 -49 OFFCURVE",
"146 -46 OFFCURVE",
"164 -40 CURVE",
"167 -41 LINE",
"167 -34 LINE",
"166 -34 LINE",
"165 -33 OFFCURVE",
"164 -32 OFFCURVE",
"163 -32 CURVE SMOOTH",
"159 -32 LINE",
"160 -33 LINE",
"158 -35 LINE",
"159 -35 OFFCURVE",
"167 -36 OFFCURVE",
"174 -36 CURVE SMOOTH",
"192 -37 LINE",
"198 -35 LINE SMOOTH",
"200 -34 OFFCURVE",
"202 -33 OFFCURVE",
"203 -33 CURVE SMOOTH",
"215 -33 OFFCURVE",
"223 -31 OFFCURVE",
"231 -29 CURVE SMOOTH",
"238 -26 OFFCURVE",
"244 -23 OFFCURVE",
"254 -21 CURVE SMOOTH",
"366 1 LINE SMOOTH",
"408 8 OFFCURVE",
"449 14 OFFCURVE",
"480 14 CURVE SMOOTH",
"532 14 OFFCURVE",
"662 5 OFFCURVE",
"662 -57 CURVE SMOOTH",
"662 -81 OFFCURVE",
"636 -104 OFFCURVE",
"616 -118 CURVE",
"614 -118 LINE",
"614 -124 LINE",
"615 -124 LINE",
"615 -126 LINE"
);
},
{
closed = 1;
nodes = (
"228 174 OFFCURVE",
"255 222 OFFCURVE",
"262 232 CURVE SMOOTH",
"306 296 OFFCURVE",
"364 363 OFFCURVE",
"428 411 CURVE SMOOTH",
"471 441 LINE SMOOTH",
"498 461 OFFCURVE",
"526 481 OFFCURVE",
"557 494 CURVE SMOOTH",
"570 500 OFFCURVE",
"588 504 OFFCURVE",
"602 504 CURVE SMOOTH",
"607 504 OFFCURVE",
"612 503 OFFCURVE",
"616 502 CURVE SMOOTH",
"623 500 OFFCURVE",
"629 497 OFFCURVE",
"629 488 CURVE SMOOTH",
"629 482 OFFCURVE",
"625 472 OFFCURVE",
"616 459 CURVE SMOOTH",
"521 326 OFFCURVE",
"390 224 OFFCURVE",
"220 157 CURVE"
);
}
);
width = 655;
}
);
note = Lslash;
unicode = 0141;
},
{
color = 9;
glyphname = M;
lastChange = "2021-10-28 23:18:39 +0000";
layers = (
{
layerId = "F9847816-3BA7-404E-BAEF-52D5126F5321";
paths = (
{
closed = 1;
nodes = (
"217 -59 OFFCURVE",
"314 79 OFFCURVE",
"381 165 CURVE SMOOTH",
"402 192 OFFCURVE",
"424 217 OFFCURVE",
"444 243 CURVE SMOOTH",
"453 256 OFFCURVE",
"505 332 OFFCURVE",
"510 336 CURVE",
"510 335 LINE",
"511 335 LINE",
"512 332 OFFCURVE",
"499 293 OFFCURVE",
"497 287 CURVE SMOOTH",
"484 238 OFFCURVE",
"467 188 OFFCURVE",
"467 138 CURVE SMOOTH",
"467 84 OFFCURVE",
"491 46 OFFCURVE",
"549 46 CURVE SMOOTH",
"568 46 OFFCURVE",
"590 50 OFFCURVE",
"607 61 CURVE SMOOTH",
"623 72 OFFCURVE",
"639 91 OFFCURVE",
"651 107 CURVE SMOOTH",
"670 132 OFFCURVE",
"791 322 OFFCURVE",
"791 336 CURVE",
"790 338 LINE",
"788 338 LINE",
"787 328 OFFCURVE",
"754 288 OFFCURVE",
"746 278 CURVE SMOOTH",
"695 210 OFFCURVE",
"651 123 OFFCURVE",
"579 76 CURVE SMOOTH",
"567 68 OFFCURVE",
"554 64 OFFCURVE",
"542 58 CURVE",
"503 58 OFFCURVE",
"501 98 OFFCURVE",
"501 129 CURVE SMOOTH",
"501 213 OFFCURVE",
"518 286 OFFCURVE",
"555 360 CURVE SMOOTH",
"563 375 OFFCURVE",
"571 390 OFFCURVE",
"579 404 CURVE SMOOTH",
"583 413 OFFCURVE",
"590 422 OFFCURVE",
"594 431 CURVE SMOOTH",
"597 440 LINE",
"597 458 OFFCURVE",
"570 459 OFFCURVE",
"558 459 CURVE",
"551 449 OFFCURVE",
"550 437 OFFCURVE",
"546 426 CURVE SMOOTH",
"538 407 OFFCURVE",
"528 389 OFFCURVE",
"517 372 CURVE SMOOTH",
"492 335 OFFCURVE",
"463 301 OFFCURVE",
"436 266 CURVE SMOOTH",
"380 195 OFFCURVE",
"324 124 OFFCURVE",
"260 60 CURVE SMOOTH",
"218 18 OFFCURVE",
"169 -29 OFFCURVE",
"109 -43 CURVE",
"109 -44 LINE",
"108 -43 LINE",
"106 -43 LINE",
"106 -46 OFFCURVE",
"96 -47 OFFCURVE",
"93 -47 CURVE SMOOTH",
"45 -47 OFFCURVE",
"25 -13 OFFCURVE",
"25 32 CURVE SMOOTH",
"25 114 OFFCURVE",
"180 340 OFFCURVE",
"266 340 CURVE SMOOTH",
"279 340 OFFCURVE",
"291 335 OFFCURVE",
"304 332 CURVE",
"304 334 LINE",
"305 334 LINE",
"305 336 LINE",
"290 348 OFFCURVE",
"274 357 OFFCURVE",
"255 357 CURVE SMOOTH",
"214 357 OFFCURVE",
"171 316 OFFCURVE",
"142 291 CURVE SMOOTH",
"117 270 LINE SMOOTH",
"58 216 OFFCURVE",
"5 113 OFFCURVE",
"5 32 CURVE SMOOTH",
"5 -18 OFFCURVE",
"44 -59 OFFCURVE",
"95 -59 CURVE SMOOTH"
);
},
{
closed = 1;
nodes = (
"763 -61 LINE",
"762 -54 OFFCURVE",
"749 -51 OFFCURVE",
"747 -46 CURVE SMOOTH",
"740 -32 OFFCURVE",
"738 -20 OFFCURVE",
"738 -5 CURVE SMOOTH",
"738 36 OFFCURVE",
"752 73 OFFCURVE",
"761 112 CURVE SMOOTH",
"763 120 OFFCURVE",
"763 131 OFFCURVE",
"768 137 CURVE",
"768 167 OFFCURVE",
"792 191 OFFCURVE",
"795 220 CURVE",
"797 222 OFFCURVE",
"810 270 OFFCURVE",
"814 278 CURVE SMOOTH",
"825 303 OFFCURVE",
"841 325 OFFCURVE",
"852 350 CURVE SMOOTH",
"863 374 OFFCURVE",
"874 399 OFFCURVE",
"892 419 CURVE",
"892 419 OFFCURVE",
"892 420 OFFCURVE",
"893 420 CURVE SMOOTH",
"894 420 OFFCURVE",
"897 417 OFFCURVE",
"898 416 CURVE",
"910 433 OFFCURVE",
"940 469 OFFCURVE",
"940 490 CURVE SMOOTH",
"940 509 OFFCURVE",
"917 511 OFFCURVE",
"903 511 CURVE",
"889 498 OFFCURVE",
"883 478 OFFCURVE",
"873 462 CURVE SMOOTH",
"840 406 OFFCURVE",
"815 347 OFFCURVE",
"791 287 CURVE SMOOTH",
"785 272 OFFCURVE",
"774 254 OFFCURVE",
"774 237 CURVE SMOOTH",
"774 233 LINE",
"748 169 OFFCURVE",
"720 72 OFFCURVE",
"720 5 CURVE SMOOTH",
"720 -22 OFFCURVE",
"725 -61 OFFCURVE",
"760 -61 CURVE SMOOTH"
);
}
);
width = 802;
},
{
layerId = "A97A914C-B88D-4C15-9174-D82F9495701A";
paths = (
{
closed = 1;
nodes = (
"176 -62 OFFCURVE",
"234 -27 OFFCURVE",
"283 19 CURVE SMOOTH",
"329 62 OFFCURVE",
"366 113 OFFCURVE",
"405 164 CURVE SMOOTH",
"425 190 OFFCURVE",
"447 215 OFFCURVE",
"466 242 CURVE SMOOTH",
"503 291 LINE SMOOTH",
"512 304 OFFCURVE",
"521 316 OFFCURVE",
"527 326 CURVE",
"524 313 LINE",
"517 287 LINE SMOOTH",
"508 245 OFFCURVE",
"489 200 OFFCURVE",
"489 156 CURVE SMOOTH",
"489 149 OFFCURVE",
"490 141 OFFCURVE",
"491 134 CURVE SMOOTH",
"502 69 OFFCURVE",
"531 43 OFFCURVE",
"596 43 CURVE SMOOTH",
"617 43 OFFCURVE",
"642 47 OFFCURVE",
"659 59 CURVE SMOOTH",
"677 70 OFFCURVE",
"692 89 OFFCURVE",
"704 106 CURVE SMOOTH",
"722 130 OFFCURVE",
"842 316 OFFCURVE",
"844 336 CURVE",
"845 338 OFFCURVE",
"846 343 OFFCURVE",
"843 345 CURVE",
"842 347 OFFCURVE",
"838 347 OFFCURVE",
"831 339 CURVE",
"830 329 OFFCURVE",
"798 290 OFFCURVE",
"790 279 CURVE SMOOTH",
"739 209 OFFCURVE",
"699 125 OFFCURVE",
"625 78 CURVE SMOOTH",
"613 71 OFFCURVE",
"600 66 OFFCURVE",
"587 60 CURVE",
"554 61 OFFCURVE",
"547 86 OFFCURVE",
"547 115 CURVE SMOOTH",
"547 198 OFFCURVE",
"582 293 OFFCURVE",
"615 365 CURVE SMOOTH",
"622 380 OFFCURVE",
"629 394 OFFCURVE",
"637 409 CURVE SMOOTH",
"642 418 OFFCURVE",
"648 426 OFFCURVE",
"652 436 CURVE",
"652 452 LINE SMOOTH",
"652 461 OFFCURVE",
"638 464 OFFCURVE",
"622 464 CURVE SMOOTH",
"602 464 OFFCURVE",
"579 461 OFFCURVE",
"570 461 CURVE",
"562 450 OFFCURVE",
"563 439 OFFCURVE",
"559 427 CURVE SMOOTH",
"552 409 OFFCURVE",
"543 390 OFFCURVE",
"532 373 CURVE SMOOTH",
"508 336 OFFCURVE",
"479 303 OFFCURVE",
"452 268 CURVE SMOOTH",
"397 196 OFFCURVE",
"342 126 OFFCURVE",
"277 62 CURVE SMOOTH",
"268 53 OFFCURVE",
"258 43 OFFCURVE",
"247 33 CURVE SMOOTH",
"217 5 OFFCURVE",
"153 -45 OFFCURVE",
"106 -45 CURVE SMOOTH",
"51 -45 OFFCURVE",
"29 -12 OFFCURVE",
"29 35 CURVE SMOOTH",
"29 147 OFFCURVE",
"157 338 OFFCURVE",
"262 338 CURVE SMOOTH",
"269 338 OFFCURVE",
"276 336 OFFCURVE",
"283 335 CURVE SMOOTH",
"290 333 OFFCURVE",
"297 331 OFFCURVE",
"307 329 CURVE",
"307 331 LINE",
"308 331 LINE",
"308 338 LINE",
"289 351 OFFCURVE",
"270 359 OFFCURVE",
"249 359 CURVE SMOOTH",
"204 359 OFFCURVE",
"159 348 OFFCURVE",
"129 322 CURVE SMOOTH",
"118 312 OFFCURVE",
"109 301 OFFCURVE",
"99 291 CURVE SMOOTH",
"84 276 OFFCURVE",
"64 257 OFFCURVE",
"47 234 CURVE SMOOTH",
"44 230 OFFCURVE",
"47 225 OFFCURVE",
"48 222 CURVE SMOOTH",
"49 220 LINE",
"42 220 OFFCURVE",
"37 216 OFFCURVE",
"34 212 CURVE SMOOTH",
"27 204 OFFCURVE",
"20 186 OFFCURVE",
"17 177 CURVE SMOOTH",
"3 140 OFFCURVE",
"-7 99 OFFCURVE",
"-7 62 CURVE SMOOTH",
"-7 -6 OFFCURVE",
"24 -62 OFFCURVE",
"109 -62 CURVE SMOOTH"
);
},
{
closed = 1;
nodes = (
"844 -63 OFFCURVE",
"850 -60 OFFCURVE",
"850 -57 CURVE SMOOTH",
"850 -52 OFFCURVE",
"840 -47 OFFCURVE",
"828 -41 CURVE SMOOTH",
"818 -36 OFFCURVE",
"814 -18 OFFCURVE",
"814 -2 CURVE SMOOTH",
"814 3 OFFCURVE",
"814 8 OFFCURVE",
"815 12 CURVE SMOOTH",
"822 51 OFFCURVE",
"827 58 OFFCURVE",
"834 97 CURVE SMOOTH",
"836 105 OFFCURVE",
"835 115 OFFCURVE",
"840 122 CURVE",
"837 153 OFFCURVE",
"873 186 OFFCURVE",
"875 217 CURVE",
"878 224 OFFCURVE",
"880 236 OFFCURVE",
"882 243 CURVE SMOOTH",
"885 256 OFFCURVE",
"889 270 OFFCURVE",
"890 274 CURVE",
"901 300 OFFCURVE",
"927 317 OFFCURVE",
"938 343 CURVE SMOOTH",
"949 369 OFFCURVE",
"956 385 OFFCURVE",
"975 406 CURVE",
"977 407 LINE",
"978 407 OFFCURVE",
"978 408 OFFCURVE",
"980 406 CURVE",
"992 424 OFFCURVE",
"1024 462 OFFCURVE",
"1022 484 CURVE SMOOTH",
"1020 504 OFFCURVE",
"960 514 OFFCURVE",
"943 514 CURVE",
"928 499 OFFCURVE",
"923 481 OFFCURVE",
"913 463 CURVE SMOOTH",
"882 407 OFFCURVE",
"859 348 OFFCURVE",
"839 288 CURVE SMOOTH",
"833 272 OFFCURVE",
"822 255 OFFCURVE",
"823 237 CURVE",
"823 237 OFFCURVE",
"823 235 OFFCURVE",
"822 233 CURVE SMOOTH",
"819 225 LINE SMOOTH",
"817 219 OFFCURVE",
"815 213 OFFCURVE",
"815 211 CURVE SMOOTH",
"815 212 LINE",
"795 158 OFFCURVE",
"783 95 OFFCURVE",
"783 36 CURVE SMOOTH",
"783 25 OFFCURVE",
"783 15 OFFCURVE",
"784 5 CURVE SMOOTH",
"786 -22 OFFCURVE",
"793 -57 OFFCURVE",
"828 -65 CURVE"
);
}
);
width = 876;
}
);
note = M;
unicode = 004D;
},
{
color = 9;
glyphname = N;
lastChange = "2021-10-28 23:18:39 +0000";
layers = (
{
anchors = (
{
name = bottom;
position = "{441, 0}";
},
{
name = top;
position = "{629, 387}";
}
);
layerId = "F9847816-3BA7-404E-BAEF-52D5126F5321";
paths = (
{
closed = 1;
nodes = (
"269 -41 OFFCURVE",
"276 -32 OFFCURVE",
"282 -23 CURVE SMOOTH",
"303 15 OFFCURVE",
"318 56 OFFCURVE",
"341 93 CURVE SMOOTH",
"398 189 OFFCURVE",
"457 288 OFFCURVE",
"540 364 CURVE SMOOTH",
"548 372 OFFCURVE",
"561 385 OFFCURVE",
"573 385 CURVE SMOOTH",
"598 385 OFFCURVE",
"598 325 OFFCURVE",
"598 305 CURVE SMOOTH",
"598 242 OFFCURVE",
"589 180 OFFCURVE",
"589 117 CURVE SMOOTH",
"589 84 OFFCURVE",
"589 -12 OFFCURVE",
"639 -12 CURVE SMOOTH",
"646 -12 OFFCURVE",
"654 -10 OFFCURVE",
"660 -4 CURVE SMOOTH",
"667 4 OFFCURVE",
"676 35 OFFCURVE",
"676 46 CURVE SMOOTH",
"676 50 LINE",
"670 48 OFFCURVE",
"654 -3 OFFCURVE",
"635 -3 CURVE SMOOTH",
"611 -3 OFFCURVE",
"611 63 OFFCURVE",
"611 80 CURVE SMOOTH",
"611 105 OFFCURVE",
"611 131 OFFCURVE",
"613 156 CURVE SMOOTH",
"618 202 OFFCURVE",
"629 246 OFFCURVE",
"630 293 CURVE SMOOTH",
"631 309 OFFCURVE",
"635 324 OFFCURVE",
"635 340 CURVE SMOOTH",
"635 345 OFFCURVE",
"635 349 OFFCURVE",
"634 354 CURVE SMOOTH",
"627 375 OFFCURVE",
"584 399 OFFCURVE",
"561 399 CURVE SMOOTH",
"557 399 OFFCURVE",
"553 398 OFFCURVE",
"549 397 CURVE SMOOTH",
"521 387 OFFCURVE",
"497 352 OFFCURVE",
"479 330 CURVE SMOOTH",
"468 316 OFFCURVE",
"459 302 OFFCURVE",
"448 288 CURVE SMOOTH",
"403 231 OFFCURVE",
"368 167 OFFCURVE",
"325 110 CURVE",
"325 108 LINE",
"321 108 LINE",
"321 123 OFFCURVE",
"341 154 OFFCURVE",
"349 169 CURVE SMOOTH",
"378 226 OFFCURVE",
"412 281 OFFCURVE",
"445 337 CURVE SMOOTH",
"453 353 OFFCURVE",
"460 369 OFFCURVE",
"469 384 CURVE SMOOTH",
"484 408 OFFCURVE",
"500 433 OFFCURVE",
"505 463 CURVE",
"505 474 LINE SMOOTH",
"505 513 OFFCURVE",
"473 536 OFFCURVE",
"436 536 CURVE",
"432 533 OFFCURVE",
"426 532 OFFCURVE",
"421 532 CURVE",
"397 528 OFFCURVE",
"375 520 OFFCURVE",
"356 504 CURVE",
"355 506 LINE",
"351 503 OFFCURVE",
"346 501 OFFCURVE",
"342 498 CURVE",
"312 483 OFFCURVE",
"285 465 OFFCURVE",
"258 445 CURVE SMOOTH",
"241 433 OFFCURVE",
"222 422 OFFCURVE",
"206 409 CURVE SMOOTH",
"198 402 OFFCURVE",
"182 391 OFFCURVE",
"177 383 CURVE SMOOTH",
"168 369 LINE",
"150 360 OFFCURVE",
"141 345 OFFCURVE",
"127 332 CURVE SMOOTH",
"120 325 OFFCURVE",
"112 319 OFFCURVE",
"104 313 CURVE",
"97 305 OFFCURVE",
"92 294 OFFCURVE",
"85 286 CURVE SMOOTH",
"57 254 OFFCURVE",
"13 210 OFFCURVE",
"13 165 CURVE SMOOTH",
"13 129 OFFCURVE",
"54 114 OFFCURVE",
"83 114 CURVE SMOOTH",
"135 114 OFFCURVE",
"183 152 OFFCURVE",
"229 172 CURVE",
"229 173 LINE",
"230 173 LINE",
"230 175 LINE",
"122 140 LINE SMOOTH",
"116 138 OFFCURVE",
"109 138 OFFCURVE",
"104 137 CURVE SMOOTH",
"95 135 OFFCURVE",
"84 131 OFFCURVE",
"75 131 CURVE SMOOTH",
"60 131 OFFCURVE",
"42 134 OFFCURVE",
"42 153 CURVE SMOOTH",
"42 195 OFFCURVE",
"95 257 OFFCURVE",
"122 288 CURVE SMOOTH",
"195 373 OFFCURVE",
"281 449 OFFCURVE",
"382 499 CURVE SMOOTH",
"403 510 OFFCURVE",
"427 523 OFFCURVE",
"451 523 CURVE SMOOTH",
"468 523 OFFCURVE",
"477 519 OFFCURVE",
"477 501 CURVE SMOOTH",
"477 498 LINE SMOOTH",
"477 451 OFFCURVE",
"450 413 OFFCURVE",
"431 372 CURVE SMOOTH",
"384 275 OFFCURVE",
"327 184 OFFCURVE",
"281 87 CURVE SMOOTH",
"248 18 LINE SMOOTH",
"243 7 OFFCURVE",
"234 -5 OFFCURVE",
"234 -19 CURVE SMOOTH",
"234 -32 OFFCURVE",
"245 -41 OFFCURVE",
"257 -41 CURVE SMOOTH"
);
}
);
width = 672;
},
{
anchors = (
{
name = bottom;
position = "{482, 0}";
},
{
name = top;
position = "{652, 396}";
}
);
layerId = "A97A914C-B88D-4C15-9174-D82F9495701A";
paths = (
{
closed = 1;
nodes = (
"298 -43 OFFCURVE",
"306 -34 OFFCURVE",
"312 -24 CURVE SMOOTH",
"332 14 OFFCURVE",
"345 54 OFFCURVE",
"366 92 CURVE SMOOTH",
"421 188 OFFCURVE",
"478 286 OFFCURVE",
"561 363 CURVE SMOOTH",
"569 370 OFFCURVE",
"582 382 OFFCURVE",
"593 382 CURVE SMOOTH",
"609 382 OFFCURVE",
"612 355 OFFCURVE",
"612 330 CURVE SMOOTH",
"612 314 OFFCURVE",
"610 298 OFFCURVE",
"610 292 CURVE SMOOTH",
"608 262 OFFCURVE",
"607 231 OFFCURVE",
"607 200 CURVE SMOOTH",
"607 166 OFFCURVE",
"608 131 OFFCURVE",
"611 98 CURVE SMOOTH",
"614 65 OFFCURVE",
"632 -19 OFFCURVE",
"699 -14 CURVE SMOOTH",
"707 -14 OFFCURVE",
"724 -14 OFFCURVE",
"730 -8 CURVE SMOOTH",
"738 1 OFFCURVE",
"738 36 OFFCURVE",
"737 46 CURVE SMOOTH",
"737 48 OFFCURVE",
"737 50 OFFCURVE",
"735 53 CURVE",
"732 52 OFFCURVE",
"729 48 OFFCURVE",
"726 42 CURVE SMOOTH",
"720 30 OFFCURVE",
"708 -1 OFFCURVE",
"694 -1 CURVE SMOOTH",
"669 -1 OFFCURVE",
"664 64 OFFCURVE",
"663 80 CURVE SMOOTH",
"661 102 OFFCURVE",
"660 125 OFFCURVE",
"660 147 CURVE SMOOTH",
"660 197 OFFCURVE",
"665 245 OFFCURVE",
"673 291 CURVE SMOOTH",
"674 299 OFFCURVE",
"675 312 OFFCURVE",
"675 324 CURVE SMOOTH",
"675 335 OFFCURVE",
"674 346 OFFCURVE",
"671 353 CURVE SMOOTH",
"661 376 OFFCURVE",
"606 401 OFFCURVE",
"580 401 CURVE SMOOTH",
"544 401 OFFCURVE",
"515 357 OFFCURVE",
"494 331 CURVE SMOOTH",
"484 318 OFFCURVE",
"474 303 OFFCURVE",
"463 289 CURVE SMOOTH",
"420 233 OFFCURVE",
"387 170 OFFCURVE",
"344 111 CURVE",
"346 126 OFFCURVE",
"362 153 OFFCURVE",
"369 167 CURVE SMOOTH",
"396 225 OFFCURVE",
"429 280 OFFCURVE",
"460 336 CURVE SMOOTH",
"468 351 OFFCURVE",
"474 367 OFFCURVE",
"483 382 CURVE SMOOTH",
"498 409 OFFCURVE",
"515 437 OFFCURVE",
"515 469 CURVE SMOOTH",
"515 515 OFFCURVE",
"471 538 OFFCURVE",
"432 538 CURVE",
"427 536 OFFCURVE",
"421 535 OFFCURVE",
"416 534 CURVE SMOOTH",
"390 531 OFFCURVE",
"367 523 OFFCURVE",
"347 508 CURVE",
"346 509 LINE",
"340 505 OFFCURVE",
"335 503 OFFCURVE",
"331 501 CURVE SMOOTH",
"299 486 OFFCURVE",
"271 467 OFFCURVE",
"243 447 CURVE SMOOTH",
"226 435 OFFCURVE",
"207 425 OFFCURVE",
"190 411 CURVE SMOOTH",
"181 403 OFFCURVE",
"166 394 OFFCURVE",
"159 384 CURVE SMOOTH",
"156 380 OFFCURVE",
"154 375 OFFCURVE",
"151 371 CURVE",
"133 362 OFFCURVE",
"124 347 OFFCURVE",
"110 334 CURVE SMOOTH",
"103 327 OFFCURVE",
"94 321 OFFCURVE",
"87 314 CURVE SMOOTH",
"79 307 OFFCURVE",
"75 296 OFFCURVE",
"67 288 CURVE SMOOTH",
"39 256 OFFCURVE",
"-6 211 OFFCURVE",
"-2 164 CURVE SMOOTH",
"1 127 OFFCURVE",
"50 112 OFFCURVE",
"82 112 CURVE SMOOTH",
"110 112 OFFCURVE",
"144 122 OFFCURVE",
"174 133 CURVE SMOOTH",
"204 144 OFFCURVE",
"229 156 OFFCURVE",
"241 161 CURVE",
"248 161 OFFCURVE",
"255 163 OFFCURVE",
"255 167 CURVE SMOOTH",
"255 169 OFFCURVE",
"254 170 OFFCURVE",
"253 171 CURVE SMOOTH",
"251 172 OFFCURVE",
"249 172 OFFCURVE",
"245 173 CURVE",
"234 171 OFFCURVE",
"230 171 OFFCURVE",
"227 171 CURVE SMOOTH",
"221 170 OFFCURVE",
"215 162 OFFCURVE",
"146 151 CURVE SMOOTH",
"127 148 LINE SMOOTH",
"117 146 OFFCURVE",
"107 143 OFFCURVE",
"97 143 CURVE SMOOTH",
"79 143 OFFCURVE",
"60 145 OFFCURVE",
"60 165 CURVE SMOOTH",
"60 206 OFFCURVE",
"111 265 OFFCURVE",
"137 295 CURVE SMOOTH",
"209 380 OFFCURVE",
"271 447 OFFCURVE",
"377 497 CURVE SMOOTH",
"400 508 OFFCURVE",
"424 520 OFFCURVE",
"450 520 CURVE SMOOTH",
"469 520 OFFCURVE",
"477 516 OFFCURVE",
"477 494 CURVE SMOOTH",
"477 446 OFFCURVE",
"442 396 OFFCURVE",
"423 354 CURVE SMOOTH",
"380 257 OFFCURVE",
"323 182 OFFCURVE",
"280 85 CURVE SMOOTH",
"250 17 LINE SMOOTH",
"244 4 OFFCURVE",
"236 -8 OFFCURVE",
"238 -22 CURVE SMOOTH",
"239 -36 OFFCURVE",
"270 -43 OFFCURVE",
"284 -43 CURVE SMOOTH"
);
}
);
width = 734;
}
);
note = N;
unicode = 004E;
},
{
color = 0;
glyphname = Eng;
lastChange = "2021-11-09 21:30:26 +0000";
layers = (
{
anchors = (
{
name = bottom;
position = "{441, 0}";
},
{
name = top;
position = "{629, 387}";
}
);
background = {
paths = (
{
closed = 1;
nodes = (
"266 -233 OFFCURVE",
"330 -112 OFFCURVE",
"363 -17 CURVE SMOOTH",
"398 76 OFFCURVE",
"437 299 OFFCURVE",
"461 427 CURVE SMOOTH",
"462 433 OFFCURVE",
"462 437 OFFCURVE",
"462 440 CURVE SMOOTH",
"462 448 OFFCURVE",
"459 449 OFFCURVE",
"453 449 CURVE SMOOTH",
"441 449 OFFCURVE",
"440 436 OFFCURVE",
"438 432 CURVE",
"392 214 LINE SMOOTH",
"384 181 OFFCURVE",
"375 142 OFFCURVE",
"365 95 CURVE SMOOTH",
"362 82 OFFCURVE",
"358 67 OFFCURVE",
"353 51 CURVE",
"272 84 OFFCURVE",
"193 339 OFFCURVE",
"167 425 CURVE",
"163 428 OFFCURVE",
"147 446 OFFCURVE",
"142 446 CURVE SMOOTH",
"134 446 OFFCURVE",
"118 427 OFFCURVE",
"117 419 CURVE SMOOTH",
"117 416 OFFCURVE",
"118 413 OFFCURVE",
"118 410 CURVE SMOOTH",
"118 408 LINE",
"118 404 LINE",
"103 356 OFFCURVE",
"88 309 OFFCURVE",
"74 262 CURVE SMOOTH",
"44 164 OFFCURVE",
"12 64 OFFCURVE",
"5 -37 CURVE",
"4 -40 LINE",
"4 -44 OFFCURVE",
"5 -52 OFFCURVE",
"10 -52 CURVE SMOOTH",
"20 -52 OFFCURVE",
"25 -36 OFFCURVE",
"27 -30 CURVE",
"28 -21 OFFCURVE",
"29 -12 OFFCURVE",
"31 -4 CURVE SMOOTH",
"35 19 OFFCURVE",
"39 43 OFFCURVE",
"45 66 CURVE SMOOTH",
"61 147 OFFCURVE",
"83 227 OFFCURVE",
"107 307 CURVE SMOOTH",
"115 331 OFFCURVE",
"122 356 OFFCURVE",
"131 380 CURVE SMOOTH",
"134 390 LINE SMOOTH",
"135 394 OFFCURVE",
"134 400 OFFCURVE",
"137 400 CURVE SMOOTH",
"139 400 OFFCURVE",
"148 374 OFFCURVE",
"150 370 CURVE",
"159 343 OFFCURVE",
"168 315 OFFCURVE",
"178 289 CURVE SMOOTH",
"203 221 OFFCURVE",
"268 48 OFFCURVE",
"333 16 CURVE",
"333 11 OFFCURVE",
"335 4 OFFCURVE",
"337 -1 CURVE",
"305 -103 OFFCURVE",
"253 -218 OFFCURVE",
"186 -218 CURVE SMOOTH",
"163 -218 OFFCURVE",
"147 -200 OFFCURVE",
"136 -181 CURVE SMOOTH",
"127 -166 OFFCURVE",
"118 -145 OFFCURVE",
"119 -126 CURVE SMOOTH",
"119 -123 OFFCURVE",
"120 -113 OFFCURVE",
"115 -113 CURVE SMOOTH",
"107 -113 OFFCURVE",
"101 -133 OFFCURVE",
"101 -154 CURVE SMOOTH",
"101 -163 OFFCURVE",
"102 -172 OFFCURVE",
"104 -179 CURVE SMOOTH",
"114 -211 OFFCURVE",
"150 -233 OFFCURVE",
"184 -233 CURVE SMOOTH"
);
}
);
};
layerId = "F9847816-3BA7-404E-BAEF-52D5126F5321";
paths = (
{
closed = 1;
nodes = (
"627 375 OFFCURVE",
"584 399 OFFCURVE",
"561 399 CURVE SMOOTH",
"557 399 OFFCURVE",
"553 398 OFFCURVE",
"549 397 CURVE SMOOTH",
"521 387 OFFCURVE",
"497 352 OFFCURVE",
"479 330 CURVE SMOOTH",
"468 316 OFFCURVE",
"459 302 OFFCURVE",
"448 288 CURVE SMOOTH",
"403 231 OFFCURVE",
"368 167 OFFCURVE",
"325 110 CURVE",
"325 108 LINE",
"321 108 LINE",
"321 123 OFFCURVE",
"341 154 OFFCURVE",
"349 169 CURVE SMOOTH",
"378 226 OFFCURVE",
"412 281 OFFCURVE",
"445 337 CURVE SMOOTH",
"453 353 OFFCURVE",
"460 369 OFFCURVE",
"469 384 CURVE SMOOTH",
"484 408 OFFCURVE",
"500 433 OFFCURVE",
"505 463 CURVE",
"505 474 LINE SMOOTH",
"505 513 OFFCURVE",
"473 536 OFFCURVE",
"436 536 CURVE",
"432 533 OFFCURVE",
"426 532 OFFCURVE",
"421 532 CURVE",
"397 528 OFFCURVE",
"375 520 OFFCURVE",
"356 504 CURVE",
"355 506 LINE",
"351 503 OFFCURVE",
"346 501 OFFCURVE",
"342 498 CURVE",
"312 483 OFFCURVE",
"285 465 OFFCURVE",
"258 445 CURVE SMOOTH",
"241 433 OFFCURVE",
"222 422 OFFCURVE",
"206 409 CURVE SMOOTH",
"198 402 OFFCURVE",
"182 391 OFFCURVE",
"177 383 CURVE SMOOTH",
"168 369 LINE",
"150 360 OFFCURVE",
"141 345 OFFCURVE",
"127 332 CURVE SMOOTH",
"120 325 OFFCURVE",
"112 319 OFFCURVE",
"104 313 CURVE",
"97 305 OFFCURVE",
"92 294 OFFCURVE",
"85 286 CURVE SMOOTH",
"57 254 OFFCURVE",
"13 210 OFFCURVE",
"13 165 CURVE SMOOTH",
"13 129 OFFCURVE",
"54 114 OFFCURVE",
"83 114 CURVE SMOOTH",
"135 114 OFFCURVE",
"183 152 OFFCURVE",
"229 172 CURVE",
"229 173 LINE",
"230 173 LINE",
"230 175 LINE",
"122 140 LINE SMOOTH",
"116 138 OFFCURVE",
"109 138 OFFCURVE",
"104 137 CURVE SMOOTH",
"95 135 OFFCURVE",
"84 131 OFFCURVE",
"75 131 CURVE SMOOTH",
"60 131 OFFCURVE",
"42 134 OFFCURVE",
"42 153 CURVE SMOOTH",
"42 195 OFFCURVE",
"95 257 OFFCURVE",
"122 288 CURVE SMOOTH",
"195 373 OFFCURVE",
"281 449 OFFCURVE",
"382 499 CURVE SMOOTH",
"403 510 OFFCURVE",
"427 523 OFFCURVE",
"451 523 CURVE SMOOTH",
"468 523 OFFCURVE",
"477 519 OFFCURVE",
"477 501 CURVE SMOOTH",
"477 498 LINE SMOOTH",
"477 451 OFFCURVE",
"450 413 OFFCURVE",
"431 372 CURVE SMOOTH",
"384 275 OFFCURVE",
"327 184 OFFCURVE",
"281 87 CURVE SMOOTH",
"248 18 LINE SMOOTH",
"243 7 OFFCURVE",
"234 -5 OFFCURVE",
"234 -19 CURVE SMOOTH",
"234 -32 OFFCURVE",
"245 -41 OFFCURVE",
"257 -41 CURVE SMOOTH",
"269 -41 OFFCURVE",
"276 -32 OFFCURVE",
"282 -23 CURVE SMOOTH",
"303 15 OFFCURVE",
"318 56 OFFCURVE",
"341 93 CURVE SMOOTH",
"398 189 OFFCURVE",
"457 288 OFFCURVE",
"540 364 CURVE SMOOTH",
"548 372 OFFCURVE",
"561 385 OFFCURVE",
"573 385 CURVE SMOOTH",
"598 385 OFFCURVE",
"598 325 OFFCURVE",
"598 305 CURVE SMOOTH",
"598 242 OFFCURVE",
"589 180 OFFCURVE",
"589 117 CURVE SMOOTH",
"589 89 OFFCURVE",
"584 60 OFFCURVE",
"579 29 CURVE",
"572 16 OFFCURVE",
"575 0 OFFCURVE",
"563 -23 CURVE",
"563 -37 OFFCURVE",
"538 -120 OFFCURVE",
"530 -129 CURVE",
"530 -138 OFFCURVE",
"489 -207 OFFCURVE",
"483 -216 CURVE",
"475 -224 OFFCURVE",
"458 -245 OFFCURVE",
"445 -234 CURVE SMOOTH",
"441 -230 OFFCURVE",
"439 -225 OFFCURVE",
"438 -219 CURVE",
"436 -219 LINE",
"426 -179 OFFCURVE",
"423 -140 OFFCURVE",
"419 -99 CURVE",
"420 -94 OFFCURVE",
"418 -90 OFFCURVE",
"419 -86 CURVE",
"418 -84 LINE",
"417 -83 LINE",
"418 -76 OFFCURVE",
"417 -44 OFFCURVE",
"416 -37 CURVE",
"412 -40 LINE",
"412 -43 OFFCURVE",
"409 -49 OFFCURVE",
"412 -52 CURVE",
"411 -54 OFFCURVE",
"412 -99 OFFCURVE",
"412 -107 CURVE SMOOTH",
"408 -150 OFFCURVE",
"388 -203 OFFCURVE",
"428 -237 CURVE SMOOTH",
"455 -260 OFFCURVE",
"504 -251 OFFCURVE",
"523 -228 CURVE SMOOTH",
"573 -167 OFFCURVE",
"580 -95 OFFCURVE",
"592 -18 CURVE",
"595 -8 OFFCURVE",
"600 37 OFFCURVE",
"600 46 CURVE",
"607 105 LINE SMOOTH",
"607 108 OFFCURVE",
"613 153 OFFCURVE",
"613 156 CURVE SMOOTH",
"618 202 OFFCURVE",
"629 246 OFFCURVE",
"630 293 CURVE SMOOTH",
"631 309 OFFCURVE",
"635 324 OFFCURVE",
"635 340 CURVE SMOOTH",
"635 345 OFFCURVE",
"635 349 OFFCURVE",
"634 354 CURVE SMOOTH"
);
}
);
width = 645;
},
{
anchors = (
{
name = bottom;
position = "{482, 0}";
},
{
name = top;
position = "{652, 396}";
}
);
background = {
paths = (
{
closed = 1;
nodes = (
"271 -243 OFFCURVE",
"323 -116 OFFCURVE",
"356 -21 CURVE SMOOTH",
"391 73 OFFCURVE",
"446 297 OFFCURVE",
"470 425 CURVE",
"473 451 OFFCURVE",
"469 459 OFFCURVE",
"453 459 CURVE SMOOTH",
"441 459 OFFCURVE",
"432 450 OFFCURVE",
"429 435 CURVE SMOOTH",
"383 216 LINE SMOOTH",
"376 183 OFFCURVE",
"366 144 OFFCURVE",
"356 97 CURVE SMOOTH",
"355 92 OFFCURVE",
"353 86 OFFCURVE",
"352 79 CURVE",
"350 75 OFFCURVE",
"349 54 OFFCURVE",
"348 49 CURVE",
"296 81 OFFCURVE",
"233 234 OFFCURVE",
"176 428 CURVE",
"161 454 OFFCURVE",
"149 456 OFFCURVE",
"142 456 CURVE SMOOTH",
"130 456 OFFCURVE",
"109 434 OFFCURVE",
"108 419 CURVE SMOOTH",
"108 416 OFFCURVE",
"108 414 OFFCURVE",
"109 412 CURVE",
"109 406 LINE",
"106 395 OFFCURVE",
"102 383 OFFCURVE",
"98 373 CURVE",
"65 264 LINE SMOOTH",
"36 168 OFFCURVE",
"3 67 OFFCURVE",
"-4 -35 CURVE",
"-5 -38 LINE",
"-5 -52 OFFCURVE",
"0 -62 OFFCURVE",
"10 -62 CURVE SMOOTH",
"27 -62 OFFCURVE",
"24 -53 OFFCURVE",
"27 -33 CURVE",
"27 28 OFFCURVE",
"79 208 OFFCURVE",
"116 303 CURVE SMOOTH",
"118 308 OFFCURVE",
"119 313 OFFCURVE",
"120 317 CURVE SMOOTH",
"121 322 OFFCURVE",
"123 326 OFFCURVE",
"124 330 CURVE SMOOTH",
"127 339 LINE SMOOTH",
"131 351 OFFCURVE",
"134 362 OFFCURVE",
"139 373 CURVE",
"141 368 LINE",
"142 366 LINE",
"146 353 LINE SMOOTH",
"153 330 OFFCURVE",
"161 307 OFFCURVE",
"169 285 CURVE SMOOTH",
"194 219 OFFCURVE",
"259 48 OFFCURVE",
"325 10 CURVE",
"328 7 OFFCURVE",
"330 6 OFFCURVE",
"328 -1 CURVE SMOOTH",
"286 -135 OFFCURVE",
"235 -220 OFFCURVE",
"186 -220 CURVE SMOOTH",
"171 -220 OFFCURVE",
"156 -210 OFFCURVE",
"143 -187 CURVE SMOOTH",
"133 -170 OFFCURVE",
"128 -145 OFFCURVE",
"128 -130 CURVE SMOOTH",
"128 -112 OFFCURVE",
"126 -103 OFFCURVE",
"115 -103 CURVE SMOOTH",
"101 -103 OFFCURVE",
"91 -129 OFFCURVE",
"91 -155 CURVE SMOOTH",
"91 -164 OFFCURVE",
"92 -174 OFFCURVE",
"95 -182 CURVE SMOOTH",
"106 -217 OFFCURVE",
"144 -243 OFFCURVE",
"184 -243 CURVE SMOOTH"
);
},
{
closed = 1;
nodes = (
"981 -266 OFFCURVE",
"1012 -228 OFFCURVE",
"1012 -198 CURVE SMOOTH",
"1012 -119 OFFCURVE",
"971 -60 OFFCURVE",
"930 8 CURVE SMOOTH",
"925 16 OFFCURVE",
"918 24 OFFCURVE",
"913 32 CURVE SMOOTH",
"894 63 OFFCURVE",
"883 87 OFFCURVE",
"862 116 CURVE",
"852 116 OFFCURVE",
"810 142 OFFCURVE",
"810 130 CURVE SMOOTH",
"810 119 OFFCURVE",
"829 105 OFFCURVE",
"837 97 CURVE SMOOTH",
"840 94 OFFCURVE",
"843 88 OFFCURVE",
"847 85 CURVE SMOOTH",
"850 82 OFFCURVE",
"855 82 OFFCURVE",
"858 79 CURVE SMOOTH",
"866 72 OFFCURVE",
"903 9 OFFCURVE",
"904 -1 CURVE",
"909 -1 OFFCURVE",
"907 -9 OFFCURVE",
"911 -9 CURVE",
"911 -15 LINE",
"920 -26 OFFCURVE",
"954 -105 OFFCURVE",
"954 -118 CURVE",
"960 -125 OFFCURVE",
"973 -203 OFFCURVE",
"973 -215 CURVE SMOOTH",
"973 -225 OFFCURVE",
"973 -252 OFFCURVE",
"956 -252 CURVE SMOOTH",
"951 -252 OFFCURVE",
"945 -249 OFFCURVE",
"941 -246 CURVE",
"940 -247 LINE",
"906 -222 OFFCURVE",
"878 -195 OFFCURVE",
"850 -166 CURVE SMOOTH",
"847 -162 OFFCURVE",
"844 -159 OFFCURVE",
"841 -156 CURVE SMOOTH",
"840 -155 OFFCURVE",
"839 -154 OFFCURVE",
"839 -155 CURVE",
"838 -155 LINE",
"835 -149 OFFCURVE",
"813 -126 OFFCURVE",
"807 -120 CURVE",
"806 -125 LINE",
"808 -128 OFFCURVE",
"810 -135 OFFCURVE",
"814 -135 CURVE",
"815 -137 OFFCURVE",
"844 -171 OFFCURVE",
"849 -177 CURVE SMOOTH",
"874 -212 OFFCURVE",
"893 -266 OFFCURVE",
"946 -266 CURVE SMOOTH"
);
},
{
closed = 1;
nodes = (
"673 343 OFFCURVE",
"673 348 OFFCURVE",
"671 352 CURVE SMOOTH",
"664 373 OFFCURVE",
"614 399 OFFCURVE",
"589 399 CURVE SMOOTH",
"585 399 OFFCURVE",
"581 398 OFFCURVE",
"576 397 CURVE",
"547 387 OFFCURVE",
"521 353 OFFCURVE",
"503 330 CURVE SMOOTH",
"470 288 LINE SMOOTH",
"424 230 OFFCURVE",
"387 167 OFFCURVE",
"341 110 CURVE",
"341 108 LINE",
"337 108 LINE",
"337 123 OFFCURVE",
"358 154 OFFCURVE",
"366 169 CURVE SMOOTH",
"397 226 OFFCURVE",
"433 281 OFFCURVE",
"467 337 CURVE SMOOTH",
"476 353 OFFCURVE",
"483 369 OFFCURVE",
"493 384 CURVE SMOOTH",
"508 408 OFFCURVE",
"525 433 OFFCURVE",
"530 463 CURVE",
"530 467 OFFCURVE",
"531 470 OFFCURVE",
"531 474 CURVE SMOOTH",
"531 513 OFFCURVE",
"496 536 OFFCURVE",
"458 536 CURVE",
"453 533 OFFCURVE",
"448 532 OFFCURVE",
"442 532 CURVE",
"417 528 OFFCURVE",
"394 520 OFFCURVE",
"374 504 CURVE",
"373 506 LINE",
"368 503 OFFCURVE",
"363 501 OFFCURVE",
"359 498 CURVE",
"327 483 OFFCURVE",
"299 465 OFFCURVE",
"271 445 CURVE SMOOTH",
"253 433 OFFCURVE",
"234 422 OFFCURVE",
"217 409 CURVE SMOOTH",
"208 402 OFFCURVE",
"192 391 OFFCURVE",
"186 383 CURVE SMOOTH",
"182 378 OFFCURVE",
"179 374 OFFCURVE",
"176 369 CURVE",
"158 360 OFFCURVE",
"149 345 OFFCURVE",
"134 332 CURVE SMOOTH",
"126 325 OFFCURVE",
"117 319 OFFCURVE",
"110 313 CURVE SMOOTH",
"102 305 OFFCURVE",
"97 294 OFFCURVE",
"89 286 CURVE SMOOTH",
"59 254 OFFCURVE",
"14 210 OFFCURVE",
"14 165 CURVE SMOOTH",
"14 129 OFFCURVE",
"57 114 OFFCURVE",
"88 114 CURVE SMOOTH",
"142 114 OFFCURVE",
"221 154 OFFCURVE",
"245 163 CURVE",
"251 163 OFFCURVE",
"256 165 OFFCURVE",
"256 167 CURVE SMOOTH",
"256 169 OFFCURVE",
"254 170 OFFCURVE",
"250 170 CURVE SMOOTH",
"216 167 OFFCURVE",
"254 172 OFFCURVE",
"153 148 CURVE SMOOTH",
"147 147 OFFCURVE",
"140 147 OFFCURVE",
"134 146 CURVE SMOOTH",
"125 144 OFFCURVE",
"114 140 OFFCURVE",
"104 140 CURVE SMOOTH",
"88 140 OFFCURVE",
"69 143 OFFCURVE",
"69 162 CURVE SMOOTH",
"69 204 OFFCURVE",
"125 266 OFFCURVE",
"153 297 CURVE SMOOTH",
"230 382 OFFCURVE",
"295 449 OFFCURVE",
"401 499 CURVE SMOOTH",
"423 510 OFFCURVE",
"448 523 OFFCURVE",
"474 523 CURVE SMOOTH",
"491 523 OFFCURVE",
"500 519 OFFCURVE",
"500 501 CURVE SMOOTH",
"500 498 LINE SMOOTH",
"500 451 OFFCURVE",
"458 394 OFFCURVE",
"437 353 CURVE SMOOTH",
"388 256 OFFCURVE",
"327 181 OFFCURVE",
"278 84 CURVE SMOOTH",
"244 16 LINE SMOOTH",
"238 4 OFFCURVE",
"229 -8 OFFCURVE",
"229 -22 CURVE SMOOTH",
"229 -35 OFFCURVE",
"257 -41 OFFCURVE",
"270 -41 CURVE SMOOTH",
"282 -41 OFFCURVE",
"290 -32 OFFCURVE",
"296 -23 CURVE SMOOTH",
"318 15 OFFCURVE",
"334 56 OFFCURVE",
"358 93 CURVE SMOOTH",
"418 189 OFFCURVE",
"480 288 OFFCURVE",
"567 364 CURVE SMOOTH",
"575 372 OFFCURVE",
"589 385 OFFCURVE",
"601 385 CURVE SMOOTH",
"614 385 OFFCURVE",
"618 368 OFFCURVE",
"618 348 CURVE SMOOTH",
"618 326 OFFCURVE",
"614 301 OFFCURVE",
"612 291 CURVE SMOOTH",
"605 246 OFFCURVE",
"602 219 OFFCURVE",
"601 171 CURVE",
"600 167 OFFCURVE",
"602 134 OFFCURVE",
"602 128 CURVE SMOOTH",
"602 120 OFFCURVE",
"587 51 OFFCURVE",
"596 52 CURVE SMOOTH",
"592 48 OFFCURVE",
"587 42 OFFCURVE",
"587 27 CURVE",
"590 24 OFFCURVE",
"583 -7 OFFCURVE",
"587 -9 CURVE",
"582 -14 LINE",
"583 -28 OFFCURVE",
"559 -111 OFFCURVE",
"551 -120 CURVE",
"550 -129 OFFCURVE",
"510 -198 OFFCURVE",
"504 -208 CURVE",
"496 -215 OFFCURVE",
"480 -236 OFFCURVE",
"467 -225 CURVE",
"462 -222 OFFCURVE",
"460 -216 OFFCURVE",
"459 -211 CURVE",
"457 -211 LINE",
"448 -170 OFFCURVE",
"443 -132 OFFCURVE",
"439 -91 CURVE",
"440 -86 OFFCURVE",
"439 -82 OFFCURVE",
"439 -78 CURVE",
"438 -76 OFFCURVE",
"439 -75 OFFCURVE",
"438 -76 CURVE",
"438 -75 LINE SMOOTH",
"438 -68 OFFCURVE",
"437 -36 OFFCURVE",
"436 -29 CURVE",
"432 -32 LINE",
"431 -35 OFFCURVE",
"428 -41 OFFCURVE",
"432 -44 CURVE",
"431 -46 OFFCURVE",
"432 -91 OFFCURVE",
"432 -99 CURVE SMOOTH",
"428 -142 OFFCURVE",
"409 -196 OFFCURVE",
"450 -229 CURVE SMOOTH",
"477 -252 OFFCURVE",
"525 -243 OFFCURVE",
"544 -219 CURVE SMOOTH",
"594 -158 OFFCURVE",
"601 -86 OFFCURVE",
"612 -8 CURVE SMOOTH",
"614 2 OFFCURVE",
"616 12 OFFCURVE",
"618 21 CURVE SMOOTH",
"627 54 OFFCURVE",
"630 75 OFFCURVE",
"630 96 CURVE",
"630 97 OFFCURVE",
"631 112 OFFCURVE",
"631 114 CURVE SMOOTH",
"633 131 OFFCURVE",
"640 153 OFFCURVE",
"640 164 CURVE",
"645 216 OFFCURVE",
"655 240 OFFCURVE",
"668 291 CURVE SMOOTH",
"671 306 OFFCURVE",
"673 322 OFFCURVE",
"673 338 CURVE SMOOTH"
);
}
);
};
layerId = "A97A914C-B88D-4C15-9174-D82F9495701A";
paths = (
{
closed = 1;
nodes = (
"661 376 OFFCURVE",
"606 401 OFFCURVE",
"580 401 CURVE SMOOTH",
"544 401 OFFCURVE",
"515 357 OFFCURVE",
"494 331 CURVE SMOOTH",
"484 318 OFFCURVE",
"474 303 OFFCURVE",
"463 289 CURVE SMOOTH",
"420 233 OFFCURVE",
"387 170 OFFCURVE",
"344 111 CURVE",
"346 126 OFFCURVE",
"362 153 OFFCURVE",
"369 167 CURVE SMOOTH",
"396 225 OFFCURVE",
"429 280 OFFCURVE",
"460 336 CURVE SMOOTH",
"468 351 OFFCURVE",
"474 367 OFFCURVE",
"483 382 CURVE SMOOTH",
"498 409 OFFCURVE",
"515 437 OFFCURVE",
"515 469 CURVE SMOOTH",
"515 515 OFFCURVE",
"471 538 OFFCURVE",
"432 538 CURVE",
"427 536 OFFCURVE",
"421 535 OFFCURVE",
"416 534 CURVE SMOOTH",
"390 531 OFFCURVE",
"367 523 OFFCURVE",
"347 508 CURVE",
"346 509 LINE",
"340 505 OFFCURVE",
"335 503 OFFCURVE",
"331 501 CURVE SMOOTH",
"299 486 OFFCURVE",
"271 467 OFFCURVE",
"243 447 CURVE SMOOTH",
"226 435 OFFCURVE",
"207 425 OFFCURVE",
"190 411 CURVE SMOOTH",
"181 403 OFFCURVE",
"166 394 OFFCURVE",
"159 384 CURVE SMOOTH",
"156 380 OFFCURVE",
"154 375 OFFCURVE",
"151 371 CURVE",
"133 362 OFFCURVE",
"124 347 OFFCURVE",
"110 334 CURVE SMOOTH",
"103 327 OFFCURVE",
"94 321 OFFCURVE",
"87 314 CURVE SMOOTH",
"79 307 OFFCURVE",
"75 296 OFFCURVE",
"67 288 CURVE SMOOTH",
"39 256 OFFCURVE",
"-6 211 OFFCURVE",
"-2 164 CURVE SMOOTH",
"1 127 OFFCURVE",
"50 112 OFFCURVE",
"82 112 CURVE SMOOTH",
"110 112 OFFCURVE",
"144 122 OFFCURVE",
"174 133 CURVE SMOOTH",
"204 144 OFFCURVE",
"229 156 OFFCURVE",
"241 161 CURVE",
"248 161 OFFCURVE",
"255 163 OFFCURVE",
"255 167 CURVE SMOOTH",
"255 169 OFFCURVE",
"254 170 OFFCURVE",
"253 171 CURVE SMOOTH",
"251 172 OFFCURVE",
"249 172 OFFCURVE",
"245 173 CURVE",
"234 171 OFFCURVE",
"230 171 OFFCURVE",
"227 171 CURVE SMOOTH",
"221 170 OFFCURVE",
"215 162 OFFCURVE",
"146 151 CURVE SMOOTH",
"127 148 LINE SMOOTH",
"117 146 OFFCURVE",
"107 143 OFFCURVE",
"97 143 CURVE SMOOTH",
"79 143 OFFCURVE",
"60 145 OFFCURVE",
"60 165 CURVE SMOOTH",
"60 206 OFFCURVE",
"111 265 OFFCURVE",
"137 295 CURVE SMOOTH",
"209 380 OFFCURVE",
"271 447 OFFCURVE",
"377 497 CURVE SMOOTH",
"400 508 OFFCURVE",
"424 520 OFFCURVE",
"450 520 CURVE SMOOTH",
"469 520 OFFCURVE",
"477 516 OFFCURVE",
"477 494 CURVE SMOOTH",
"477 446 OFFCURVE",
"442 396 OFFCURVE",
"423 354 CURVE SMOOTH",
"380 257 OFFCURVE",
"323 182 OFFCURVE",
"280 85 CURVE SMOOTH",
"250 17 LINE SMOOTH",
"244 4 OFFCURVE",
"236 -8 OFFCURVE",
"238 -22 CURVE SMOOTH",
"239 -36 OFFCURVE",
"270 -43 OFFCURVE",
"284 -43 CURVE SMOOTH",
"298 -43 OFFCURVE",
"306 -34 OFFCURVE",
"312 -24 CURVE SMOOTH",
"332 14 OFFCURVE",
"345 54 OFFCURVE",
"366 92 CURVE SMOOTH",
"421 188 OFFCURVE",
"478 286 OFFCURVE",
"561 363 CURVE SMOOTH",
"569 370 OFFCURVE",
"582 382 OFFCURVE",
"593 382 CURVE SMOOTH",
"609 382 OFFCURVE",
"612 355 OFFCURVE",
"612 330 CURVE SMOOTH",
"612 314 OFFCURVE",
"610 298 OFFCURVE",
"610 292 CURVE SMOOTH",
"608 262 OFFCURVE",
"607 231 OFFCURVE",
"607 200 CURVE SMOOTH",
"607 166 OFFCURVE",
"597 119 OFFCURVE",
"600 86 CURVE SMOOTH",
"601 79 OFFCURVE",
"595 50 OFFCURVE",
"598 48 CURVE",
"594 31 OFFCURVE",
"595 22 OFFCURVE",
"592 18 CURVE",
"595 16 OFFCURVE",
"592 5 OFFCURVE",
"591 5 CURVE",
"590 -2 OFFCURVE",
"590 -10 OFFCURVE",
"589 -17 CURVE",
"589 -32 OFFCURVE",
"563 -111 OFFCURVE",
"554 -121 CURVE",
"555 -130 OFFCURVE",
"513 -196 OFFCURVE",
"505 -205 CURVE SMOOTH",
"499 -211 OFFCURVE",
"482 -231 OFFCURVE",
"469 -221 CURVE SMOOTH",
"465 -218 OFFCURVE",
"464 -211 OFFCURVE",
"461 -206 CURVE",
"449 -167 OFFCURVE",
"445 -125 OFFCURVE",
"441 -85 CURVE SMOOTH",
"440 -76 LINE SMOOTH",
"440 -75 OFFCURVE",
"439 -74 OFFCURVE",
"438 -73 CURVE",
"441 -70 OFFCURVE",
"438 -38 OFFCURVE",
"436 -25 CURVE",
"428 -32 LINE",
"427 -36 LINE SMOOTH",
"426 -39 OFFCURVE",
"426 -44 OFFCURVE",
"428 -47 CURVE",
"427 -51 OFFCURVE",
"428 -61 OFFCURVE",
"428 -71 CURVE SMOOTH",
"427 -83 OFFCURVE",
"428 -96 OFFCURVE",
"428 -100 CURVE SMOOTH",
"426 -122 OFFCURVE",
"421 -143 OFFCURVE",
"421 -166 CURVE SMOOTH",
"420 -188 OFFCURVE",
"427 -211 OFFCURVE",
"449 -228 CURVE SMOOTH",
"479 -251 OFFCURVE",
"532 -243 OFFCURVE",
"553 -220 CURVE SMOOTH",
"557 -216 OFFCURVE",
"561 -211 OFFCURVE",
"564 -206 CURVE",
"608 -149 OFFCURVE",
"618 -86 OFFCURVE",
"628 -19 CURVE SMOOTH",
"630 -8 OFFCURVE",
"631 0 OFFCURVE",
"632 10 CURVE SMOOTH",
"633 19 OFFCURVE",
"630 23 OFFCURVE",
"631 32 CURVE",
"635 36 OFFCURVE",
"643 79 OFFCURVE",
"643 83 CURVE SMOOTH",
"641 105 OFFCURVE",
"660 146 OFFCURVE",
"660 168 CURVE SMOOTH",
"660 218 OFFCURVE",
"665 245 OFFCURVE",
"673 291 CURVE SMOOTH",
"674 299 OFFCURVE",
"675 312 OFFCURVE",
"675 324 CURVE SMOOTH",
"675 335 OFFCURVE",
"674 346 OFFCURVE",
"671 353 CURVE SMOOTH"
);
}
);
width = 680;
}
);
unicode = 014A;
},
{
color = 9;
glyphname = O;
lastChange = "2021-10-28 23:18:39 +0000";
layers = (
{
anchors = (
{
name = bottom;
position = "{119, 0}";
},
{
name = center;
position = "{246, 250}";
},
{
name = ogonek;
position = "{158, 1}";
},
{
name = top;
position = "{445, 454}";
},
{
name = topleft;
position = "{20, 500}";
},
{
name = topright;
position = "{503, 387}";
}
);
layerId = "F9847816-3BA7-404E-BAEF-52D5126F5321";
paths = (
{
closed = 1;
nodes = (
"246 -14 OFFCURVE",
"294 -1 OFFCURVE",
"335 15 CURVE SMOOTH",
"402 42 OFFCURVE",
"462 93 OFFCURVE",
"503 152 CURVE SMOOTH",
"510 163 OFFCURVE",
"519 175 OFFCURVE",
"524 187 CURVE SMOOTH",
"528 196 OFFCURVE",
"530 208 OFFCURVE",
"533 217 CURVE SMOOTH",
"541 244 OFFCURVE",
"550 261 OFFCURVE",
"550 291 CURVE SMOOTH",
"550 424 OFFCURVE",
"424 464 OFFCURVE",
"321 464 CURVE SMOOTH",
"317 464 OFFCURVE",
"308 461 OFFCURVE",
"303 460 CURVE SMOOTH",
"300 460 OFFCURVE",
"297 459 OFFCURVE",
"294 459 CURVE SMOOTH",
"265 457 OFFCURVE",
"228 445 OFFCURVE",
"204 430 CURVE",
"172 429 OFFCURVE",
"41 319 OFFCURVE",
"41 285 CURVE SMOOTH",
"41 283 OFFCURVE",
"42 282 OFFCURVE",
"43 280 CURVE",
"43 277 LINE",
"37 275 OFFCURVE",
"28 248 OFFCURVE",
"25 241 CURVE",
"23 241 OFFCURVE",
"24 240 OFFCURVE",
"24 239 CURVE SMOOTH",
"24 224 OFFCURVE",
"21 209 OFFCURVE",
"21 194 CURVE SMOOTH",
"21 164 OFFCURVE",
"31 132 OFFCURVE",
"50 108 CURVE SMOOTH",
"58 99 OFFCURVE",
"68 91 OFFCURVE",
"75 82 CURVE SMOOTH",
"84 70 OFFCURVE",
"80 49 OFFCURVE",
"94 32 CURVE SMOOTH",
"119 -2 OFFCURVE",
"161 -14 OFFCURVE",
"202 -14 CURVE SMOOTH"
);
},
{
closed = 1;
nodes = (
"167 1 OFFCURVE",
"119 4 OFFCURVE",
"112 31 CURVE SMOOTH",
"110 40 OFFCURVE",
"106 49 OFFCURVE",
"106 58 CURVE SMOOTH",
"106 59 LINE",
"135 49 OFFCURVE",
"166 39 OFFCURVE",
"197 39 CURVE SMOOTH",
"203 39 OFFCURVE",
"211 39 OFFCURVE",
"216 43 CURVE",
"218 43 LINE",
"218 44 LINE",
"198 44 OFFCURVE",
"119 57 OFFCURVE",
"109 74 CURVE",
"107 76 OFFCURVE",
"107 80 OFFCURVE",
"107 83 CURVE SMOOTH",
"107 90 OFFCURVE",
"109 98 OFFCURVE",
"111 105 CURVE SMOOTH",
"124 175 OFFCURVE",
"194 272 OFFCURVE",
"253 311 CURVE SMOOTH",
"269 322 OFFCURVE",
"289 330 OFFCURVE",
"306 339 CURVE SMOOTH",
"320 346 OFFCURVE",
"336 356 OFFCURVE",
"352 356 CURVE SMOOTH",
"363 356 OFFCURVE",
"373 351 OFFCURVE",
"382 345 CURVE",
"382 346 LINE",
"382 346 OFFCURVE",
"383 347 OFFCURVE",
"383 348 CURVE SMOOTH",
"383 364 OFFCURVE",
"341 378 OFFCURVE",
"328 378 CURVE SMOOTH",
"323 378 OFFCURVE",
"317 377 OFFCURVE",
"313 375 CURVE",
"292 375 OFFCURVE",
"275 360 OFFCURVE",
"258 349 CURVE SMOOTH",
"192 304 OFFCURVE",
"137 243 OFFCURVE",
"103 171 CURVE SMOOTH",
"98 160 OFFCURVE",
"82 101 OFFCURVE",
"76 101 CURVE SMOOTH",
"59 101 OFFCURVE",
"45 166 OFFCURVE",
"45 178 CURVE SMOOTH",
"45 186 OFFCURVE",
"46 195 OFFCURVE",
"51 203 CURVE",
"51 309 OFFCURVE",
"176 408 OFFCURVE",
"270 435 CURVE SMOOTH",
"288 439 OFFCURVE",
"308 444 OFFCURVE",
"325 446 CURVE SMOOTH",
"334 447 OFFCURVE",
"344 449 OFFCURVE",
"353 449 CURVE SMOOTH",
"436 449 OFFCURVE",
"525 409 OFFCURVE",
"525 309 CURVE SMOOTH",
"525 219 OFFCURVE",
"470 145 OFFCURVE",
"403 90 CURVE SMOOTH",
"383 74 OFFCURVE",
"362 56 OFFCURVE",
"338 45 CURVE SMOOTH",
"323 38 OFFCURVE",
"281 18 OFFCURVE",
"267 14 CURVE SMOOTH",
"252 10 OFFCURVE",
"234 3 OFFCURVE",
"218 3 CURVE",
"218 2 LINE",
"208 2 OFFCURVE",
"198 1 OFFCURVE",
"189 1 CURVE SMOOTH"
);
}
);
width = 491;
},
{
anchors = (
{
name = bottom;
position = "{129, -4}";
},
{
name = center;
position = "{268, 250}";
},
{
name = ogonek;
position = "{249, 0}";
},
{
name = top;
position = "{450, 447}";
},
{
name = topleft;
position = "{20, 500}";
},
{
name = topright;
position = "{542, 386}";
}
);
layerId = "A97A914C-B88D-4C15-9174-D82F9495701A";
paths = (
{
closed = 1;
nodes = (
"277 -23 OFFCURVE",
"335 -6 OFFCURVE",
"379 10 CURVE SMOOTH",
"450 36 OFFCURVE",
"519 81 OFFCURVE",
"559 141 CURVE SMOOTH",
"567 152 OFFCURVE",
"575 164 OFFCURVE",
"580 176 CURVE SMOOTH",
"583 186 OFFCURVE",
"595 214 OFFCURVE",
"598 223 CURVE SMOOTH",
"601 237 OFFCURVE",
"602 246 OFFCURVE",
"602 256 CURVE SMOOTH",
"602 266 OFFCURVE",
"600 275 OFFCURVE",
"599 290 CURVE SMOOTH",
"589 412 OFFCURVE",
"425 467 OFFCURVE",
"312 467 CURVE SMOOTH",
"306 467 OFFCURVE",
"299 464 OFFCURVE",
"293 463 CURVE SMOOTH",
"257 457 OFFCURVE",
"198 456 OFFCURVE",
"167 437 CURVE",
"98 404 OFFCURVE",
"10 329 OFFCURVE",
"10 295 CURVE SMOOTH",
"10 292 OFFCURVE",
"11 289 OFFCURVE",
"12 287 CURVE",
"12 286 LINE",
"6 280 OFFCURVE",
"0 260 OFFCURVE",
"-3 251 CURVE",
"-5 251 OFFCURVE",
"-6 249 OFFCURVE",
"-5 248 CURVE",
"-5 247 LINE SMOOTH",
"-5 232 OFFCURVE",
"-5 217 OFFCURVE",
"-4 201 CURVE SMOOTH",
"-1 166 OFFCURVE",
"23 101 OFFCURVE",
"72 72 CURVE",
"75 55 OFFCURVE",
"82 47 OFFCURVE",
"98 30 CURVE SMOOTH",
"129 -4 OFFCURVE",
"184 -23 OFFCURVE",
"229 -23 CURVE SMOOTH"
);
},
{
closed = 1;
nodes = (
"182 4 OFFCURVE",
"131 7 OFFCURVE",
"122 32 CURVE SMOOTH",
"119 40 OFFCURVE",
"117 48 OFFCURVE",
"114 56 CURVE",
"146 46 OFFCURVE",
"179 36 OFFCURVE",
"212 36 CURVE SMOOTH",
"219 36 OFFCURVE",
"227 37 OFFCURVE",
"234 40 CURVE",
"237 40 LINE",
"236 47 LINE",
"212 47 OFFCURVE",
"126 60 OFFCURVE",
"115 75 CURVE SMOOTH",
"113 78 OFFCURVE",
"112 82 OFFCURVE",
"112 87 CURVE SMOOTH",
"112 93 OFFCURVE",
"113 100 OFFCURVE",
"114 104 CURVE SMOOTH",
"128 158 OFFCURVE",
"202 263 OFFCURVE",
"262 302 CURVE SMOOTH",
"280 313 OFFCURVE",
"299 321 OFFCURVE",
"317 330 CURVE SMOOTH",
"332 338 OFFCURVE",
"348 347 OFFCURVE",
"365 347 CURVE SMOOTH",
"377 347 OFFCURVE",
"388 342 OFFCURVE",
"402 333 CURVE",
"401 338 LINE",
"402 339 OFFCURVE",
"402 340 OFFCURVE",
"402 341 CURVE SMOOTH",
"401 360 OFFCURVE",
"340 380 OFFCURVE",
"327 380 CURVE SMOOTH",
"321 380 OFFCURVE",
"315 380 OFFCURVE",
"310 377 CURVE",
"287 377 OFFCURVE",
"259 363 OFFCURVE",
"242 352 CURVE SMOOTH",
"155 296 OFFCURVE",
"79 207 OFFCURVE",
"72 104 CURVE",
"56 109 OFFCURVE",
"37 167 OFFCURVE",
"36 178 CURVE SMOOTH",
"36 186 OFFCURVE",
"37 195 OFFCURVE",
"41 202 CURVE",
"33 307 OFFCURVE",
"159 406 OFFCURVE",
"260 432 CURVE SMOOTH",
"278 437 OFFCURVE",
"299 442 OFFCURVE",
"319 444 CURVE SMOOTH",
"328 445 OFFCURVE",
"339 447 OFFCURVE",
"348 447 CURVE SMOOTH",
"450 447 OFFCURVE",
"547 402 OFFCURVE",
"547 293 CURVE SMOOTH",
"547 211 OFFCURVE",
"496 143 OFFCURVE",
"431 92 CURVE SMOOTH",
"410 76 OFFCURVE",
"389 58 OFFCURVE",
"365 48 CURVE SMOOTH",
"357 44 OFFCURVE",
"342 37 OFFCURVE",
"327 31 CURVE SMOOTH",
"312 24 OFFCURVE",
"298 18 OFFCURVE",
"290 16 CURVE SMOOTH",
"272 12 OFFCURVE",
"254 6 OFFCURVE",
"235 5 CURVE",
"235 4 LINE",
"206 4 LINE SMOOTH"
);
}
);
width = 536;
}
);
leftKerningGroup = O;
note = O;
unicode = 004F;
},
{
color = 0;
glyphname = Oslash;
lastChange = "2021-11-09 21:26:26 +0000";
layers = (
{
components = (
{
name = O;
}
);
layerId = "F9847816-3BA7-404E-BAEF-52D5126F5321";
paths = (
{
closed = 1;
nodes = (
"153 -100 OFFCURVE",
"161 -95 OFFCURVE",
"162 -89 CURVE SMOOTH",
"163 -86 OFFCURVE",
"158 -86 OFFCURVE",
"158 -76 CURVE SMOOTH",
"158 -71 LINE",
"164 -36 OFFCURVE",
"209 30 OFFCURVE",
"228 59 CURVE SMOOTH",
"286 148 OFFCURVE",
"345 233 OFFCURVE",
"405 318 CURVE SMOOTH",
"432 356 OFFCURVE",
"461 394 OFFCURVE",
"488 434 CURVE SMOOTH",
"490 437 OFFCURVE",
"494 443 OFFCURVE",
"494 449 CURVE SMOOTH",
"494 460 OFFCURVE",
"476 465 OFFCURVE",
"469 465 CURVE SMOOTH",
"458 465 OFFCURVE",
"303 220 OFFCURVE",
"286 193 CURVE SMOOTH",
"263 157 OFFCURVE",
"241 120 OFFCURVE",
"219 83 CURVE SMOOTH",
"194 41 OFFCURVE",
"142 -37 OFFCURVE",
"142 -82 CURVE SMOOTH",
"142 -91 OFFCURVE",
"144 -100 OFFCURVE",
"150 -100 CURVE SMOOTH"
);
}
);
width = 491;
},
{
components = (
{
name = O;
}
);
layerId = "A97A914C-B88D-4C15-9174-D82F9495701A";
paths = (
{
closed = 1;
nodes = (
"186 -103 OFFCURVE",
"196 -96 OFFCURVE",
"196 -89 CURVE SMOOTH",
"196 -88 OFFCURVE",
"195 -86 OFFCURVE",
"194 -85 CURVE SMOOTH",
"192 -83 LINE",
"191 -81 OFFCURVE",
"190 -78 OFFCURVE",
"190 -71 CURVE SMOOTH",
"193 -37 OFFCURVE",
"237 28 OFFCURVE",
"255 58 CURVE SMOOTH",
"311 147 OFFCURVE",
"369 232 OFFCURVE",
"427 317 CURVE SMOOTH",
"454 355 OFFCURVE",
"482 392 OFFCURVE",
"508 432 CURVE SMOOTH",
"510 436 OFFCURVE",
"513 442 OFFCURVE",
"513 449 CURVE SMOOTH",
"513 462 OFFCURVE",
"491 468 OFFCURVE",
"483 468 CURVE SMOOTH",
"470 468 OFFCURVE",
"319 221 OFFCURVE",
"303 194 CURVE SMOOTH",
"282 158 OFFCURVE",
"260 121 OFFCURVE",
"239 84 CURVE SMOOTH",
"216 43 OFFCURVE",
"172 -26 OFFCURVE",
"168 -73 CURVE SMOOTH",
"168 -83 OFFCURVE",
"172 -103 OFFCURVE",
"181 -103 CURVE SMOOTH"
);
}
);
width = 536;
}
);
note = Oslash;
rightMetricsKey = O;
unicode = 00D8;
},
{
color = 0;
glyphname = OE;
lastChange = "2021-11-09 21:28:23 +0000";
layers = (
{
anchors = (
{
name = bottom;
position = "{507, -44}";
},
{
name = center;
position = "{246, 250}";
},
{
name = ogonek;
position = "{696, 5}";
},
{
name = top;
position = "{760, 454}";
},
{
name = topleft;
position = "{375, 500}";
},
{
name = topright;
position = "{503, 387}";
}
);
background = {
paths = (
{
closed = 1;
nodes = (
"552 -52 OFFCURVE",
"584 -44 OFFCURVE",
"616 -35 CURVE",
"616 -34 OFFCURVE",
"617 -34 OFFCURVE",
"618 -34 CURVE SMOOTH",
"629 -34 OFFCURVE",
"633 -26 OFFCURVE",
"642 -22 CURVE SMOOTH",
"654 -16 OFFCURVE",
"682 -14 OFFCURVE",
"682 5 CURVE",
"693 5 OFFCURVE",
"702 12 OFFCURVE",
"711 18 CURVE SMOOTH",
"742 42 OFFCURVE",
"774 88 OFFCURVE",
"774 128 CURVE SMOOTH",
"774 147 OFFCURVE",
"762 177 OFFCURVE",
"741 181 CURVE",
"741 180 LINE",
"740 178 OFFCURVE",
"746 174 OFFCURVE",
"747 172 CURVE",
"757 164 OFFCURVE",
"762 155 OFFCURVE",
"762 141 CURVE SMOOTH",
"762 121 OFFCURVE",
"749 98 OFFCURVE",
"737 81 CURVE SMOOTH",
"713 46 OFFCURVE",
"679 27 OFFCURVE",
"642 8 CURVE SMOOTH",
"632 3 OFFCURVE",
"621 -1 OFFCURVE",
"612 -7 CURVE",
"610 -9 LINE SMOOTH",
"611 -8 OFFCURVE",
"610 -8 OFFCURVE",
"610 -8 CURVE",
"605 -8 OFFCURVE",
"568 -22 OFFCURVE",
"560 -23 CURVE SMOOTH",
"542 -26 OFFCURVE",
"524 -30 OFFCURVE",
"506 -30 CURVE SMOOTH",
"454 -30 OFFCURVE",
"384 -28 OFFCURVE",
"378 36 CURVE",
"428 65 OFFCURVE",
"471 106 OFFCURVE",
"503 152 CURVE SMOOTH",
"510 163 OFFCURVE",
"519 175 OFFCURVE",
"524 187 CURVE SMOOTH",
"527 195 LINE",
"558 210 OFFCURVE",
"591 222 OFFCURVE",
"627 229 CURVE SMOOTH",
"644 233 OFFCURVE",
"662 236 OFFCURVE",
"679 236 CURVE SMOOTH",
"708 236 OFFCURVE",
"710 229 OFFCURVE",
"733 217 CURVE",
"733 218 LINE",
"734 220 LINE",
"732 243 OFFCURVE",
"712 272 OFFCURVE",
"688 272 CURVE SMOOTH",
"682 272 OFFCURVE",
"678 270 OFFCURVE",
"673 269 CURVE SMOOTH",
"669 268 OFFCURVE",
"664 268 OFFCURVE",
"658 268 CURVE SMOOTH",
"643 268 LINE SMOOTH",
"635 268 OFFCURVE",
"628 267 OFFCURVE",
"620 264 CURVE",
"610 264 OFFCURVE",
"600 263 OFFCURVE",
"591 263 CURVE SMOOTH",
"582 263 OFFCURVE",
"561 263 OFFCURVE",
"549 269 CURVE",
"550 275 OFFCURVE",
"550 282 OFFCURVE",
"550 291 CURVE SMOOTH",
"550 306 LINE",
"581 349 OFFCURVE",
"674 403 OFFCURVE",
"706 411 CURVE SMOOTH",
"717 413 OFFCURVE",
"777 425 OFFCURVE",
"786 425 CURVE SMOOTH",
"792 425 OFFCURVE",
"808 424 OFFCURVE",
"808 415 CURVE SMOOTH",
"808 399 OFFCURVE",
"775 362 OFFCURVE",
"775 329 CURVE SMOOTH",
"775 313 OFFCURVE",
"785 302 OFFCURVE",
"800 299 CURVE",
"805 304 LINE",
"799 307 OFFCURVE",
"795 313 OFFCURVE",
"795 319 CURVE SMOOTH",
"795 334 OFFCURVE",
"827 409 OFFCURVE",
"842 409 CURVE SMOOTH",
"850 409 OFFCURVE",
"854 388 OFFCURVE",
"854 382 CURVE SMOOTH",
"854 372 OFFCURVE",
"849 362 OFFCURVE",
"849 354 CURVE SMOOTH",
"849 352 LINE",
"860 353 OFFCURVE",
"865 377 OFFCURVE",
"865 386 CURVE SMOOTH",
"865 401 OFFCURVE",
"860 416 OFFCURVE",
"853 430 CURVE",
"859 430 OFFCURVE",
"884 486 OFFCURVE",
"915 485 CURVE",
"915 504 OFFCURVE",
"898 509 OFFCURVE",
"882 509 CURVE",
"862 491 OFFCURVE",
"846 470 OFFCURVE",
"831 448 CURVE",
"800 450 LINE SMOOTH",
"794 451 OFFCURVE",
"786 449 OFFCURVE",
"780 448 CURVE SMOOTH",
"742 442 LINE SMOOTH",
"737 441 OFFCURVE",
"732 439 OFFCURVE",
"727 438 CURVE SMOOTH",
"711 436 OFFCURVE",
"701 430 OFFCURVE",
"686 424 CURVE SMOOTH",
"651 412 OFFCURVE",
"578 383 OFFCURVE",
"541 345 CURVE",
"509 427 OFFCURVE",
"407 464 OFFCURVE",
"321 464 CURVE SMOOTH",
"317 464 OFFCURVE",
"308 461 OFFCURVE",
"303 460 CURVE SMOOTH",
"300 460 OFFCURVE",
"297 459 OFFCURVE",
"294 459 CURVE SMOOTH",
"265 457 OFFCURVE",
"228 445 OFFCURVE",
"204 430 CURVE",
"172 429 OFFCURVE",
"41 319 OFFCURVE",
"41 285 CURVE SMOOTH",
"41 283 OFFCURVE",
"42 282 OFFCURVE",
"43 280 CURVE",
"43 277 LINE",
"37 275 OFFCURVE",
"28 248 OFFCURVE",
"25 241 CURVE",
"23 241 OFFCURVE",
"24 240 OFFCURVE",
"24 239 CURVE SMOOTH",
"24 224 OFFCURVE",
"21 209 OFFCURVE",
"21 194 CURVE SMOOTH",
"21 164 OFFCURVE",
"31 132 OFFCURVE",
"50 108 CURVE SMOOTH",
"58 99 OFFCURVE",
"68 91 OFFCURVE",
"75 82 CURVE SMOOTH",
"84 70 OFFCURVE",
"80 49 OFFCURVE",
"94 32 CURVE SMOOTH",
"119 -2 OFFCURVE",
"161 -14 OFFCURVE",
"202 -14 CURVE SMOOTH",
"246 -14 OFFCURVE",
"294 -1 OFFCURVE",
"335 15 CURVE SMOOTH",
"346 19 OFFCURVE",
"356 24 OFFCURVE",
"367 30 CURVE",
"386 -27 OFFCURVE",
"463 -52 OFFCURVE",
"519 -52 CURVE SMOOTH"
);
},
{
closed = 1;
nodes = (
"167 1 OFFCURVE",
"119 4 OFFCURVE",
"112 31 CURVE SMOOTH",
"106 58 LINE",
"106 59 LINE",
"135 49 OFFCURVE",
"166 39 OFFCURVE",
"197 39 CURVE SMOOTH",
"203 39 OFFCURVE",
"211 39 OFFCURVE",
"216 43 CURVE",
"218 43 LINE",
"218 44 LINE",
"198 44 OFFCURVE",
"119 57 OFFCURVE",
"109 74 CURVE",
"107 76 OFFCURVE",
"107 80 OFFCURVE",
"107 83 CURVE SMOOTH",
"107 90 OFFCURVE",
"109 98 OFFCURVE",
"111 105 CURVE SMOOTH",
"124 175 OFFCURVE",
"194 272 OFFCURVE",
"253 311 CURVE SMOOTH",
"269 322 OFFCURVE",
"289 330 OFFCURVE",
"306 339 CURVE SMOOTH",
"320 346 OFFCURVE",
"336 356 OFFCURVE",
"352 356 CURVE SMOOTH",
"363 356 OFFCURVE",
"373 351 OFFCURVE",
"382 345 CURVE",
"382 346 LINE",
"382 346 OFFCURVE",
"383 347 OFFCURVE",
"383 348 CURVE SMOOTH",
"383 364 OFFCURVE",
"341 378 OFFCURVE",
"328 378 CURVE SMOOTH",
"323 378 OFFCURVE",
"317 377 OFFCURVE",
"313 375 CURVE",
"292 375 OFFCURVE",
"275 360 OFFCURVE",
"258 349 CURVE SMOOTH",
"192 304 OFFCURVE",
"137 243 OFFCURVE",
"103 171 CURVE SMOOTH",
"98 160 OFFCURVE",
"82 101 OFFCURVE",
"76 101 CURVE SMOOTH",
"59 101 OFFCURVE",
"45 166 OFFCURVE",
"45 178 CURVE SMOOTH",
"45 186 OFFCURVE",
"46 195 OFFCURVE",
"51 203 CURVE",
"51 309 OFFCURVE",
"176 408 OFFCURVE",
"270 435 CURVE SMOOTH",
"288 439 OFFCURVE",
"308 444 OFFCURVE",
"325 446 CURVE SMOOTH",
"334 447 OFFCURVE",
"344 449 OFFCURVE",
"353 449 CURVE SMOOTH",
"437 449 OFFCURVE",
"517 412 OFFCURVE",
"525 323 CURVE",
"521 316 OFFCURVE",
"518 308 OFFCURVE",
"518 299 CURVE SMOOTH",
"518 291 OFFCURVE",
"520 284 OFFCURVE",
"523 278 CURVE",
"520 257 OFFCURVE",
"514 237 OFFCURVE",
"506 218 CURVE",
"441 186 OFFCURVE",
"362 125 OFFCURVE",
"362 59 CURVE",
"354 54 OFFCURVE",
"346 49 OFFCURVE",
"338 45 CURVE SMOOTH",
"323 38 OFFCURVE",
"281 18 OFFCURVE",
"267 14 CURVE SMOOTH",
"252 10 OFFCURVE",
"234 3 OFFCURVE",
"218 3 CURVE",
"218 2 LINE",
"208 2 OFFCURVE",
"198 1 OFFCURVE",
"189 1 CURVE SMOOTH"
);
},
{
closed = 1;
nodes = (
"385 83 OFFCURVE",
"389 92 OFFCURVE",
"394 100 CURVE SMOOTH",
"409 125 OFFCURVE",
"435 142 OFFCURVE",
"459 157 CURVE SMOOTH",
"465 161 OFFCURVE",
"471 165 OFFCURVE",
"478 168 CURVE",
"457 139 OFFCURVE",
"431 113 OFFCURVE",
"403 90 CURVE SMOOTH",
"382 74 LINE"
);
},
{
closed = 1;
nodes = (
"541 241 OFFCURVE",
"544 249 OFFCURVE",
"546 257 CURVE",
"555 253 OFFCURVE",
"566 250 OFFCURVE",
"577 248 CURVE",
"577 246 LINE",
"541 233 LINE",
"538 232 LINE"
);
}
);
};
layerId = "F9847816-3BA7-404E-BAEF-52D5126F5321";
paths = (
{
closed = 1;
nodes = (
"555 -52 OFFCURVE",
"588 -44 OFFCURVE",
"620 -35 CURVE",
"619 -34 OFFCURVE",
"621 -34 OFFCURVE",
"622 -34 CURVE SMOOTH",
"632 -34 OFFCURVE",
"636 -26 OFFCURVE",
"645 -22 CURVE SMOOTH",
"657 -16 OFFCURVE",
"685 -14 OFFCURVE",
"686 5 CURVE",
"696 5 OFFCURVE",
"706 12 OFFCURVE",
"714 18 CURVE SMOOTH",
"745 42 OFFCURVE",
"777 88 OFFCURVE",
"777 128 CURVE SMOOTH",
"777 147 OFFCURVE",
"766 177 OFFCURVE",
"745 181 CURVE",
"745 180 LINE",
"743 178 OFFCURVE",
"749 174 OFFCURVE",
"750 172 CURVE",
"760 164 OFFCURVE",
"765 155 OFFCURVE",
"765 141 CURVE SMOOTH",
"765 121 OFFCURVE",
"752 98 OFFCURVE",
"741 81 CURVE SMOOTH",
"717 46 OFFCURVE",
"682 27 OFFCURVE",
"646 8 CURVE SMOOTH",
"635 3 OFFCURVE",
"624 -1 OFFCURVE",
"615 -7 CURVE SMOOTH",
"614 -8 OFFCURVE",
"614 -8 OFFCURVE",
"614 -9 CURVE",
"614 -8 OFFCURVE",
"613 -8 OFFCURVE",
"613 -8 CURVE",
"609 -8 OFFCURVE",
"572 -22 OFFCURVE",
"563 -23 CURVE SMOOTH",
"545 -26 OFFCURVE",
"527 -30 OFFCURVE",
"509 -30 CURVE SMOOTH",
"455 -30 OFFCURVE",
"381 -28 OFFCURVE",
"381 45 CURVE SMOOTH",
"381 64 OFFCURVE",
"387 84 OFFCURVE",
"397 100 CURVE SMOOTH",
"412 125 OFFCURVE",
"438 142 OFFCURVE",
"462 157 CURVE SMOOTH",
"516 191 OFFCURVE",
"568 217 OFFCURVE",
"630 229 CURVE SMOOTH",
"647 233 OFFCURVE",
"665 236 OFFCURVE",
"682 236 CURVE SMOOTH",
"711 236 OFFCURVE",
"713 229 OFFCURVE",
"736 217 CURVE",
"736 218 LINE",
"737 220 LINE",
"736 243 OFFCURVE",
"716 272 OFFCURVE",
"691 272 CURVE SMOOTH",
"685 272 OFFCURVE",
"681 270 OFFCURVE",
"676 269 CURVE SMOOTH",
"672 268 OFFCURVE",
"667 268 OFFCURVE",
"661 268 CURVE SMOOTH",
"646 268 LINE SMOOTH",
"638 268 OFFCURVE",
"631 267 OFFCURVE",
"623 264 CURVE",
"612 264 OFFCURVE",
"601 263 OFFCURVE",
"590 263 CURVE SMOOTH",
"574 263 OFFCURVE",
"543 264 OFFCURVE",
"543 281 CURVE SMOOTH",
"543 325 OFFCURVE",
"671 402 OFFCURVE",
"709 411 CURVE SMOOTH",
"721 413 OFFCURVE",
"780 425 OFFCURVE",
"789 425 CURVE SMOOTH",
"795 425 OFFCURVE",
"811 424 OFFCURVE",
"811 415 CURVE SMOOTH",
"811 399 OFFCURVE",
"778 362 OFFCURVE",
"778 329 CURVE SMOOTH",
"778 313 OFFCURVE",
"788 302 OFFCURVE",
"803 299 CURVE",
"808 304 LINE",
"802 307 OFFCURVE",
"798 313 OFFCURVE",
"798 319 CURVE SMOOTH",
"798 334 OFFCURVE",
"831 409 OFFCURVE",
"845 409 CURVE SMOOTH",
"853 409 OFFCURVE",
"857 388 OFFCURVE",
"857 382 CURVE SMOOTH",
"857 372 OFFCURVE",
"853 362 OFFCURVE",
"853 354 CURVE SMOOTH",
"853 352 LINE",
"863 353 OFFCURVE",
"868 377 OFFCURVE",
"868 386 CURVE SMOOTH",
"868 401 OFFCURVE",
"863 416 OFFCURVE",
"856 430 CURVE",
"862 430 OFFCURVE",
"887 486 OFFCURVE",
"919 485 CURVE",
"919 504 OFFCURVE",
"901 509 OFFCURVE",
"885 509 CURVE",
"865 491 OFFCURVE",
"849 470 OFFCURVE",
"835 448 CURVE",
"803 450 LINE SMOOTH",
"797 450 OFFCURVE",
"789 449 OFFCURVE",
"783 448 CURVE SMOOTH",
"746 442 LINE",
"730 438 LINE SMOOTH",
"714 434 OFFCURVE",
"704 430 OFFCURVE",
"689 424 CURVE SMOOTH",
"642 407 OFFCURVE",
"522 359 OFFCURVE",
"522 299 CURVE SMOOTH",
"522 264 OFFCURVE",
"551 254 OFFCURVE",
"580 248 CURVE",
"580 246 LINE",
"544 233 LINE SMOOTH",
"478 209 OFFCURVE",
"365 138 OFFCURVE",
"365 59 CURVE SMOOTH",
"365 -19 OFFCURVE",
"457 -52 OFFCURVE",
"522 -52 CURVE SMOOTH"
);
},
{
closed = 1;
nodes = (
"534 429 OFFCURVE",
"417 464 OFFCURVE",
"321 464 CURVE SMOOTH",
"317 464 OFFCURVE",
"308 461 OFFCURVE",
"303 460 CURVE SMOOTH",
"300 460 OFFCURVE",
"297 459 OFFCURVE",
"294 459 CURVE SMOOTH",
"265 457 OFFCURVE",
"228 445 OFFCURVE",
"204 430 CURVE",
"172 429 OFFCURVE",
"41 319 OFFCURVE",
"41 285 CURVE SMOOTH",
"41 283 OFFCURVE",
"42 282 OFFCURVE",
"43 280 CURVE",
"43 277 LINE",
"37 275 OFFCURVE",
"28 248 OFFCURVE",
"25 241 CURVE",
"23 241 OFFCURVE",
"24 240 OFFCURVE",
"24 239 CURVE SMOOTH",
"24 224 OFFCURVE",
"21 209 OFFCURVE",
"21 194 CURVE SMOOTH",
"21 164 OFFCURVE",
"31 132 OFFCURVE",
"50 108 CURVE SMOOTH",
"58 99 OFFCURVE",
"68 91 OFFCURVE",
"75 82 CURVE SMOOTH",
"84 70 OFFCURVE",
"80 49 OFFCURVE",
"94 32 CURVE SMOOTH",
"119 -2 OFFCURVE",
"161 -14 OFFCURVE",
"202 -14 CURVE SMOOTH",
"246 -14 OFFCURVE",
"294 -1 OFFCURVE",
"335 15 CURVE SMOOTH",
"349 20 OFFCURVE",
"362 27 OFFCURVE",
"375 34 CURVE",
"372 66 LINE",
"361 58 OFFCURVE",
"350 51 OFFCURVE",
"338 45 CURVE SMOOTH",
"323 38 OFFCURVE",
"281 18 OFFCURVE",
"267 14 CURVE SMOOTH",
"252 10 OFFCURVE",
"234 3 OFFCURVE",
"218 3 CURVE",
"218 2 LINE",
"208 2 OFFCURVE",
"198 1 OFFCURVE",
"189 1 CURVE SMOOTH",
"167 1 OFFCURVE",
"119 4 OFFCURVE",
"112 31 CURVE SMOOTH",
"110 40 OFFCURVE",
"106 49 OFFCURVE",
"106 58 CURVE SMOOTH",
"106 59 LINE",
"135 49 OFFCURVE",
"166 39 OFFCURVE",
"197 39 CURVE SMOOTH",
"203 39 OFFCURVE",
"211 39 OFFCURVE",
"216 43 CURVE",
"218 43 LINE",
"218 44 LINE",
"198 44 OFFCURVE",
"119 57 OFFCURVE",
"109 74 CURVE",
"107 76 OFFCURVE",
"107 80 OFFCURVE",
"107 83 CURVE SMOOTH",
"107 90 OFFCURVE",
"109 98 OFFCURVE",
"111 105 CURVE SMOOTH",
"124 175 OFFCURVE",
"194 272 OFFCURVE",
"253 311 CURVE SMOOTH",
"269 322 OFFCURVE",
"289 330 OFFCURVE",
"306 339 CURVE SMOOTH",
"320 346 OFFCURVE",
"336 356 OFFCURVE",
"352 356 CURVE SMOOTH",
"363 356 OFFCURVE",
"373 351 OFFCURVE",
"382 345 CURVE",
"382 346 LINE",
"382 346 OFFCURVE",
"383 347 OFFCURVE",
"383 348 CURVE SMOOTH",
"383 364 OFFCURVE",
"341 378 OFFCURVE",
"328 378 CURVE SMOOTH",
"323 378 OFFCURVE",
"317 377 OFFCURVE",
"313 375 CURVE",
"292 375 OFFCURVE",
"275 360 OFFCURVE",
"258 349 CURVE SMOOTH",
"192 304 OFFCURVE",
"137 243 OFFCURVE",
"103 171 CURVE SMOOTH",
"98 160 OFFCURVE",
"82 101 OFFCURVE",
"76 101 CURVE SMOOTH",
"59 101 OFFCURVE",
"45 166 OFFCURVE",
"45 178 CURVE SMOOTH",
"45 186 OFFCURVE",
"46 195 OFFCURVE",
"51 203 CURVE",
"51 309 OFFCURVE",
"176 408 OFFCURVE",
"270 435 CURVE SMOOTH",
"288 439 OFFCURVE",
"308 444 OFFCURVE",
"325 446 CURVE SMOOTH",
"334 447 OFFCURVE",
"344 449 OFFCURVE",
"353 449 CURVE SMOOTH",
"436 449 OFFCURVE",
"525 409 OFFCURVE",
"525 309 CURVE SMOOTH",
"525 308 OFFCURVE",
"525 306 OFFCURVE",
"525 305 CURVE",
"548 316 LINE"
);
}
);
width = 804;
},
{
anchors = (
{
name = bottom;
position = "{504, -56}";
},
{
name = center;
position = "{268, 250}";
},
{
name = ogonek;
position = "{837, 10}";
},
{
name = top;
position = "{732, 463}";
},
{
name = topleft;
position = "{375, 500}";
},
{
name = topright;
position = "{542, 386}";
}
);
layerId = "A97A914C-B88D-4C15-9174-D82F9495701A";
paths = (
{
closed = 1;
nodes = (
"597 -61 OFFCURVE",
"632 -53 OFFCURVE",
"667 -44 CURVE",
"667 -43 LINE",
"668 -43 LINE SMOOTH",
"680 -43 OFFCURVE",
"684 -35 OFFCURVE",
"694 -31 CURVE",
"706 -24 OFFCURVE",
"735 -22 OFFCURVE",
"737 -4 CURVE",
"745 -4 OFFCURVE",
"753 1 OFFCURVE",
"759 5 CURVE SMOOTH",
"792 29 OFFCURVE",
"831 76 OFFCURVE",
"827 122 CURVE SMOOTH",
"825 143 OFFCURVE",
"790 179 OFFCURVE",
"763 184 CURVE",
"763 180 LINE SMOOTH",
"763 175 OFFCURVE",
"768 173 OFFCURVE",
"771 170 CURVE",
"783 162 OFFCURVE",
"789 153 OFFCURVE",
"789 139 CURVE SMOOTH",
"789 120 OFFCURVE",
"779 98 OFFCURVE",
"768 83 CURVE SMOOTH",
"745 49 OFFCURVE",
"709 30 OFFCURVE",
"671 11 CURVE SMOOTH",
"660 6 OFFCURVE",
"648 1 OFFCURVE",
"638 -5 CURVE",
"637 -5 LINE SMOOTH",
"635 -5 OFFCURVE",
"624 -9 OFFCURVE",
"612 -12 CURVE SMOOTH",
"600 -16 OFFCURVE",
"589 -20 OFFCURVE",
"584 -21 CURVE SMOOTH",
"565 -24 OFFCURVE",
"546 -28 OFFCURVE",
"526 -28 CURVE SMOOTH",
"464 -28 OFFCURVE",
"387 -18 OFFCURVE",
"387 51 CURVE SMOOTH",
"387 66 OFFCURVE",
"391 82 OFFCURVE",
"399 95 CURVE SMOOTH",
"412 118 OFFCURVE",
"436 134 OFFCURVE",
"460 148 CURVE SMOOTH",
"512 179 OFFCURVE",
"564 202 OFFCURVE",
"631 215 CURVE SMOOTH",
"650 218 OFFCURVE",
"668 221 OFFCURVE",
"687 221 CURVE SMOOTH",
"703 221 OFFCURVE",
"713 222 OFFCURVE",
"722 222 CURVE SMOOTH",
"731 222 OFFCURVE",
"740 221 OFFCURVE",
"756 213 CURVE",
"756 218 LINE",
"757 220 LINE",
"753 244 OFFCURVE",
"728 274 OFFCURVE",
"699 274 CURVE SMOOTH",
"694 274 OFFCURVE",
"688 272 OFFCURVE",
"683 271 CURVE SMOOTH",
"678 270 OFFCURVE",
"672 270 OFFCURVE",
"667 270 CURVE SMOOTH",
"651 270 LINE SMOOTH",
"642 270 OFFCURVE",
"634 269 OFFCURVE",
"626 266 CURVE",
"594 266 LINE SMOOTH",
"583 266 OFFCURVE",
"540 264 OFFCURVE",
"539 282 CURVE SMOOTH",
"534 343 OFFCURVE",
"719 423 OFFCURVE",
"794 423 CURVE SMOOTH",
"800 423 OFFCURVE",
"816 423 OFFCURVE",
"816 415 CURVE SMOOTH",
"817 400 OFFCURVE",
"787 364 OFFCURVE",
"787 332 CURVE SMOOTH",
"787 313 OFFCURVE",
"809 294 OFFCURVE",
"829 290 CURVE",
"837 298 LINE",
"828 303 OFFCURVE",
"824 308 OFFCURVE",
"823 313 CURVE SMOOTH",
"822 328 OFFCURVE",
"852 401 OFFCURVE",
"864 401 CURVE SMOOTH",
"873 401 OFFCURVE",
"877 381 OFFCURVE",
"878 376 CURVE SMOOTH",
"878 371 OFFCURVE",
"877 367 OFFCURVE",
"876 362 CURVE SMOOTH",
"875 354 OFFCURVE",
"875 351 OFFCURVE",
"876 343 CURVE",
"889 345 OFFCURVE",
"894 366 OFFCURVE",
"894 377 CURVE SMOOTH",
"894 393 OFFCURVE",
"887 409 OFFCURVE",
"878 423 CURVE",
"885 431 LINE SMOOTH",
"901 449 OFFCURVE",
"915 477 OFFCURVE",
"941 476 CURVE",
"939 501 OFFCURVE",
"909 511 OFFCURVE",
"891 511 CURVE",
"870 494 OFFCURVE",
"855 472 OFFCURVE",
"841 451 CURVE",
"827 460 OFFCURVE",
"804 463 OFFCURVE",
"779 463 CURVE SMOOTH",
"732 463 OFFCURVE",
"676 451 OFFCURVE",
"650 442 CURVE SMOOTH",
"600 426 OFFCURVE",
"486 371 OFFCURVE",
"492 309 CURVE SMOOTH",
"494 273 OFFCURVE",
"543 253 OFFCURVE",
"575 247 CURVE",
"541 235 LINE SMOOTH",
"472 211 OFFCURVE",
"348 139 OFFCURVE",
"354 58 CURVE SMOOTH",
"362 -40 OFFCURVE",
"491 -61 OFFCURVE",
"561 -61 CURVE SMOOTH"
);
},
{
closed = 1;
nodes = (
"508 437 OFFCURVE",
"396 467 OFFCURVE",
"312 467 CURVE SMOOTH",
"306 467 OFFCURVE",
"299 464 OFFCURVE",
"293 463 CURVE SMOOTH",
"257 457 OFFCURVE",
"198 456 OFFCURVE",
"167 437 CURVE",
"98 404 OFFCURVE",
"10 329 OFFCURVE",
"10 295 CURVE SMOOTH",
"10 292 OFFCURVE",
"11 289 OFFCURVE",
"12 287 CURVE",
"12 286 LINE",
"6 280 OFFCURVE",
"0 260 OFFCURVE",
"-3 251 CURVE",
"-5 251 OFFCURVE",
"-6 249 OFFCURVE",
"-5 248 CURVE",
"-5 247 LINE SMOOTH",
"-5 232 OFFCURVE",
"-5 217 OFFCURVE",
"-4 201 CURVE SMOOTH",
"-1 166 OFFCURVE",
"23 101 OFFCURVE",
"72 72 CURVE",
"75 55 OFFCURVE",
"82 47 OFFCURVE",
"98 30 CURVE SMOOTH",
"129 -4 OFFCURVE",
"184 -23 OFFCURVE",
"229 -23 CURVE SMOOTH",
"277 -23 OFFCURVE",
"335 -6 OFFCURVE",
"379 10 CURVE SMOOTH",
"380 11 OFFCURVE",
"382 11 OFFCURVE",
"383 12 CURVE",
"372 51 LINE",
"369 50 OFFCURVE",
"367 49 OFFCURVE",
"365 48 CURVE SMOOTH",
"357 44 OFFCURVE",
"342 37 OFFCURVE",
"327 31 CURVE SMOOTH",
"312 24 OFFCURVE",
"298 18 OFFCURVE",
"290 16 CURVE SMOOTH",
"272 12 OFFCURVE",
"254 6 OFFCURVE",
"235 5 CURVE",
"235 4 LINE",
"206 4 LINE SMOOTH",
"182 4 OFFCURVE",
"131 7 OFFCURVE",
"122 32 CURVE SMOOTH",
"119 40 OFFCURVE",
"117 48 OFFCURVE",
"114 56 CURVE",
"146 46 OFFCURVE",
"179 36 OFFCURVE",
"212 36 CURVE SMOOTH",
"219 36 OFFCURVE",
"227 37 OFFCURVE",
"234 40 CURVE",
"237 40 LINE",
"236 47 LINE",
"212 47 OFFCURVE",
"126 60 OFFCURVE",
"115 75 CURVE SMOOTH",
"113 78 OFFCURVE",
"112 82 OFFCURVE",
"112 87 CURVE SMOOTH",
"112 93 OFFCURVE",
"113 100 OFFCURVE",
"114 104 CURVE SMOOTH",
"128 158 OFFCURVE",
"202 263 OFFCURVE",
"262 302 CURVE SMOOTH",
"280 313 OFFCURVE",
"299 321 OFFCURVE",
"317 330 CURVE SMOOTH",
"332 338 OFFCURVE",
"348 347 OFFCURVE",
"365 347 CURVE SMOOTH",
"377 347 OFFCURVE",
"388 342 OFFCURVE",
"402 333 CURVE",
"401 338 LINE",
"402 339 OFFCURVE",
"402 340 OFFCURVE",
"402 341 CURVE SMOOTH",
"401 360 OFFCURVE",
"340 380 OFFCURVE",
"327 380 CURVE SMOOTH",
"321 380 OFFCURVE",
"315 380 OFFCURVE",
"310 377 CURVE",
"287 377 OFFCURVE",
"259 363 OFFCURVE",
"242 352 CURVE SMOOTH",
"155 296 OFFCURVE",
"79 207 OFFCURVE",
"72 104 CURVE",
"56 109 OFFCURVE",
"37 167 OFFCURVE",
"36 178 CURVE SMOOTH",
"36 186 OFFCURVE",
"37 195 OFFCURVE",
"41 202 CURVE",
"33 307 OFFCURVE",
"159 406 OFFCURVE",
"260 432 CURVE SMOOTH",
"278 437 OFFCURVE",
"299 442 OFFCURVE",
"319 444 CURVE SMOOTH",
"328 445 OFFCURVE",
"339 447 OFFCURVE",
"348 447 CURVE SMOOTH",
"433 447 OFFCURVE",
"514 416 OFFCURVE",
"539 343 CURVE",
"564 371 LINE"
);
}
);
width = 859;
}
);
note = OE;
rightMetricsKey = E;
unicode = 0152;
},
{
color = 9;
glyphname = P;
lastChange = "2021-11-25 01:16:56 +0000";
layers = (
{
layerId = "F9847816-3BA7-404E-BAEF-52D5126F5321";
paths = (
{
closed = 1;
nodes = (
"389 171 OFFCURVE",
"414 175 OFFCURVE",
"436 177 CURVE SMOOTH",
"449 178 OFFCURVE",
"463 182 OFFCURVE",
"476 186 CURVE SMOOTH",
"530 200 OFFCURVE",
"588 225 OFFCURVE",
"619 275 CURVE SMOOTH",
"629 291 OFFCURVE",
"636 311 OFFCURVE",
"636 330 CURVE SMOOTH",
"636 393 OFFCURVE",
"574 436 OFFCURVE",
"519 451 CURVE SMOOTH",
"489 459 OFFCURVE",
"453 458 OFFCURVE",
"422 458 CURVE SMOOTH",
"421 458 OFFCURVE",
"375 454 OFFCURVE",
"372 452 CURVE",
"365 453 OFFCURVE",
"345 449 OFFCURVE",
"340 445 CURVE",
"328 445 OFFCURVE",
"315 443 OFFCURVE",
"304 437 CURVE",
"288 437 OFFCURVE",
"219 413 OFFCURVE",
"200 406 CURVE SMOOTH",
"191 402 OFFCURVE",
"183 396 OFFCURVE",
"173 395 CURVE",
"161 387 OFFCURVE",
"145 372 OFFCURVE",
"131 367 CURVE SMOOTH",
"121 364 OFFCURVE",
"111 363 OFFCURVE",
"101 359 CURVE SMOOTH",
"67 347 OFFCURVE",
"17 302 OFFCURVE",
"17 264 CURVE SMOOTH",
"17 253 OFFCURVE",
"21 226 OFFCURVE",
"32 221 CURVE",
"32 222 LINE",
"33 222 LINE",
"33 229 OFFCURVE",
"29 235 OFFCURVE",
"29 242 CURVE SMOOTH",
"29 272 OFFCURVE",
"73 308 OFFCURVE",
"96 325 CURVE SMOOTH",
"161 377 OFFCURVE",
"245 411 OFFCURVE",
"325 427 CURVE SMOOTH",
"343 431 OFFCURVE",
"364 428 OFFCURVE",
"381 432 CURVE SMOOTH",
"394 435 OFFCURVE",
"404 438 OFFCURVE",
"418 438 CURVE SMOOTH",
"472 438 OFFCURVE",
"550 432 OFFCURVE",
"596 401 CURVE SMOOTH",
"615 388 OFFCURVE",
"624 366 OFFCURVE",
"624 344 CURVE SMOOTH",
"624 301 OFFCURVE",
"594 265 OFFCURVE",
"557 247 CURVE SMOOTH",
"544 240 OFFCURVE",
"536 228 OFFCURVE",
"519 228 CURVE",
"496 213 LINE",
"482 213 OFFCURVE",
"472 205 OFFCURVE",
"460 202 CURVE SMOOTH",
"444 199 OFFCURVE",
"422 192 OFFCURVE",
"407 192 CURVE",
"405 189 OFFCURVE",
"390 189 OFFCURVE",
"386 189 CURVE SMOOTH",
"383 189 LINE",
"381 186 OFFCURVE",
"366 184 OFFCURVE",
"362 182 CURVE",
"351 182 OFFCURVE",
"339 180 OFFCURVE",
"328 180 CURVE SMOOTH",
"319 180 OFFCURVE",
"310 182 OFFCURVE",
"302 179 CURVE",
"300 179 LINE",
"300 178 OFFCURVE",
"300 178 OFFCURVE",
"299 178 CURVE",
"299 178 OFFCURVE",
"296 180 OFFCURVE",
"295 180 CURVE",
"295 179 LINE",
"294 179 LINE",
"294 174 LINE",
"318 173 OFFCURVE",
"342 171 OFFCURVE",
"366 171 CURVE SMOOTH"
);
},
{
closed = 1;
nodes = (
"246 -26 OFFCURVE",
"259 -4 OFFCURVE",
"270 10 CURVE SMOOTH",
"276 19 OFFCURVE",
"285 26 OFFCURVE",
"289 37 CURVE",
"286 37 LINE",
"285 28 OFFCURVE",
"228 -8 OFFCURVE",
"217 -15 CURVE",
"203 -15 OFFCURVE",
"200 3 OFFCURVE",
"200 14 CURVE SMOOTH",
"200 115 OFFCURVE",
"323 257 OFFCURVE",
"386 325 CURVE SMOOTH",
"399 339 OFFCURVE",
"436 361 OFFCURVE",
"439 379 CURVE",
"439 383 LINE SMOOTH",
"439 403 OFFCURVE",
"411 410 OFFCURVE",
"395 412 CURVE",
"394 411 LINE",
"394 405 OFFCURVE",
"400 403 OFFCURVE",
"400 397 CURVE SMOOTH",
"400 385 OFFCURVE",
"381 370 OFFCURVE",
"374 361 CURVE SMOOTH",
"359 342 OFFCURVE",
"346 323 OFFCURVE",
"332 305 CURVE SMOOTH",
"322 293 OFFCURVE",
"311 282 OFFCURVE",
"302 270 CURVE SMOOTH",
"298 265 OFFCURVE",
"295 258 OFFCURVE",
"291 253 CURVE SMOOTH",
"271 227 OFFCURVE",
"253 199 OFFCURVE",
"235 171 CURVE",
"236 169 OFFCURVE",
"227 160 OFFCURVE",
"226 159 CURVE",
"225 143 OFFCURVE",
"172 79 OFFCURVE",
"172 28 CURVE SMOOTH",
"172 1 OFFCURVE",
"198 -26 OFFCURVE",
"226 -26 CURVE SMOOTH"
);
}
);
width = 503;
},
{
layerId = "A97A914C-B88D-4C15-9174-D82F9495701A";
paths = (
{
closed = 1;
nodes = (
"410 169 OFFCURVE",
"437 173 OFFCURVE",
"462 175 CURVE SMOOTH",
"476 176 OFFCURVE",
"491 180 OFFCURVE",
"505 183 CURVE SMOOTH",
"563 197 OFFCURVE",
"625 223 OFFCURVE",
"655 273 CURVE SMOOTH",
"665 290 OFFCURVE",
"671 310 OFFCURVE",
"670 331 CURVE SMOOTH",
"664 395 OFFCURVE",
"591 439 OFFCURVE",
"530 453 CURVE SMOOTH",
"495 462 OFFCURVE",
"458 461 OFFCURVE",
"423 461 CURVE SMOOTH",
"422 461 OFFCURVE",
"342 455 OFFCURVE",
"332 453 CURVE",
"324 454 OFFCURVE",
"304 450 OFFCURVE",
"297 446 CURVE",
"284 446 OFFCURVE",
"270 444 OFFCURVE",
"259 438 CURVE",
"240 438 OFFCURVE",
"167 413 OFFCURVE",
"148 406 CURVE SMOOTH",
"138 403 OFFCURVE",
"130 397 OFFCURVE",
"119 396 CURVE",
"106 387 OFFCURVE",
"90 373 OFFCURVE",
"75 368 CURVE SMOOTH",
"65 365 OFFCURVE",
"53 364 OFFCURVE",
"43 360 CURVE SMOOTH",
"6 347 OFFCURVE",
"-9 303 OFFCURVE",
"-5 264 CURVE",
"-5 253 OFFCURVE",
"2 224 OFFCURVE",
"16 218 CURVE",
"22 218 OFFCURVE",
"24 220 OFFCURVE",
"24 223 CURVE SMOOTH",
"24 228 OFFCURVE",
"14 238 OFFCURVE",
"14 242 CURVE SMOOTH",
"11 271 OFFCURVE",
"55 305 OFFCURVE",
"79 323 CURVE SMOOTH",
"145 374 OFFCURVE",
"234 408 OFFCURVE",
"320 425 CURVE SMOOTH",
"340 428 OFFCURVE",
"361 425 OFFCURVE",
"381 429 CURVE SMOOTH",
"394 432 OFFCURVE",
"406 435 OFFCURVE",
"420 435 CURVE SMOOTH",
"485 435 OFFCURVE",
"632 432 OFFCURVE",
"632 350 CURVE SMOOTH",
"632 331 OFFCURVE",
"615 277 OFFCURVE",
"576 258 CURVE SMOOTH",
"572 256 OFFCURVE",
"569 254 OFFCURVE",
"566 252 CURVE SMOOTH",
"559 247 OFFCURVE",
"554 241 OFFCURVE",
"544 237 CURVE SMOOTH",
"512 225 LINE",
"497 224 OFFCURVE",
"487 216 OFFCURVE",
"474 213 CURVE SMOOTH",
"454 210 OFFCURVE",
"435 204 OFFCURVE",
"415 204 CURVE",
"414 200 OFFCURVE",
"407 200 OFFCURVE",
"400 200 CURVE SMOOTH",
"390 200 LINE",
"389 197 OFFCURVE",
"385 197 OFFCURVE",
"381 196 CURVE SMOOTH",
"376 195 OFFCURVE",
"371 194 OFFCURVE",
"369 194 CURVE SMOOTH",
"356 193 OFFCURVE",
"343 191 OFFCURVE",
"331 191 CURVE SMOOTH",
"326 191 OFFCURVE",
"320 192 OFFCURVE",
"314 192 CURVE SMOOTH",
"310 192 OFFCURVE",
"307 192 OFFCURVE",
"303 190 CURVE",
"302 190 LINE",
"301 189 LINE",
"300 189 OFFCURVE",
"298 191 OFFCURVE",
"293 193 CURVE",
"294 190 LINE",
"292 188 OFFCURVE",
"287 184 OFFCURVE",
"287 179 CURVE SMOOTH",
"287 175 OFFCURVE",
"291 171 OFFCURVE",
"307 171 CURVE SMOOTH",
"333 170 OFFCURVE",
"360 169 OFFCURVE",
"386 169 CURVE SMOOTH"
);
},
{
closed = 1;
nodes = (
"272 -29 OFFCURVE",
"284 -8 OFFCURVE",
"296 8 CURVE SMOOTH",
"304 20 OFFCURVE",
"310 24 OFFCURVE",
"316 39 CURVE",
"307 39 LINE",
"307 32 OFFCURVE",
"292 23 OFFCURVE",
"277 12 CURVE SMOOTH",
"238 -12 LINE",
"225 -12 OFFCURVE",
"220 3 OFFCURVE",
"219 14 CURVE SMOOTH",
"211 114 OFFCURVE",
"333 255 OFFCURVE",
"396 323 CURVE SMOOTH",
"411 339 OFFCURVE",
"450 361 OFFCURVE",
"450 381 CURVE SMOOTH",
"450 406 OFFCURVE",
"391 421 OFFCURVE",
"379 423 CURVE",
"376 420 LINE",
"376 416 OFFCURVE",
"377 414 OFFCURVE",
"380 412 CURVE",
"381 410 LINE",
"383 408 OFFCURVE",
"384 407 OFFCURVE",
"385 405 CURVE",
"385 394 OFFCURVE",
"366 378 OFFCURVE",
"359 370 CURVE SMOOTH",
"345 352 OFFCURVE",
"332 332 OFFCURVE",
"318 314 CURVE SMOOTH",
"308 303 OFFCURVE",
"297 292 OFFCURVE",
"288 280 CURVE SMOOTH",
"284 275 OFFCURVE",
"282 268 OFFCURVE",
"278 263 CURVE SMOOTH",
"258 236 OFFCURVE",
"240 209 OFFCURVE",
"222 179 CURVE",
"224 176 OFFCURVE",
"216 170 OFFCURVE",
"213 168 CURVE",
"214 151 OFFCURVE",
"162 88 OFFCURVE",
"166 36 CURVE SMOOTH",
"169 7 OFFCURVE",
"218 -29 OFFCURVE",
"249 -29 CURVE SMOOTH"
);
}
);
width = 547;
}
);
note = P;
unicode = 0050;
},
{
glyphname = Thorn;
lastChange = "2021-10-27 16:11:48 +0000";
layers = (
{
layerId = "F9847816-3BA7-404E-BAEF-52D5126F5321";
paths = (
{
closed = 1;
nodes = (
"92 -111 OFFCURVE",
"123 -110 OFFCURVE",
"123 -105 CURVE",
"122 -104 OFFCURVE",
"113 -95 OFFCURVE",
"113 -94 CURVE SMOOTH",
"113 -82 OFFCURVE",
"130 -74 OFFCURVE",
"130 -67 CURVE SMOOTH",
"130 -66 OFFCURVE",
"128 -66 OFFCURVE",
"127 -66 CURVE SMOOTH",
"118 -66 OFFCURVE",
"107 -92 OFFCURVE",
"85 -92 CURVE SMOOTH",
"60 -92 OFFCURVE",
"59 -48 OFFCURVE",
"59 -31 CURVE SMOOTH",
"59 70 OFFCURVE",
"114 248 OFFCURVE",
"199 378 CURVE",
"264 376 OFFCURVE",
"402 350 OFFCURVE",
"402 264 CURVE SMOOTH",
"402 187 OFFCURVE",
"306 141 OFFCURVE",
"242 128 CURVE SMOOTH",
"208 122 OFFCURVE",
"173 122 OFFCURVE",
"138 121 CURVE SMOOTH",
"129 121 OFFCURVE",
"113 119 OFFCURVE",
"113 107 CURVE SMOOTH",
"113 95 OFFCURVE",
"137 95 OFFCURVE",
"144 95 CURVE SMOOTH",
"244 95 OFFCURVE",
"433 156 OFFCURVE",
"433 284 CURVE SMOOTH",
"433 382 OFFCURVE",
"293 396 OFFCURVE",
"223 395 CURVE SMOOTH",
"211 395 LINE",
"214 399 OFFCURVE",
"287 524 OFFCURVE",
"287 528 CURVE SMOOTH",
"287 536 OFFCURVE",
"274 536 OFFCURVE",
"269 536 CURVE SMOOTH",
"253 536 OFFCURVE",
"237 533 OFFCURVE",
"225 521 CURVE",
"223 515 OFFCURVE",
"165 398 OFFCURVE",
"162 392 CURVE",
"138 386 OFFCURVE",
"124 373 OFFCURVE",
"136 373 CURVE SMOOTH",
"140 373 OFFCURVE",
"145 374 OFFCURVE",
"153 376 CURVE",
"110 294 OFFCURVE",
"41 131 OFFCURVE",
"41 -12 CURVE SMOOTH",
"41 -48 OFFCURVE",
"42 -111 OFFCURVE",
"89 -111 CURVE SMOOTH"
);
}
);
width = 473;
},
{
layerId = "A97A914C-B88D-4C15-9174-D82F9495701A";
paths = (
{
closed = 1;
nodes = (
"104 -115 OFFCURVE",
"127 -113 OFFCURVE",
"127 -105 CURVE",
"126 -102 LINE",
"120 -96 OFFCURVE",
"118 -93 OFFCURVE",
"117 -93 CURVE",
"117 -94 LINE SMOOTH",
"117 -89 OFFCURVE",
"121 -84 OFFCURVE",
"126 -80 CURVE SMOOTH",
"131 -75 OFFCURVE",
"134 -71 OFFCURVE",
"134 -67 CURVE SMOOTH",
"134 -63 OFFCURVE",
"131 -62 OFFCURVE",
"127 -62 CURVE SMOOTH",
"123 -62 OFFCURVE",
"118 -66 OFFCURVE",
"112 -72 CURVE SMOOTH",
"105 -80 OFFCURVE",
"97 -88 OFFCURVE",
"85 -88 CURVE SMOOTH",
"70 -88 OFFCURVE",
"63 -68 OFFCURVE",
"63 -31 CURVE SMOOTH",
"63 69 OFFCURVE",
"117 245 OFFCURVE",
"201 374 CURVE",
"267 371 OFFCURVE",
"398 346 OFFCURVE",
"398 264 CURVE SMOOTH",
"398 190 OFFCURVE",
"305 145 OFFCURVE",
"241 132 CURVE SMOOTH",
"208 126 OFFCURVE",
"173 126 OFFCURVE",
"138 125 CURVE SMOOTH",
"120 125 OFFCURVE",
"109 118 OFFCURVE",
"109 107 CURVE SMOOTH",
"109 96 OFFCURVE",
"122 91 OFFCURVE",
"144 91 CURVE SMOOTH",
"245 91 OFFCURVE",
"437 153 OFFCURVE",
"437 284 CURVE SMOOTH",
"437 386 OFFCURVE",
"293 400 OFFCURVE",
"223 399 CURVE SMOOTH",
"218 399 LINE",
"234 425 OFFCURVE",
"291 524 OFFCURVE",
"291 528 CURVE SMOOTH",
"291 537 OFFCURVE",
"282 540 OFFCURVE",
"269 540 CURVE SMOOTH",
"249 540 OFFCURVE",
"233 535 OFFCURVE",
"222 524 CURVE",
"221 522 LINE SMOOTH",
"219 517 OFFCURVE",
"167 411 OFFCURVE",
"159 395 CURVE",
"141 390 OFFCURVE",
"125 378 OFFCURVE",
"125 372 CURVE SMOOTH",
"125 370 OFFCURVE",
"128 368 OFFCURVE",
"133 368 CURVE SMOOTH",
"136 368 OFFCURVE",
"140 369 OFFCURVE",
"145 370 CURVE",
"102 285 OFFCURVE",
"37 127 OFFCURVE",
"37 -12 CURVE SMOOTH",
"37 -48 OFFCURVE",
"38 -115 OFFCURVE",
"89 -115 CURVE SMOOTH"
);
}
);
width = 473;
}
);
note = Thorn;
unicode = 00DE;
},
{
color = 9;
glyphname = Q;
lastChange = "2021-10-28 23:18:39 +0000";
layers = (
{
layerId = "F9847816-3BA7-404E-BAEF-52D5126F5321";
paths = (
{
closed = 1;
nodes = (
"594 -88 OFFCURVE",
"607 -87 OFFCURVE",
"616 -80 CURVE",
"621 -80 OFFCURVE",
"625 -82 OFFCURVE",
"629 -82 CURVE SMOOTH",
"642 -82 OFFCURVE",
"671 -60 OFFCURVE",
"671 -47 CURVE SMOOTH",
"671 10 OFFCURVE",
"661 2 OFFCURVE",
"619 32 CURVE",
"619 31 LINE SMOOTH",
"619 25 OFFCURVE",
"661 -5 OFFCURVE",
"661 -30 CURVE SMOOTH",
"661 -44 OFFCURVE",
"648 -49 OFFCURVE",
"637 -55 CURVE",
"627 -56 OFFCURVE",
"614 -59 OFFCURVE",
"604 -59 CURVE SMOOTH",
"585 -59 OFFCURVE",
"566 -58 OFFCURVE",
"547 -57 CURVE SMOOTH",
"534 -57 OFFCURVE",
"519 -53 OFFCURVE",
"506 -50 CURVE SMOOTH",
"446 -39 OFFCURVE",
"389 -20 OFFCURVE",
"331 0 CURVE",
"339 0 OFFCURVE",
"342 2 OFFCURVE",
"349 5 CURVE SMOOTH",
"404 31 OFFCURVE",
"459 59 OFFCURVE",
"508 95 CURVE SMOOTH",
"525 108 OFFCURVE",
"537 124 OFFCURVE",
"553 137 CURVE SMOOTH",
"560 143 OFFCURVE",
"568 145 OFFCURVE",
"574 151 CURVE SMOOTH",
"618 192 OFFCURVE",
"671 261 OFFCURVE",
"671 323 CURVE SMOOTH",
"671 333 OFFCURVE",
"670 343 OFFCURVE",
"668 352 CURVE SMOOTH",
"655 398 OFFCURVE",
"615 426 OFFCURVE",
"571 439 CURVE SMOOTH",
"561 442 OFFCURVE",
"549 446 OFFCURVE",
"539 446 CURVE SMOOTH",
"521 447 OFFCURVE",
"504 447 OFFCURVE",
"486 448 CURVE SMOOTH",
"473 448 OFFCURVE",
"459 444 OFFCURVE",
"451 444 CURVE SMOOTH",
"445 444 OFFCURVE",
"436 447 OFFCURVE",
"432 441 CURVE",
"424 441 LINE",
"414 438 LINE",
"408 439 LINE",
"406 437 OFFCURVE",
"374 429 OFFCURVE",
"369 427 CURVE",
"333 418 OFFCURVE",
"302 404 OFFCURVE",
"269 387 CURVE SMOOTH",
"243 374 OFFCURVE",
"244 378 OFFCURVE",
"223 357 CURVE SMOOTH",
"221 355 OFFCURVE",
"214 350 OFFCURVE",
"213 346 CURVE",
"203 346 OFFCURVE",
"195 339 OFFCURVE",
"190 332 CURVE SMOOTH",
"189 330 OFFCURVE",
"186 330 OFFCURVE",
"185 329 CURVE SMOOTH",
"169 319 OFFCURVE",
"112 251 OFFCURVE",
"113 233 CURVE",
"103 223 LINE",
"100 211 OFFCURVE",
"95 199 OFFCURVE",
"95 185 CURVE SMOOTH",
"95 168 OFFCURVE",
"101 150 OFFCURVE",
"109 135 CURVE SMOOTH",
"133 89 OFFCURVE",
"208 80 OFFCURVE",
"254 80 CURVE SMOOTH",
"309 80 OFFCURVE",
"367 93 OFFCURVE",
"409 131 CURVE SMOOTH",
"418 140 OFFCURVE",
"430 148 OFFCURVE",
"433 161 CURVE",
"430 161 LINE",
"431 133 OFFCURVE",
"293 105 OFFCURVE",
"268 93 CURVE",
"252 93 OFFCURVE",
"236 92 OFFCURVE",
"221 92 CURVE SMOOTH",
"173 92 OFFCURVE",
"121 102 OFFCURVE",
"121 161 CURVE SMOOTH",
"121 250 OFFCURVE",
"254 351 OFFCURVE",
"326 387 CURVE SMOOTH",
"381 415 OFFCURVE",
"458 437 OFFCURVE",
"519 437 CURVE SMOOTH",
"576 437 OFFCURVE",
"641 416 OFFCURVE",
"641 348 CURVE SMOOTH",
"641 320 OFFCURVE",
"630 288 OFFCURVE",
"617 264 CURVE SMOOTH",
"611 252 OFFCURVE",
"597 240 OFFCURVE",
"595 226 CURVE",
"590 225 OFFCURVE",
"586 217 OFFCURVE",
"584 213 CURVE",
"543 152 OFFCURVE",
"482 108 OFFCURVE",
"425 64 CURVE",
"424 62 LINE",
"411 61 OFFCURVE",
"387 40 OFFCURVE",
"374 33 CURVE SMOOTH",
"354 24 OFFCURVE",
"334 16 OFFCURVE",
"314 7 CURVE",
"304 7 OFFCURVE",
"230 37 OFFCURVE",
"214 42 CURVE SMOOTH",
"196 49 OFFCURVE",
"160 56 OFFCURVE",
"146 68 CURVE SMOOTH",
"136 77 OFFCURVE",
"137 92 OFFCURVE",
"131 104 CURVE",
"131 105 LINE",
"130 105 LINE",
"129 98 OFFCURVE",
"123 91 OFFCURVE",
"123 81 CURVE SMOOTH",
"123 79 LINE",
"122 78 LINE",
"121 78 LINE",
"93 91 OFFCURVE",
"65 104 OFFCURVE",
"33 104 CURVE SMOOTH",
"16 104 OFFCURVE",
"6 94 OFFCURVE",
"6 77 CURVE SMOOTH",
"6 64 OFFCURVE",
"11 50 OFFCURVE",
"20 41 CURVE",
"20 40 OFFCURVE",
"20 39 OFFCURVE",
"21 39 CURVE SMOOTH",
"23 39 LINE",
"22 45 OFFCURVE",
"18 51 OFFCURVE",
"18 57 CURVE SMOOTH",
"18 72 OFFCURVE",
"36 76 OFFCURVE",
"48 76 CURVE SMOOTH",
"73 76 OFFCURVE",
"101 65 OFFCURVE",
"124 57 CURVE",
"125 47 OFFCURVE",
"135 36 OFFCURVE",
"142 30 CURVE",
"196 -26 OFFCURVE",
"250 -3 OFFCURVE",
"317 -16 CURVE SMOOTH",
"354 -23 OFFCURVE",
"388 -37 OFFCURVE",
"424 -49 CURVE",
"424 -50 LINE",
"442 -50 OFFCURVE",
"455 -59 OFFCURVE",
"471 -64 CURVE SMOOTH",
"503 -75 OFFCURVE",
"549 -88 OFFCURVE",
"583 -88 CURVE SMOOTH"
);
},
{
closed = 1;
nodes = (
"218 -4 OFFCURVE",
"156 2 OFFCURVE",
"147 45 CURVE",
"174 44 OFFCURVE",
"245 14 OFFCURVE",
"274 3 CURVE",
"273 -1 OFFCURVE",
"258 -3 OFFCURVE",
"254 -4 CURVE"
);
}
);
width = 614;
},
{
layerId = "A97A914C-B88D-4C15-9174-D82F9495701A";
paths = (
{
closed = 1;
nodes = (
"678 -95 OFFCURVE",
"696 -92 OFFCURVE",
"706 -83 CURVE",
"711 -83 OFFCURVE",
"716 -85 OFFCURVE",
"720 -85 CURVE SMOOTH",
"735 -84 OFFCURVE",
"770 -59 OFFCURVE",
"769 -43 CURVE SMOOTH",
"768 -12 OFFCURVE",
"763 5 OFFCURVE",
"751 19 CURVE SMOOTH",
"738 34 OFFCURVE",
"713 47 OFFCURVE",
"696 57 CURVE",
"695 53 OFFCURVE",
"694 53 OFFCURVE",
"695 52 CURVE",
"695 44 OFFCURVE",
"743 16 OFFCURVE",
"744 -10 CURVE SMOOTH",
"744 -23 OFFCURVE",
"729 -29 OFFCURVE",
"720 -35 CURVE",
"708 -37 OFFCURVE",
"695 -40 OFFCURVE",
"683 -41 CURVE SMOOTH",
"662 -42 OFFCURVE",
"640 -42 OFFCURVE",
"619 -43 CURVE SMOOTH",
"604 -43 OFFCURVE",
"587 -40 OFFCURVE",
"572 -38 CURVE SMOOTH",
"507 -31 OFFCURVE",
"446 -15 OFFCURVE",
"384 1 CURVE",
"387 2 OFFCURVE",
"389 4 OFFCURVE",
"393 6 CURVE SMOOTH",
"424 21 OFFCURVE",
"458 36 OFFCURVE",
"492 52 CURVE SMOOTH",
"525 69 OFFCURVE",
"558 86 OFFCURVE",
"586 107 CURVE SMOOTH",
"604 121 OFFCURVE",
"617 140 OFFCURVE",
"635 154 CURVE",
"642 161 OFFCURVE",
"651 164 OFFCURVE",
"659 170 CURVE",
"705 216 OFFCURVE",
"747 293 OFFCURVE",
"747 359 CURVE SMOOTH",
"747 430 OFFCURVE",
"686 468 OFFCURVE",
"627 481 CURVE SMOOTH",
"615 484 OFFCURVE",
"582 488 OFFCURVE",
"570 488 CURVE SMOOTH",
"550 488 OFFCURVE",
"530 487 OFFCURVE",
"510 487 CURVE",
"503 486 OFFCURVE",
"495 485 OFFCURVE",
"488 483 CURVE SMOOTH",
"481 482 OFFCURVE",
"475 480 OFFCURVE",
"471 480 CURVE SMOOTH",
"464 480 OFFCURVE",
"454 482 OFFCURVE",
"449 476 CURVE",
"440 476 LINE",
"429 471 LINE",
"421 473 LINE",
"419 469 OFFCURVE",
"384 459 OFFCURVE",
"379 458 CURVE SMOOTH",
"338 446 OFFCURVE",
"303 429 OFFCURVE",
"266 409 CURVE SMOOTH",
"252 401 OFFCURVE",
"245 398 OFFCURVE",
"239 395 CURVE SMOOTH",
"233 391 OFFCURVE",
"227 386 OFFCURVE",
"215 374 CURVE SMOOTH",
"212 370 OFFCURVE",
"206 367 OFFCURVE",
"204 362 CURVE",
"193 361 OFFCURVE",
"184 353 OFFCURVE",
"178 345 CURVE",
"178 344 OFFCURVE",
"177 344 OFFCURVE",
"177 344 CURVE",
"175 343 LINE SMOOTH",
"159 337 OFFCURVE",
"95 257 OFFCURVE",
"95 236 CURVE",
"85 226 LINE",
"81 212 OFFCURVE",
"76 198 OFFCURVE",
"76 183 CURVE SMOOTH",
"77 164 OFFCURVE",
"85 146 OFFCURVE",
"94 130 CURVE SMOOTH",
"122 82 OFFCURVE",
"188 76 OFFCURVE",
"236 76 CURVE SMOOTH",
"313 77 OFFCURVE",
"409 90 OFFCURVE",
"468 145 CURVE SMOOTH",
"478 155 OFFCURVE",
"481 163 OFFCURVE",
"483 177 CURVE",
"483 177 OFFCURVE",
"483 182 OFFCURVE",
"482 185 CURVE SMOOTH",
"480 191 OFFCURVE",
"476 192 OFFCURVE",
"472 184 CURVE",
"473 171 OFFCURVE",
"441 154 OFFCURVE",
"402 138 CURVE SMOOTH",
"383 131 OFFCURVE",
"363 123 OFFCURVE",
"346 117 CURVE SMOOTH",
"330 111 OFFCURVE",
"316 105 OFFCURVE",
"309 102 CURVE",
"291 101 OFFCURVE",
"261 95 OFFCURVE",
"244 94 CURVE SMOOTH",
"188 91 OFFCURVE",
"130 99 OFFCURVE",
"130 161 CURVE SMOOTH",
"130 251 OFFCURVE",
"273 363 OFFCURVE",
"353 406 CURVE SMOOTH",
"418 442 OFFCURVE",
"513 471 OFFCURVE",
"583 471 CURVE SMOOTH",
"645 471 OFFCURVE",
"707 449 OFFCURVE",
"707 383 CURVE SMOOTH",
"707 355 OFFCURVE",
"696 323 OFFCURVE",
"683 298 CURVE SMOOTH",
"677 285 OFFCURVE",
"663 273 OFFCURVE",
"660 258 CURVE",
"654 255 OFFCURVE",
"651 248 OFFCURVE",
"647 242 CURVE SMOOTH",
"604 176 OFFCURVE",
"535 125 OFFCURVE",
"474 77 CURVE",
"473 74 LINE",
"457 72 OFFCURVE",
"434 50 OFFCURVE",
"418 41 CURVE SMOOTH",
"396 30 OFFCURVE",
"374 21 OFFCURVE",
"352 10 CURVE",
"346 11 OFFCURVE",
"323 17 OFFCURVE",
"299 24 CURVE SMOOTH",
"274 31 OFFCURVE",
"248 39 OFFCURVE",
"239 41 CURVE SMOOTH",
"220 46 OFFCURVE",
"177 52 OFFCURVE",
"162 64 CURVE SMOOTH",
"155 69 OFFCURVE",
"148 83 OFFCURVE",
"144 91 CURVE SMOOTH",
"138 103 OFFCURVE",
"132 113 OFFCURVE",
"124 113 CURVE",
"117 110 OFFCURVE",
"115 107 OFFCURVE",
"115 103 CURVE SMOOTH",
"115 101 OFFCURVE",
"115 100 OFFCURVE",
"116 98 CURVE SMOOTH",
"118 92 OFFCURVE",
"121 88 OFFCURVE",
"121 82 CURVE",
"89 94 OFFCURVE",
"67 103 OFFCURVE",
"32 101 CURVE SMOOTH",
"11 100 OFFCURVE",
"-1 81 OFFCURVE",
"-1 62 CURVE SMOOTH",
"0 48 OFFCURVE",
"6 33 OFFCURVE",
"17 23 CURVE",
"18 18 OFFCURVE",
"26 13 OFFCURVE",
"31 13 CURVE SMOOTH",
"33 13 OFFCURVE",
"34 14 OFFCURVE",
"34 16 CURVE SMOOTH",
"34 17 OFFCURVE",
"34 19 OFFCURVE",
"33 21 CURVE",
"30 34 LINE SMOOTH",
"28 40 OFFCURVE",
"27 44 OFFCURVE",
"27 48 CURVE SMOOTH",
"27 58 OFFCURVE",
"35 61 OFFCURVE",
"58 61 CURVE SMOOTH",
"81 61 OFFCURVE",
"99 55 OFFCURVE",
"121 49 CURVE",
"123 38 OFFCURVE",
"135 29 OFFCURVE",
"143 22 CURVE SMOOTH",
"188 -18 OFFCURVE",
"209 -28 OFFCURVE",
"247 -28 CURVE SMOOTH",
"254 -28 OFFCURVE",
"262 -27 OFFCURVE",
"270 -26 CURVE SMOOTH",
"288 -25 OFFCURVE",
"309 -23 OFFCURVE",
"336 -21 CURVE",
"381 -32 OFFCURVE",
"444 -52 OFFCURVE",
"485 -62 CURVE",
"486 -63 OFFCURVE",
"487 -64 OFFCURVE",
"488 -64 CURVE SMOOTH",
"507 -63 OFFCURVE",
"522 -71 OFFCURVE",
"540 -76 CURVE SMOOTH",
"562 -82 OFFCURVE",
"615 -95 OFFCURVE",
"657 -95 CURVE SMOOTH"
);
},
{
closed = 1;
nodes = (
"244 -7 OFFCURVE",
"180 -4 OFFCURVE",
"166 35 CURVE",
"181 34 OFFCURVE",
"207 28 OFFCURVE",
"233 21 CURVE SMOOTH",
"303 0 LINE",
"297 -2 OFFCURVE",
"290 -3 OFFCURVE",
"284 -5 CURVE"
);
}
);
width = 744;
}
);
note = Q;
unicode = 0051;
},
